<?xml version="1.0" encoding="UTF-8"?>
<svg version="1.1" xmlns="http://www.w3.org/2000/svg" width="959" height="975">
<path d="M0 0 C0.82757812 0.71542969 1.65515625 1.43085937 2.5078125 2.16796875 C13.89604048 12.18434748 24.81374195 22.91361751 34 35 C34.51385254 35.66451172 35.02770508 36.32902344 35.55712891 37.01367188 C71.51991957 83.65147396 88.7758967 138.27701125 88.375 196.875 C88.36851944 198.67683746 88.36851944 198.67683746 88.36190796 200.51507568 C88.07811405 268.00876828 71.4092454 324.15272858 41.48651123 384.02233887 C39.57515225 387.85102125 37.67257577 391.68402939 35.77044678 395.51730347 C33.58006226 399.9301612 31.38462474 404.34049492 29.1875 408.75 C28.79169739 409.54464661 28.39589478 410.33929321 27.98809814 411.15802002 C23.33805429 420.4817318 18.58510981 429.74322658 13.71388245 438.95335388 C10.94217492 444.19678922 8.2075938 449.45746129 5.5078125 454.73828125 C5.14863739 455.44069946 4.78946228 456.14311768 4.41940308 456.86682129 C3.69277502 458.28840779 2.96627397 459.71005923 2.23989868 461.1317749 C-3.55996562 472.47622247 -9.4272199 483.766317 -15.59326172 494.91723633 C-19.70104867 502.37417763 -23.60917198 509.92861605 -27.5 517.5 C-32.31580433 526.86751958 -37.22068902 536.17466938 -42.30078125 545.40234375 C-46.78299224 553.55830326 -51.1448972 561.77575459 -55.5 570 C-60.78648665 579.97960103 -66.113024 589.93339363 -71.54296875 599.8359375 C-75.57601279 607.19871544 -79.5431674 614.59609093 -83.5 622 C-88.43617934 631.23547243 -93.41260356 640.44741137 -98.44140625 649.6328125 C-102.83352686 657.66746514 -107.1543956 665.7398032 -111.47027588 673.81555176 C-115.56771611 681.48116338 -119.69604195 689.12848951 -123.875 696.75 C-128.7612193 705.66961969 -133.54772935 714.6401559 -138.3125 723.625 C-138.67237 724.30348999 -139.03223999 724.98197998 -139.40301514 725.68103027 C-140.13031971 727.05228166 -140.85761463 728.42353818 -141.5848999 729.7947998 C-141.94489075 730.47353149 -142.30488159 731.15226318 -142.67578125 731.8515625 C-143.03593323 732.53061646 -143.39608521 733.20967041 -143.76715088 733.90930176 C-162.10491714 768.47579034 -162.10491714 768.47579034 -171 784 C-171.66 784 -172.32 784 -173 784 C-173.56376343 783.01495483 -173.56376343 783.01495483 -174.13891602 782.01000977 C-182.3374994 767.70121986 -190.66341326 753.48435408 -199.17578125 739.359375 C-205.21488402 729.33418403 -211.16109828 719.25382922 -217.1171875 709.17919922 C-218.87486464 706.21129572 -220.6391402 703.24745035 -222.40625 700.28515625 C-230.52148821 686.66053503 -238.30564753 672.86599382 -246 659 C-247.24210474 656.76427694 -248.48429318 654.52860037 -249.7265625 652.29296875 C-251.61554334 648.89280323 -253.50418871 645.49245341 -255.3918457 642.09155273 C-261.32212676 631.40967526 -267.29053627 620.74935958 -273.26611328 610.09277344 C-276.76410907 603.85331827 -280.2578597 597.61148491 -283.75244141 591.37011719 C-286.65520977 586.18608202 -289.55893358 581.00258728 -292.46484375 575.8203125 C-299.74157012 562.8404275 -306.98725965 549.84368275 -314.20703125 536.83203125 C-316.74155982 532.26438845 -319.28085588 527.69944811 -321.82421875 523.13671875 C-328.92836407 510.38585208 -335.95806944 497.59886687 -342.890625 484.75390625 C-345.88785153 479.20082559 -348.91046875 473.66187373 -351.9375 468.125 C-357.45989002 458.01397941 -362.93309413 447.87692254 -368.3828125 437.7265625 C-370.76084991 433.29774054 -373.15227244 428.87657903 -375.5546875 424.4609375 C-405.23666305 369.75274627 -432.29044137 313.29907372 -441 251 C-441.17877686 249.72302246 -441.35755371 248.44604492 -441.54174805 247.13037109 C-443.17917912 234.55126998 -443.3587864 222.04645863 -443.3125 209.375 C-443.31034485 208.31318512 -443.3081897 207.25137024 -443.30596924 206.15737915 C-443.2562349 190.89598026 -442.94265037 176.01960997 -440 161 C-439.81195801 159.9795459 -439.62391602 158.9590918 -439.43017578 157.90771484 C-434.6306348 132.32925421 -426.5863926 107.32252021 -415 84 C-414.64615234 83.27603027 -414.29230469 82.55206055 -413.92773438 81.80615234 C-395.48477333 44.35547778 -366.2663763 11.00234657 -333 -14 C-332.39687988 -14.46003418 -331.79375977 -14.92006836 -331.17236328 -15.39404297 C-322.14766512 -22.27237776 -312.91533561 -28.47930938 -303 -34 C-302.17532227 -34.46019531 -301.35064453 -34.92039063 -300.50097656 -35.39453125 C-209.12936612 -85.856958 -104.29734366 -75.78224009 0 0 Z M-273 3 C-273.64211426 3.33580078 -274.28422852 3.67160156 -274.94580078 4.01757812 C-304.09198289 19.28980081 -331.53017028 42.69433138 -350.81298828 69.36425781 C-352.02862222 71.03944238 -353.27523068 72.68788987 -354.52734375 74.3359375 C-361.30029221 83.37477346 -366.78923675 92.99373254 -372 103 C-372.38542969 103.72751465 -372.77085937 104.4550293 -373.16796875 105.20458984 C-384.57835715 126.95929367 -391.15635976 150.82171314 -395 175 C-395.12987305 175.80598633 -395.25974609 176.61197266 -395.39355469 177.44238281 C-406.59868672 250.85639912 -376.5231762 325.70864396 -341.59008789 388.65307617 C-337.5889763 395.86659668 -333.77443724 403.16559975 -330 410.5 C-323.8446993 422.43516577 -317.48969502 434.24395032 -311 446 C-309.75252145 448.26427735 -308.50513008 450.52860273 -307.2578125 452.79296875 C-304.2110721 458.3218377 -301.15984635 463.84822075 -298.10716248 469.37380981 C-295.71889554 473.69716717 -293.33327014 478.02197301 -290.94921875 482.34765625 C-282.61695226 497.46450275 -274.2535239 512.56366441 -265.86328125 527.6484375 C-263.98021129 531.03559478 -262.09916827 534.42386997 -260.21875 537.8125 C-251.84816716 552.89509818 -243.4373837 567.95468226 -235 583 C-228.42767298 594.71959837 -221.85944727 606.44114998 -215.34204102 618.19140625 C-205.37860934 636.1539371 -195.34070519 654.06983425 -185.02362061 671.83209229 C-184.26260087 673.14421341 -183.50382179 674.45763685 -182.74737549 675.7723999 C-181.68980183 677.60873822 -180.62346147 679.43969495 -179.5546875 681.26953125 C-178.94093262 682.32760986 -178.32717773 683.38568848 -177.69482422 684.47583008 C-176.08664418 687.21781607 -176.08664418 687.21781607 -173 689 C-172.54786133 688.14583496 -172.09572266 687.29166992 -171.62988281 686.41162109 C-163.97710029 671.9589164 -156.32306915 657.50915993 -148.45996094 643.16943359 C-144.42596371 635.80485199 -140.45779411 628.40570821 -136.5 621 C-131.56382066 611.76452757 -126.58739644 602.55258863 -121.55859375 593.3671875 C-117.16647314 585.33253486 -112.8456044 577.2601968 -108.52972412 569.18444824 C-104.43228333 561.51883559 -100.30385144 553.87156941 -96.125 546.25 C-89.40997922 533.98838346 -82.87335155 521.63267545 -76.32939148 509.2792511 C-73.76767797 504.44445547 -71.19837514 499.61375362 -68.625 494.78515625 C-60.69784086 479.90595126 -52.85179553 464.99010007 -45.11328125 450.01171875 C-42.51914778 444.99326386 -39.89289555 439.99288707 -37.25 435 C-24.57167017 410.9559694 -12.27928303 386.71254895 -0.07064819 362.42739868 C1.29047922 359.72046717 2.65527915 357.01544133 4.02352905 354.31210327 C10.59880728 341.31422149 17.07508214 328.31344585 22.69921875 314.8671875 C23.08670288 313.94122269 23.47418701 313.01525787 23.87341309 312.06123352 C34.44070775 286.11208783 38.8959693 257.8122621 41 230 C41.11085938 228.73285156 41.22171875 227.46570313 41.3359375 226.16015625 C42.94393692 204.75638019 43.39929789 182.22523518 40 161 C39.8870459 160.2467041 39.7740918 159.4934082 39.65771484 158.71728516 C34.22213661 123.63706742 18.86700834 90.08580912 -4 63 C-4.49000488 62.40993164 -4.98000977 61.81986328 -5.48486328 61.21191406 C-15.0735522 49.66603535 -25.1734326 39.29801849 -37 30 C-37.96292969 29.22011719 -38.92585938 28.44023438 -39.91796875 27.63671875 C-106.95302313 -25.63448416 -197.07562395 -37.74653455 -273 3 Z " fill="#000000" transform="translate(652,69)"/>
<path d="M0 0 C2.97102204 3.37616141 3.84698819 6.70377775 5 11 C4.35377686 11.3403125 3.70755371 11.680625 3.04174805 12.03125 C-30.43768965 29.26271957 -30.43768965 29.26271957 -61 51 C-61.66 51.48855469 -62.32 51.97710938 -63 52.48046875 C-70.88364532 58.48118985 -78.38046921 69.14498284 -80 79 C-81.12627965 88.64557442 -78.91243838 97.26627472 -73.25 105.1875 C-72.18814625 106.47633478 -71.10442454 107.74745264 -70 109 C-69.48308594 109.62132812 -68.96617188 110.24265625 -68.43359375 110.8828125 C-58.06326495 122.34353382 -42.49313381 129.79606712 -29 137 C-28.36271973 137.3412793 -27.72543945 137.68255859 -27.06884766 138.03417969 C-19.30563744 142.15118282 -11.38523639 145.80356501 -3.25 149.125 C-2.52586914 149.42543213 -1.80173828 149.72586426 -1.05566406 150.03540039 C14.10932607 156.06097803 30.14675797 160.00341128 46 163.75 C46.87662292 163.95799225 47.75324585 164.1659845 48.65643311 164.38027954 C107.55778429 178.27894663 167.46543506 187.32387792 227.8125 191.6875 C228.65335144 191.74852905 229.49420288 191.80955811 230.36053467 191.87243652 C254.71464595 193.61368507 279.02465602 194.20815459 303.4375 194.1875 C304.14769791 194.18723312 304.85789581 194.18696625 305.58961487 194.18669128 C329.77164772 194.17532428 353.87518235 193.79652273 378 192 C378.88077209 191.93447937 379.76154419 191.86895874 380.66900635 191.80145264 C456.66988165 186.06696493 543.08155391 178.76225471 614 149 C615.37236816 148.42693115 615.37236816 148.42693115 616.77246094 147.84228516 C636.22473976 139.58738025 655.78124605 129.72948317 672 116 C672.8146875 115.32066406 673.629375 114.64132812 674.46875 113.94140625 C681.94998284 107.14595309 687.98624229 97.24301348 689.23828125 87.0625 C689.72489419 73.53978241 682.73727595 63.04016862 673.875 53.4375 C658.35931738 38.72919453 637.98520665 29.27940977 619.28125 19.35546875 C614.80698801 16.97818808 610.37534908 14.55443174 606 12 C606.42594588 10.55903414 606.86626633 9.12231288 607.3125 7.6875 C607.55613281 6.88699219 607.79976562 6.08648438 608.05078125 5.26171875 C609.05160028 2.8770512 610.14396047 1.75035757 612 0 C612.88631104 0.37060547 613.77262207 0.74121094 614.68579102 1.12304688 C618.97736076 2.91696216 623.26986332 4.70863954 627.5625 6.5 C628.36098358 6.83335358 629.15946716 7.16670715 629.98214722 7.51016235 C639.349452 11.41939648 648.72474627 15.30731212 658.125 19.13671875 C768.61302623 64.1493093 768.61302623 64.1493093 782 95.5 C786.26355467 106.51418291 786.57918015 118.10003786 782.32421875 129.22265625 C765.5422865 164.42016018 714.90348638 176.79960452 680.875 188.875 C661.37456786 195.74696833 641.64192952 201.9160954 621.91149902 208.08807373 C618.95743541 209.01333189 616.00444288 209.94193467 613.05175781 210.87158203 C600.04974975 214.96438447 587.03639176 219.01797488 574 223 C573.33693848 223.20302734 572.67387695 223.40605469 571.99072266 223.61523438 C554.08262284 229.08728617 535.89072895 233.03959437 517.50201494 236.5130294 C515.53642072 236.8955957 513.57589831 237.30423031 511.61760777 237.72257918 C502.03486123 239.68243556 492.8410335 240.47451033 483.04145813 240.53572083 C481.50077035 240.55571101 479.96009738 240.57687016 478.41943997 240.59907836 C474.23088758 240.65565982 470.04234416 240.69430414 465.85356319 240.72933209 C462.24594148 240.76179903 458.63847506 240.8048982 455.03096525 240.84784726 C420.4143498 241.2583537 385.79411967 241.4434604 351.17551899 241.59351063 C346.64427341 241.6135057 342.11302955 241.63384637 337.58178711 241.65454102 C336.45607782 241.65966458 335.33036854 241.66478815 334.17054685 241.67006698 C317.29344419 241.74955995 300.41863213 241.9134579 283.54272461 242.1262207 C94.89616629 244.47063715 94.89616629 244.47063715 8.3687377 216.30339944 C-0.51502596 213.44906665 -9.53004634 211.1880341 -18.60229492 209.02075195 C-19.6769496 208.76395633 -19.6769496 208.76395633 -20.77331448 208.50197291 C-24.06701643 207.71808949 -27.36272315 206.94352551 -30.65978146 206.17384529 C-44.4923861 202.91198738 -58.23451857 199.29710296 -71.890625 195.36328125 C-72.85329788 195.08825272 -73.81597076 194.81322418 -74.80781555 194.52986145 C-108.55191833 184.64291443 -150.21308684 164.90160664 -168.5859375 133.26953125 C-174.26131482 122.42726416 -175.89184828 110.80354397 -173.3125 98.80078125 C-165.34206229 75.5204611 -145.76390657 63.02725296 -125 52.125 C-124.10571289 51.65537842 -123.21142578 51.18575684 -122.29003906 50.7019043 C-106.23749546 42.39329427 -89.86934693 35.13272844 -73.0625 28.5 C-71.12488038 27.7301187 -69.18738289 26.95992995 -67.25 26.18945312 C-48.59214486 18.78429636 -29.86866716 11.5458905 -11.12583923 4.35888672 C-7.40645093 2.93170529 -3.69369004 1.49288167 0 0 Z " fill="#000000" transform="translate(174,735)"/>
<path d="M0 0 C1.61304404 1.51141445 3.21725358 3.03231257 4.8125 4.5625 C5.63363281 5.32046875 6.45476562 6.0784375 7.30078125 6.859375 C30.54394152 28.98194745 43.18202208 61.42457271 44.015625 93.2421875 C44.35141688 119.65710662 40.09481986 144.41574662 26.8125 167.5625 C26.46316406 168.17319336 26.11382813 168.78388672 25.75390625 169.41308594 C20.45827005 178.49616891 14.14036561 186.05911665 6.8125 193.5625 C6.15765625 194.27921875 5.5028125 194.9959375 4.828125 195.734375 C-16.62206012 218.65123945 -49.95595393 229.56546399 -80.6015625 230.6875 C-116.24489487 231.28780876 -149.3056812 219.2017299 -175.1875 194.5625 C-195.9825971 174.24136523 -207.9600525 147.05044844 -212.1875 118.5625 C-212.31898438 117.69753906 -212.45046875 116.83257812 -212.5859375 115.94140625 C-216.64214978 83.43689435 -208.27135235 47.99009718 -188.92578125 21.4609375 C-186.7464464 18.76054004 -184.49595216 16.15296203 -182.1875 13.5625 C-181.47980469 12.72332031 -180.77210938 11.88414062 -180.04296875 11.01953125 C-159.77686502 -12.53296768 -129.06192467 -27.17055693 -98.26171875 -30.19140625 C-62.43880826 -32.59959501 -27.37877528 -24.11536089 0 0 Z M-112.1875 20.5625 C-113.23808594 20.913125 -114.28867187 21.26375 -115.37109375 21.625 C-134.87983165 28.93126335 -149.76613574 44.13694182 -158.6796875 62.6640625 C-168.38959323 84.89917207 -169.11733519 109.41125223 -160.9375 132.25 C-156.40571112 143.255773 -150.45413061 152.0431127 -142.1875 160.5625 C-141.63578125 161.18769531 -141.0840625 161.81289063 -140.515625 162.45703125 C-128.15733026 176.00832969 -108.23379499 182.92441817 -90.265625 183.8828125 C-65.11960029 184.69216883 -43.69297873 177.10676471 -25.0625 159.9375 C-8.32350973 142.44233358 -2.50652407 120.10662087 -2.71948242 96.52026367 C-3.33781033 73.40518669 -12.13929232 52.53890421 -29.0703125 36.3984375 C-51.74357069 16.73712504 -83.88124998 10.86114712 -112.1875 20.5625 Z " fill="#000000" transform="translate(561.1875,172.4375)"/>
</svg>
