<?xml version="1.0" encoding="UTF-8"?>
<svg version="1.1" xmlns="http://www.w3.org/2000/svg" width="959" height="952">
<path d="M0 0 C3.87175329 3.43696973 7.63574297 6.97948341 11.36279297 10.57226562 C11.9188623 11.1064209 12.47493164 11.64057617 13.04785156 12.19091797 C20.35896294 19.25028376 27.19398575 26.47315284 33.36279297 34.57226562 C33.83652344 35.18602051 34.31025391 35.79977539 34.79833984 36.43212891 C55.98443669 64.05019652 70.23633163 95.34108844 77.61279297 129.32226562 C77.76409668 130.01747314 77.91540039 130.71268066 78.07128906 131.42895508 C78.55355906 133.80352176 78.96744376 136.18161452 79.36279297 138.57226562 C79.54156982 139.62406006 79.72034668 140.67585449 79.90454102 141.75952148 C81.86630712 155.00078733 81.71559002 168.27469196 81.67529297 181.63476562 C81.67255875 183.50267761 81.67255875 183.50267761 81.66976929 185.4083252 C81.623146 204.30730958 81.15348354 222.85694171 78.36279297 241.57226562 C78.19118652 242.74950195 78.01958008 243.92673828 77.84277344 245.13964844 C74.67283648 266.1875766 69.77494568 286.61535766 61.83349609 306.39111328 C61.18430332 308.00786674 61.18430332 308.00786674 60.52199554 309.65728188 C55.89946064 320.97777381 50.53655268 331.87826968 45.01904297 342.78320312 C43.95787056 344.89872378 42.89754674 347.01467028 41.8380127 349.13101196 C39.08253695 354.62874142 36.31481438 360.12021273 33.54449463 365.61047363 C31.30098814 370.06198526 29.06648421 374.51798505 26.83240509 378.97423363 C24.12684645 384.37042898 21.41725196 389.76459346 18.70654297 395.15820312 C18.20576736 396.15484356 17.70499176 397.15148399 17.18904114 398.17832565 C11.05213913 410.38154818 4.80605944 422.51865881 -1.59036636 434.58786201 C-3.71644476 438.61808149 -5.79663708 442.67192659 -7.88330078 446.72265625 C-13.15894308 456.96398105 -18.53989077 467.13312288 -24.09765625 477.22387695 C-28.06094901 484.44755121 -31.86361709 491.74797 -35.63720703 499.07226562 C-40.27541978 508.07058754 -45.00815666 517.0032515 -49.88720703 525.87304688 C-54.38400983 534.0640735 -58.76419521 542.31476403 -63.13720703 550.57226562 C-68.44998651 560.60081249 -73.80168805 570.60446621 -79.25488281 580.55761719 C-83.03752756 587.46303817 -86.78207528 594.38834289 -90.51220703 601.32226562 C-91.09623291 602.40781738 -91.68025879 603.49336914 -92.28198242 604.61181641 C-94.06752546 607.93171468 -95.85247785 611.25192977 -97.63720703 614.57226562 C-104.25302765 626.88043354 -110.86875453 639.18791104 -117.57470703 651.44726562 C-130.1164598 674.38673864 -142.34242374 697.49973043 -154.63720703 720.57226562 C-155.95720703 720.57226562 -157.27720703 720.57226562 -158.63720703 720.57226562 C-159.08966797 719.74210938 -159.54212891 718.91195312 -160.00830078 718.05664062 C-165.02400074 708.95821684 -170.3446639 700.06056495 -175.76220703 691.19726562 C-188.02470671 671.1144475 -199.63112846 650.68147007 -211.02001953 630.09179688 C-214.35678657 624.0648612 -217.73818011 618.06425705 -221.13720703 612.07226562 C-226.47138918 602.66387334 -231.7358879 593.21808701 -236.98095703 583.75976562 C-241.1813896 576.18691184 -245.40120365 568.62527505 -249.63720703 561.07226562 C-256.3726527 549.0593287 -263.06337542 537.02182297 -269.74609375 524.97949219 C-272.25095726 520.46646932 -274.75766753 515.95447387 -277.26464844 511.44262695 C-278.51329724 509.19522191 -279.76166953 506.94766321 -281.00976562 504.69995117 C-284.14208277 499.05941291 -287.27831057 493.42111566 -290.42236328 487.78710938 C-297.82775838 474.50672289 -305.11795963 461.17115493 -312.30517578 447.77148438 C-315.38939873 442.02381651 -318.50715535 436.29507469 -321.63720703 430.57226562 C-331.31154813 412.86286471 -340.90538946 395.11615977 -350.16430664 377.18530273 C-353.40376173 370.90551951 -353.40376173 370.90551951 -356.77001953 364.69335938 C-397.51453114 291.13161561 -417.95170215 203.08409446 -394.82470703 120.75976562 C-380.24625127 71.07275206 -350.67258058 25.53501529 -309.63720703 -6.42773438 C-308.39351043 -7.42356964 -307.1500352 -8.4196814 -305.90673828 -9.41601562 C-271.79039826 -36.46020716 -231.70956006 -54.05982176 -188.63720703 -60.42773438 C-187.58351929 -60.5902771 -187.58351929 -60.5902771 -186.50854492 -60.75610352 C-120.64356323 -69.56276076 -49.37401864 -43.05685372 0 0 Z M-236.58642578 114.23632812 C-257.0114448 137.50139741 -265.44977171 166.07809304 -263.86474609 196.66210938 C-261.51901318 226.66332865 -247.28426214 252.96214763 -224.63720703 272.57226562 C-202.60345657 289.83873656 -174.62589564 296.65460041 -147.0234375 293.87011719 C-126.11501936 291.2603085 -106.62739268 283.41611763 -90.63720703 269.57226562 C-89.88955078 268.96898437 -89.14189453 268.36570312 -88.37158203 267.74414062 C-68.55107699 251.25015391 -56.99363079 224.91015548 -54.63720703 199.57226562 C-52.70748476 168.38347899 -60.06659631 138.82982495 -81.06689453 114.94628906 C-97.97828956 96.29337085 -122.08299612 82.9183146 -147.60302734 81.39526367 C-181.96259629 80.71874565 -212.06941438 88.6884369 -236.58642578 114.23632812 Z " fill="#2698CE" transform="translate(635.63720703125,61.427734375)"/>
<path d="M0 0 C1.98 4.95 1.98 4.95 4 10 C-5.18379636 15.50540577 -14.44007092 20.81075468 -23.875 25.875 C-38.36604734 33.70311957 -52.72652434 41.91288842 -65 53 C-65.99193359 53.87011719 -65.99193359 53.87011719 -67.00390625 54.7578125 C-71.77402987 59.1879489 -74.99024491 64.25410393 -78 70 C-78.34289062 70.64710938 -78.68578125 71.29421875 -79.0390625 71.9609375 C-82.61640032 79.8845736 -82.08560047 89.02158852 -79.1875 97.0625 C-66.21826169 124.5587343 -26.4287138 140.89616891 0.25292969 150.82202148 C79.39678848 178.9572982 169.52331319 189.23938314 253 193 C254.84223145 193.08459473 254.84223145 193.08459473 256.72167969 193.17089844 C352.28556235 197.35382933 448.111006 188.31149717 577.4375 159.75 C578.21708069 159.55343811 578.99666138 159.35687622 579.79986572 159.15435791 C594.18136586 155.50235901 608.3055549 151.00664497 621.8125 144.8125 C623.04226563 144.25284546 623.04226563 144.25284546 624.296875 143.68188477 C660.90161612 126.80710461 660.90161612 126.80710461 685.4375 96.625 C689.21284233 86.23011125 688.25823608 78.25086606 684 68 C667.55976119 40.0297707 632.49905079 26.51194308 605 12 C605.83784428 7.60843128 607.16601372 4.06666523 609 0 C613.29579723 0.67147305 617.08947442 2.15351842 621.0625 3.8515625 C621.75345261 4.14207489 622.44440521 4.43258728 623.15629578 4.73190308 C625.43922187 5.69230745 627.71954805 6.65873736 630 7.625 C633.27603861 9.00571903 636.55373042 10.38247425 639.83203125 11.7578125 C641.09416191 12.28770782 641.09416191 12.28770782 642.38179016 12.82830811 C648.05190387 15.20240251 653.74120021 17.5233391 659.44921875 19.8046875 C660.21471039 20.11069885 660.98020203 20.41671021 661.76889038 20.73199463 C662.91341171 21.18950104 662.91341171 21.18950104 664.08105469 21.65625 C766.84397254 62.74616638 766.84397254 62.74616638 780.875 95.3125 C785.25744608 106.18154673 785.38703709 117.21790108 781.26171875 128.21875 C779.30163034 132.53944024 776.89956415 136.25590261 774 140 C773.51015625 140.66515625 773.0203125 141.3303125 772.515625 142.015625 C739.20784159 183.89768929 651.63849181 198.2344138 602.64299011 213.38983154 C595.02131187 215.74786745 587.40771049 218.12925654 579.8046875 220.546875 C562.59517938 225.99597031 545.35192817 230.66120151 527.61506081 234.07035351 C524.3252913 234.71365556 521.06779199 235.44916638 517.80592918 236.22097492 C499.35813634 240.39804671 481.41830567 240.82475517 462.61278915 240.90282714 C458.06867945 240.92688076 453.52485789 240.97876466 448.98094177 241.02604675 C438.03696524 241.1334308 427.0929371 241.19376733 416.14857966 241.24635026 C411.98881627 241.26690949 407.82907009 241.29022044 403.66932119 241.31349986 C385.19819735 241.41637373 366.72705834 241.50380983 348.25570107 241.55052471 C343.75314929 241.56210618 339.25059782 241.57379144 334.74804688 241.58569336 C333.62951456 241.58863668 332.51098224 241.59158 331.358555 241.59461252 C313.41534183 241.64435245 295.47415172 241.78609647 277.53184111 241.96803906 C258.92602617 242.15509295 240.32121932 242.25356248 221.71446645 242.27329856 C211.34274278 242.28633899 200.97406772 242.33275897 190.60329056 242.47888756 C134.83255993 243.23572255 84.78237138 236.39530372 30.99565665 221.53837369 C19.42855874 218.34526664 7.80829793 215.42048507 -3.85653687 212.60673523 C-5.09355527 212.30828758 -5.09355527 212.30828758 -6.35556395 212.00381068 C-9.4905973 211.24841761 -12.62599029 210.49455252 -15.7620293 209.743345 C-21.07535688 208.470455 -26.38437941 207.18083553 -31.69050026 205.878232 C-32.36536567 205.71262882 -33.04023109 205.54702564 -33.73554697 205.37640418 C-45.961194 202.36976863 -58.13796871 199.21526327 -70.25390625 195.79296875 C-71.36048584 195.48299957 -72.46706543 195.1730304 -73.60717773 194.85366821 C-104.02482841 186.10336525 -135.56286404 170.70544252 -158 148 C-158.83144531 147.17886719 -159.66289062 146.35773438 -160.51953125 145.51171875 C-170.8247885 134.79630201 -175.42915995 122.8982353 -175.36352539 108.25195312 C-175.0707195 94.68658155 -168.7558062 83.78044172 -159.5625 74 C-129.55830311 45.6031708 -84.52068892 31.97694018 -46.71574402 17.37210083 C-40.17192801 14.84399586 -33.63610375 12.29632325 -27.10546875 9.734375 C-24.61052521 8.75720475 -22.11545493 7.78035895 -19.62033081 6.8036499 C-18.04862931 6.18788756 -16.47727486 5.5712386 -14.90628052 4.95367432 C-12.75645739 4.10916192 -10.60503034 3.26887712 -8.453125 2.4296875 C-7.24817383 1.95772949 -6.04322266 1.48577148 -4.80175781 0.99951172 C-2 0 -2 0 0 0 Z " fill="#2698CE" transform="translate(175,712)"/>
</svg>
