<?xml version="1.0" encoding="UTF-8"?>
<svg version="1.1" xmlns="http://www.w3.org/2000/svg" width="910" height="705">
<path d="M0 0 C2.8876553 0.05646514 5.7752575 0.09892449 8.66319275 0.13839722 C12.83521723 0.19672373 17.00710038 0.26055033 21.17897034 0.32904053 C32.26392566 0.50942793 43.34935885 0.65009165 54.43504333 0.77706909 C55.56330599 0.79014036 56.69156864 0.80321163 57.85402107 0.816679 C74.19713495 0.99859459 90.52984269 0.98921378 106.87254333 0.77706909 C108.36941586 0.75778697 108.36941586 0.75778697 109.89652824 0.73811531 C119.41409335 0.61210925 128.93100704 0.46051336 138.44762611 0.27650261 C141.9233972 0.21099043 145.39927968 0.15374643 148.87521362 0.09762573 C151.19944352 0.05644182 153.52309647 0.00231921 155.84703064 -0.05276489 C181.7153425 -0.54714139 205.62455097 3.70725879 224.96238708 22.23800659 C233.84113151 31.49618454 239.10092954 42.51350417 244.0532074 54.16305542 C252.86729459 74.69349011 266.66623164 90.48508069 287.62254333 98.99581909 C298.19931905 102.54822487 308.41181119 104.14969939 319.53611755 104.09347534 C320.6267601 104.09201508 321.71740265 104.09055481 322.84109497 104.08905029 C325.20965401 104.08524805 327.57821021 104.07913543 329.94675827 104.07098389 C333.72818823 104.05814609 337.50958274 104.05168294 341.29103088 104.04684448 C350.03499348 104.03446077 358.77892401 104.01307987 367.5228653 103.99061584 C426.35169983 103.83962478 426.35169983 103.83962478 444.68504333 104.41769409 C446.4888295 104.47340576 446.4888295 104.47340576 448.32905579 104.53024292 C472.17988764 105.42626285 495.50675745 109.99718901 512.62254333 127.99581909 C526.00595039 143.45472778 530.80411741 163.16798573 530.7539711 183.22134304 C530.75705005 184.39127612 530.75705005 184.39127612 530.7601912 185.5848442 C530.76582093 188.18404587 530.76440897 190.78319387 530.76298523 193.38240051 C530.76557118 195.27062352 530.76858498 197.15884599 530.77198863 199.0470677 C530.78003491 204.22530763 530.78184688 209.40353368 530.7825861 214.58177912 C530.7844408 220.17097825 530.79199026 225.76017025 530.79872131 231.34936523 C530.81228854 243.56659241 530.81832691 255.7838163 530.82273197 268.00104976 C530.82549725 275.63415455 530.82973514 283.26725808 530.83423615 290.90036201 C530.84642696 312.04720328 530.85676183 333.19404347 530.86011124 354.34088802 C530.86033287 355.70734192 530.86055465 357.07379582 530.86077659 358.44024972 C530.86099723 359.80991634 530.86121771 361.17958296 530.86143804 362.54924959 C530.86188058 365.29682028 530.86232769 368.04439098 530.86277771 370.79196167 C530.8628871 371.47319483 530.86299649 372.15442798 530.8631092 372.85630457 C530.86673778 394.93268677 530.88265155 417.0090361 530.90596807 439.08540573 C530.9306009 462.45098423 530.94427898 485.81653872 530.94547915 509.18213278 C530.94639456 521.90905245 530.95211309 534.63592906 530.97029877 547.36283684 C530.9857328 558.20202279 530.99080076 569.04115238 530.98256066 579.88034724 C530.9786658 585.40558423 530.97952672 590.93070782 530.99361801 596.45593071 C531.00642684 601.52488783 531.00509861 606.59364716 530.9930273 611.66260428 C530.99108232 613.48566017 530.99409249 615.30873041 531.00287166 617.13176619 C531.11519006 642.0551977 527.11521377 666.09180807 509.73582458 685.05441284 C488.02240691 706.27152382 455.43735895 705.30639029 427.28274253 705.2527542 C423.42091735 705.2476362 419.55910794 705.25421813 415.69728506 705.25924087 C408.94262018 705.2664347 402.18798732 705.26626337 395.433321 705.26114655 C385.38851321 705.25355817 375.34373227 705.25746121 365.29892464 705.26356316 C347.35472271 705.27407854 329.41053505 705.27318822 311.46633177 705.26740533 C295.76156864 705.26236917 280.05681074 705.26106317 264.35204697 705.26345062 C263.30928109 705.26360339 262.26651522 705.26375616 261.19215038 705.26391356 C256.95893107 705.26453627 252.72571177 705.26517307 248.49249247 705.26583309 C208.80001003 705.27194791 169.10753666 705.26640936 129.41505562 705.2556393 C94.17431749 705.24614984 58.93359383 705.24699654 23.69285583 705.25656128 C-15.92519497 705.2672782 -55.54323776 705.27151281 -95.16128981 705.26533675 C-99.38730279 705.26469535 -103.61331578 705.26406966 -107.83932877 705.26345062 C-108.87983584 705.26329247 -109.9203429 705.26313431 -110.99238049 705.26297137 C-126.68334696 705.26069944 -142.37430762 705.26335136 -158.06527328 705.26840973 C-175.9138041 705.27413504 -193.76231845 705.27268415 -211.61084722 705.26184824 C-221.591653 705.25598821 -231.5724231 705.25557415 -241.55322794 705.26314059 C-248.22980405 705.26764249 -254.90635169 705.26480341 -261.5829236 705.25613105 C-265.38041427 705.2513982 -269.17783433 705.24969479 -272.97532265 705.25694302 C-335.40292741 705.36700225 -335.40292741 705.36700225 -358.37745667 684.99581909 C-378.80172214 664.02140505 -379.53829662 633.3684124 -379.51116943 605.85626221 C-379.51304078 604.04367101 -379.51534277 602.23108022 -379.51803476 600.41849005 C-379.52411911 595.46784615 -379.52402315 590.51721921 -379.52284038 585.56657243 C-379.52263552 580.2153283 -379.52816326 574.86408951 -379.53289795 569.5128479 C-379.54118659 559.03997609 -379.54395198 548.56710992 -379.54451033 538.09423511 C-379.54498634 529.57687721 -379.54704532 521.05952116 -379.55021095 512.54216385 C-379.55901265 488.36670394 -379.56363109 464.19124846 -379.56288048 440.01578693 C-379.56282054 438.06288283 -379.56282054 438.06288283 -379.5627594 436.07052612 C-379.56271852 434.76699104 -379.56267764 433.46345596 -379.56263552 432.12041982 C-379.56222919 411.0014659 -379.57179676 389.88252983 -379.58589777 368.76358108 C-379.60027939 347.05214825 -379.60716697 325.34072412 -379.60630399 303.62928641 C-379.60597264 291.45069921 -379.60869261 279.27213072 -379.61948204 267.09354782 C-379.62861057 256.72367877 -379.63074301 246.3538369 -379.62397262 235.98396556 C-379.62071927 230.69960704 -379.62060764 225.4153006 -379.62932587 220.13094711 C-379.63724451 215.28109822 -379.63570529 210.43134225 -379.62704173 205.58149548 C-379.62551847 203.83929602 -379.62727789 202.09708943 -379.63290181 200.35489838 C-379.71158425 174.22215467 -378.11662035 144.83903582 -358.70948792 125.10128784 C-337.76644396 106.19291147 -310.08150008 104.96303677 -283.31495667 104.43331909 C-282.28374695 104.41114319 -281.25253723 104.38896729 -280.19007874 104.36611938 C-263.86241989 104.02658155 -247.54209022 103.97612464 -231.21154976 104.02843666 C-227.95251815 104.03881003 -224.69348551 104.04753252 -221.43444824 104.05592346 C-211.5620497 104.08281939 -201.6899697 104.11750887 -191.81777477 104.18785191 C-187.6306011 104.21473991 -183.44344151 104.22918221 -179.25620079 104.24094582 C-177.29546704 104.24926992 -175.33474721 104.26297365 -173.37409401 104.2825985 C-149.39620313 104.51798352 -128.10112226 100.34764586 -110.06495667 83.18331909 C-101.20949609 73.90279641 -95.70328013 62.50195448 -90.54151917 50.87863159 C-80.92094695 29.40586143 -66.69198486 13.64708825 -44.37745667 4.99581909 C-30.04174083 -0.02929526 -15.00469695 -0.29401802 0 0 Z M-93.37745667 212.99581909 C-94.27464417 213.85175659 -95.17183167 214.70769409 -96.09620667 215.58956909 C-102.01599015 221.36318508 -107.26886015 227.50035273 -112.37745667 233.99581909 C-113.16894104 234.97035034 -113.96042542 235.94488159 -114.77589417 236.94894409 C-121.82628646 245.80085618 -127.73692526 255.19383804 -133.37745667 264.99581909 C-133.80558655 265.7354187 -134.23371643 266.47501831 -134.67481995 267.23703003 C-166.80033342 323.42886699 -173.13180523 391.99692062 -156.62745667 454.05831909 C-147.72739457 486.09116377 -132.82578437 516.50650211 -111.37745667 541.99581909 C-110.41254317 543.16503237 -109.44770087 544.33430441 -108.48292542 545.50363159 C-98.48357078 557.50219843 -87.7218298 568.3965583 -75.37745667 577.99581909 C-74.38358948 578.79503784 -73.38972229 579.59425659 -72.36573792 580.41769409 C-43.60774354 603.35871016 -9.20683295 618.3452052 26.62254333 625.99581909 C27.37229431 626.16162476 28.12204529 626.32743042 28.89451599 626.4982605 C87.8486449 639.31317855 152.52066793 626.25374018 203.62254333 594.99581909 C209.4651719 591.23459048 215.08944446 587.19638786 220.62254333 582.99581909 C221.58547302 582.26492065 222.54840271 581.53402222 223.54051208 580.78097534 C225.94481552 578.89853622 228.29472294 576.97180723 230.62254333 574.99581909 C231.3457074 574.3835144 232.06887146 573.77120972 232.81394958 573.14035034 C246.31904631 561.32624711 259.12527164 548.57608937 269.62254333 533.99581909 C270.78463318 532.39867065 270.78463318 532.39867065 271.97019958 530.76925659 C309.81768639 477.40624775 324.85025716 411.17535983 314.40818787 346.59786987 C306.90124832 304.32194719 289.34347645 262.3338622 260.62254333 229.99581909 C259.87488708 229.15148315 259.12723083 228.30714722 258.35691833 227.43722534 C256.8494233 225.75283038 255.33402124 224.07547197 253.81004333 222.40597534 C251.68987717 220.07000655 249.62557024 217.69255034 247.56004333 215.30831909 C243.85819797 211.14918695 239.88327792 207.56816969 235.62254333 203.99581909 C234.23809021 202.77958862 234.23809021 202.77958862 232.82566833 201.53878784 C218.95193402 189.40810709 203.9888716 179.44045311 187.62254333 170.99581909 C186.8292865 170.5809021 186.03602966 170.16598511 185.21873474 169.73849487 C159.55229964 156.44265785 131.35858255 148.13996588 102.62254333 144.99581909 C101.69184021 144.88495972 100.76113708 144.77410034 99.80223083 144.65988159 C28.22081427 137.59718182 -41.88310789 163.53414198 -93.37745667 212.99581909 Z M389.62254333 166.99581909 C388.21985876 168.66037826 386.85118972 170.35364237 385.49754333 172.05831909 C382.27355016 176.04750052 378.98340987 179.75707442 375.30613708 183.32394409 C364.91767808 193.40388417 364.91767808 193.40388417 358.62254333 205.99581909 C358.62254333 216.62165835 365.38280863 222.99200696 372.49754333 230.12081909 C377.37516661 234.93109845 382.33829375 239.63056944 387.62254333 243.99581909 C391.85341467 242.26786422 394.97974733 239.28291217 398.37254333 236.30831909 C399.62766629 235.21316915 400.88287409 234.11811644 402.13816833 233.02316284 C402.73951599 232.49706421 403.34086365 231.97096558 403.96043396 231.42892456 C405.31881608 230.25769908 406.70872093 229.1231198 408.10691833 227.99972534 C414.17697127 223.09427559 418.89607469 217.20933723 420.24754333 209.37081909 C418.54758173 200.19102645 412.55421581 193.91760382 406.62254333 186.99581909 C404.7034445 184.74788403 402.78745454 182.49732186 400.87254333 180.24581909 C400.16883606 179.42138306 400.16883606 179.42138306 399.45091248 178.58029175 C396.28489546 174.84845023 393.4198341 171.00526919 390.62254333 166.99581909 C390.29254333 166.99581909 389.96254333 166.99581909 389.62254333 166.99581909 Z " fill="#2C97C2" transform="translate(379.37745666503906,0.004180908203125)"/>
<path d="M0 0 C0.97453125 0.85335937 1.9490625 1.70671875 2.953125 2.5859375 C19.61347653 17.38234357 32.76399885 34.20808119 43 54 C43.31420898 54.60247559 43.62841797 55.20495117 43.95214844 55.82568359 C52.70341782 72.84722944 57.96779333 91.15385419 61 110 C61.1750708 111.07596436 61.3501416 112.15192871 61.53051758 113.26049805 C62.02959559 117.23573359 62.19611832 121.15258067 62.23828125 125.15234375 C62.2480751 125.92108322 62.25786896 126.68982269 62.26795959 127.4818573 C62.59086949 159.44029157 58.12869078 188.06813321 44 217 C43.44570313 218.13824219 42.89140625 219.27648437 42.3203125 220.44921875 C34.59206694 235.48047149 24.39682553 248.5992499 13 261 C12.23042969 261.84175781 11.46085937 262.68351562 10.66796875 263.55078125 C4.39029337 270.10798206 -2.71837181 275.61372258 -10 281 C-10.56928223 281.4242627 -11.13856445 281.84852539 -11.72509766 282.28564453 C-48.3469741 309.19215668 -95.39901934 318.46365956 -139.87109375 312.03515625 C-168.73601198 307.41768641 -195.83878919 295.80846247 -219 278 C-219.9075 277.31679688 -220.815 276.63359375 -221.75 275.9296875 C-254.42502924 250.35369735 -275.95289749 214.22350272 -285 174 C-285.2477417 172.96576904 -285.2477417 172.96576904 -285.50048828 171.91064453 C-290.72020096 149.45022626 -290.58727455 121.36415826 -285 99 C-284.70198486 97.77434326 -284.70198486 97.77434326 -284.39794922 96.52392578 C-276.80314378 66.07074711 -263.3390584 39.06793634 -241.8828125 16.03515625 C-240.31538562 14.34090437 -238.86510793 12.62300939 -237.4375 10.8125 C-234.24897694 7.13343493 -230.74961588 4.0959586 -227 1 C-226.01128906 0.17371094 -225.02257812 -0.65257812 -224.00390625 -1.50390625 C-160.32736765 -53.72810146 -62.57211942 -55.35225948 0 0 Z " fill="#2C97C2" transform="translate(568,251)"/>
<path d="M0 0 C1.19238281 0.02964844 2.38476562 0.05929688 3.61328125 0.08984375 C15.63071805 0.59312762 27.8114316 2.63858258 37 11 C43.51544305 18.37035208 48 27.07488125 48 37 C13.35 37 -21.3 37 -57 37 C-55.79789597 26.18106375 -52.73785298 17.06115349 -44.75 9.375 C-32.51835762 -0.22971247 -14.95027285 -0.59955816 0 0 Z " fill="#2C97C2" transform="translate(164,34)"/>
</svg>
