<?xml version="1.0" encoding="UTF-8"?>
<svg version="1.1" xmlns="http://www.w3.org/2000/svg" width="177" height="106">
<path d="M0 0 C1.31162109 0.00572021 2.62324219 0.01144043 3.97460938 0.01733398 C27.37337495 0.4446233 47.21173461 8.64861595 63.64453125 25.5078125 C66.32335029 28.59178024 69.375 32.26475264 69.375 36.5 C69.91125 36.5825 70.4475 36.665 71 36.75 C77.71349474 38.87005097 81.02286863 43.31229281 84.5625 49 C85.40927202 50.32348282 86.25690474 51.64641542 87.10546875 52.96875 C87.49524902 53.58492187 87.8850293 54.20109375 88.28662109 54.8359375 C89.1880691 56.21419448 90.17239964 57.53783033 91.17578125 58.84375 C92.375 60.5 92.375 60.5 92.375 62.5 C93.035 62.83 93.695 63.16 94.375 63.5 C95.62022754 65.40091317 96.79854153 67.34607275 97.9375 69.3125 C98.55753906 70.37082031 99.17757812 71.42914063 99.81640625 72.51953125 C101.08336431 74.94231069 101.90432356 76.83713193 102.375 79.5 C101.385 79.5 100.395 79.5 99.375 79.5 C97.89208984 77.68676758 97.89208984 77.68676758 96.3359375 75.14453125 C95.759646 74.21753418 95.18335449 73.29053711 94.58959961 72.33544922 C93.98253174 71.33787598 93.37546387 70.34030273 92.75 69.3125 C91.49000486 67.28929015 90.22828946 65.2671506 88.96484375 63.24609375 C88.35108887 62.2597998 87.73733398 61.27350586 87.10498047 60.25732422 C84.9050412 56.75095757 82.64818097 53.29220505 80.3125 49.875 C79.66152344 48.91335937 79.01054687 47.95171875 78.33984375 46.9609375 C75.36276654 43.23219268 73.03613675 40.82514094 68.26171875 39.890625 C67.20597656 39.84421875 66.15023437 39.7978125 65.0625 39.75 C63.99386719 39.69328125 62.92523438 39.6365625 61.82421875 39.578125 C61.01597656 39.55234375 60.20773438 39.5265625 59.375 39.5 C59.375 41.15 59.375 42.8 59.375 44.5 C63.995 47.14 68.615 49.78 73.375 52.5 C72.715 53.49 72.055 54.48 71.375 55.5 C69.12326981 54.31568836 66.87327838 53.1283392 64.625 51.9375 C63.94920898 51.57978516 63.27341797 51.22207031 62.57714844 50.85351562 C57.19812778 47.98571618 51.96562031 44.93251079 46.765625 41.75 C44.38153105 40.2683212 44.38153105 40.2683212 41.375 40.5 C40.88 41.49 40.88 41.49 40.375 42.5 C39.715 42.5 39.055 42.5 38.375 42.5 C43.66880024 49.13080099 49.77486096 54.21444909 56.375 59.5 C63.60334359 65.30552308 68.7388452 70.85304651 72.375 79.5 C72.375 80.16 72.375 80.82 72.375 81.5 C75.60015763 83.23662334 78.88829166 84.3905928 82.375 85.5 C82.375 86.49 82.375 87.48 82.375 88.5 C75.08595798 87.65243697 71.35237284 84.76179414 66.375 79.5 C62.39425731 81.83674766 58.63302643 84.15443185 55.25 87.3125 C46.38418217 95.11038977 35.70704261 99.64814449 24.375 102.5 C23.06668213 102.87294189 23.06668213 102.87294189 21.73193359 103.25341797 C14.48225815 105.23854656 7.75748055 106.04560757 0.25 106 C-0.83240967 105.99572998 -1.91481934 105.99145996 -3.0300293 105.98706055 C-12.82457232 105.78211743 -21.47996744 103.90933231 -30.625 100.5 C-31.76453125 100.08105469 -32.9040625 99.66210938 -34.078125 99.23046875 C-49.52403388 93.11808018 -62.75763759 84.14306153 -69.81640625 68.48828125 C-70.08324219 67.83214844 -70.35007812 67.17601563 -70.625 66.5 C-70.92277344 65.79230469 -71.22054687 65.08460937 -71.52734375 64.35546875 C-74.96353676 55.31368899 -74.23315799 47.48085552 -70.9609375 38.46484375 C-67.84027423 31.53916123 -63.26219932 25.57347939 -57.625 20.5 C-57.12613281 20.03207031 -56.62726562 19.56414063 -56.11328125 19.08203125 C-40.71091213 5.11578046 -20.3692411 -0.10395155 0 0 Z M-58.44921875 26.32421875 C-66.49597859 35.34388658 -69.24125783 44.57532785 -68.93359375 56.51953125 C-68.04415196 67.99220449 -61.41834459 76.17194654 -53.1875 83.75 C-41.48680289 93.65058986 -27.75466374 98.64784352 -12.625 100.5 C-11.60277344 100.6753125 -10.58054688 100.850625 -9.52734375 101.03125 C10.4201126 104.25291186 32.55009209 97.96794032 49.375 87.5 C51.91769784 85.61386733 54.10537226 83.71427097 56.375 81.5 C54.26096915 79.22937428 52.51558068 77.5736375 49.75 76.125 C46.6533026 74.00620704 46.24706363 72.06753304 45.375 68.5 C46.035 68.5 46.695 68.5 47.375 68.5 C46.22326645 66.03199953 45.32716435 64.45216435 43.375 62.5 C43.25 59.375 43.25 59.375 43.375 56.5 C42.31539063 56.32984375 41.25578125 56.1596875 40.1640625 55.984375 C38.77587944 55.740505 37.38786696 55.49566258 36 55.25 C35.30132812 55.14042969 34.60265625 55.03085937 33.8828125 54.91796875 C28.71848271 53.97448542 28.71848271 53.97448542 27.11523438 51.75976562 C26.18804728 48.92927627 26.47869012 47.2107441 27.0546875 44.296875 C27.24160156 43.3171875 27.42851563 42.3375 27.62109375 41.328125 C27.82863281 40.31234375 28.03617187 39.2965625 28.25 38.25 C28.44980469 37.21875 28.64960937 36.1875 28.85546875 35.125 C29.35018081 32.58076653 29.85706567 30.03958988 30.375 27.5 C36.70675143 27.30074908 42.53567311 27.99664881 48.75 29.1875 C50.10158203 29.41083008 50.10158203 29.41083008 51.48046875 29.63867188 C53.89864065 30.10091613 56.09831791 30.56175569 58.375 31.5 C59.9765625 34.14453125 59.9765625 34.14453125 60.375 36.5 C62.025 36.5 63.675 36.5 65.375 36.5 C61.98964848 26.50430418 52.54611426 18.8101125 43.4765625 13.9453125 C11.06034283 -1.83110434 -32.01081557 -0.11418443 -58.44921875 26.32421875 Z M33.375 29.5 C32.70095716 32.06076097 32.035586 34.62326583 31.375 37.1875 C31.18421875 37.90873047 30.9934375 38.62996094 30.796875 39.37304688 C29.82634572 43.16850961 29.12544761 46.54615439 29.375 50.5 C34.04709049 51.93023178 38.50603697 52.90380045 43.375 53.5 C42.59125 52.736875 41.8075 51.97375 41 51.1875 C38.375 48.5 38.375 48.5 36.375 45.5 C36.5625 42.4375 36.5625 42.4375 37.375 39.5 C40.67110521 37.30259653 41.55865239 37.09412551 45.375 37.5 C48.05078125 38.59375 48.05078125 38.59375 50.6875 40 C51.57050781 40.4640625 52.45351562 40.928125 53.36328125 41.40625 C54.35908203 41.94765625 54.35908203 41.94765625 55.375 42.5 C56.8533226 39.54335481 56.43532783 36.75770263 56.375 33.5 C48.71958305 31.5921453 41.2572202 30.01599184 33.375 29.5 Z M46.375 57.5 C46.045 58.49 45.715 59.48 45.375 60.5 C51.48919629 67.11555312 51.48919629 67.11555312 59.75 69.75 C61.049375 69.62625 61.049375 69.62625 62.375 69.5 C59.56695732 66.53595495 57.19184226 64.05500981 53.375 62.5 C53.375 61.84 53.375 61.18 53.375 60.5 C50.8135343 58.20351351 49.89532428 57.5 46.375 57.5 Z M49.375 69.5 C49.375 70.82 49.375 72.14 49.375 73.5 C54.11079098 76.19242939 57.76302625 78.16809211 63.375 77.5 C64.035 77.17 64.695 76.84 65.375 76.5 C65.045 75.18 64.715 73.86 64.375 72.5 C62.7971875 72.5928125 62.7971875 72.5928125 61.1875 72.6875 C57.15055894 72.48896191 55.65243786 71.68495857 52.375 69.5 C51.385 69.5 50.395 69.5 49.375 69.5 Z " fill="#303030" transform="translate(74.625,-0.5)"/>
<path d="M0 0 C2.76223278 2.76223278 2.57856291 5.20706617 3 9 C2.34 9 1.68 9 1 9 C1 10.65 1 12.3 1 14 C5.62 16.64 10.24 19.28 15 22 C14.34 22.99 13.68 23.98 13 25 C10.74826981 23.81568836 8.49827838 22.6283392 6.25 21.4375 C5.57420898 21.07978516 4.89841797 20.72207031 4.20214844 20.35351562 C-1.17687222 17.48571618 -6.40937969 14.43251079 -11.609375 11.25 C-13.99346895 9.7683212 -13.99346895 9.7683212 -17 10 C-17.33 10.66 -17.66 11.32 -18 12 C-18.66 12 -19.32 12 -20 12 C-14.70619976 18.63080099 -8.60013904 23.71444909 -2 29 C5.22834359 34.80552308 10.3638452 40.35304651 14 49 C14 49.66 14 50.32 14 51 C17.22515763 52.73662334 20.51329166 53.8905928 24 55 C24 55.99 24 56.98 24 58 C16.71095798 57.15243697 12.97737284 54.26179414 8 49 C3.98262043 51.35825398 0.18910587 53.71611757 -3.25 56.875 C-7.94706392 61.07936491 -13.51396181 63.95520376 -19 67 C-19.33 65.68 -19.66 64.36 -20 63 C-16.01999677 59.90653777 -11.75732484 57.34495995 -7.4609375 54.71875 C-4.78484477 53.07218053 -4.78484477 53.07218053 -3 50 C-3.55429688 49.66226563 -4.10859375 49.32453125 -4.6796875 48.9765625 C-5.76636719 48.30753906 -5.76636719 48.30753906 -6.875 47.625 C-7.59429687 47.18414062 -8.31359375 46.74328125 -9.0546875 46.2890625 C-11 45 -11 45 -13 43 C-13.125 40.375 -13.125 40.375 -13 38 C-12.34 38 -11.68 38 -11 38 C-11.825 37.113125 -12.65 36.22625 -13.5 35.3125 C-15.51691157 33.14432007 -15.98166406 32.31767015 -16.15625 29.29296875 C-16.1046875 28.53628906 -16.053125 27.77960937 -16 27 C-16.97582031 26.81824219 -17.95164062 26.63648437 -18.95703125 26.44921875 C-20.22933594 26.19785156 -21.50164062 25.94648437 -22.8125 25.6875 C-24.07707031 25.44386719 -25.34164062 25.20023438 -26.64453125 24.94921875 C-30 24 -30 24 -32.0234375 22.91015625 C-33.71526367 19.60094427 -32.54721689 16.23023789 -31.8125 12.75 C-31.67263672 12.01136719 -31.53277344 11.27273437 -31.38867188 10.51171875 C-30.49635308 5.93303316 -29.48441025 1.42457417 -28 -3 C-20.77993048 -6.61003476 -7.32316019 -2.3154924 0 0 Z M-25 -1 C-25.67404284 1.56076097 -26.339414 4.12326583 -27 6.6875 C-27.19078125 7.40873047 -27.3815625 8.12996094 -27.578125 8.87304688 C-28.54865428 12.66850961 -29.24955239 16.04615439 -29 20 C-24.32790951 21.43023178 -19.86896303 22.40380045 -15 23 C-15.78375 22.236875 -16.5675 21.47375 -17.375 20.6875 C-20 18 -20 18 -22 15 C-21.8125 11.9375 -21.8125 11.9375 -21 9 C-17.70389479 6.80259653 -16.81634761 6.59412551 -13 7 C-10.32421875 8.09375 -10.32421875 8.09375 -7.6875 9.5 C-6.80449219 9.9640625 -5.92148438 10.428125 -5.01171875 10.90625 C-4.01591797 11.44765625 -4.01591797 11.44765625 -3 12 C-1.5216774 9.04335481 -1.93967217 6.25770263 -2 3 C-9.65541695 1.0921453 -17.1177798 -0.48400816 -25 -1 Z M-12 27 C-12.33 27.99 -12.66 28.98 -13 30 C-6.88580371 36.61555312 -6.88580371 36.61555312 1.375 39.25 C2.674375 39.12625 2.674375 39.12625 4 39 C1.19195732 36.03595495 -1.18315774 33.55500981 -5 32 C-5 31.34 -5 30.68 -5 30 C-7.5614657 27.70351351 -8.47967572 27 -12 27 Z M-9 39 C-9 40.32 -9 41.64 -9 43 C-4.26420902 45.69242939 -0.61197375 47.66809211 5 47 C5.66 46.67 6.32 46.34 7 46 C6.67 44.68 6.34 43.36 6 42 C4.4221875 42.0928125 4.4221875 42.0928125 2.8125 42.1875 C-1.22444106 41.98896191 -2.72256214 41.18495857 -6 39 C-6.99 39 -7.98 39 -9 39 Z " fill="#303030" transform="translate(133,30)"/>
<path d="M0 0 C9.18783702 12.25044936 10.50991799 30.04076316 8.65625 44.72265625 C8.20359856 46.86143431 7.65329795 48.91431588 7 51 C6.67322266 52.11761719 6.67322266 52.11761719 6.33984375 53.2578125 C2.56188575 65.43811425 2.56188575 65.43811425 -1 69 C-3.5 69.125 -3.5 69.125 -6 69 C-6.33 68.67 -6.66 68.34 -7 68 C-6.75648093 63.45431061 -6.19066046 60.143094 -4.0625 56.125 C1.78615715 43.67785786 1.3157209 26.22410831 -3.25390625 13.51171875 C-4.11439561 11.50391023 -5.01634214 9.51285002 -5.9765625 7.55078125 C-7.06775633 4.8311264 -7.19861906 2.90088358 -7 0 C-4.23669693 -1.38165153 -2.89853603 -0.96320582 0 0 Z " fill="#1B1B1B" transform="translate(87,18)"/>
<path d="M0 0 C1.2065625 0.0309375 1.2065625 0.0309375 2.4375 0.0625 C3.23173861 1.62369422 4.02277123 3.18651964 4.8125 4.75 C5.25335938 5.62011719 5.69421875 6.49023438 6.1484375 7.38671875 C11.77111285 19.05802969 11.90347303 31.870974 8.4375 44.28515625 C6.91807201 48.50513008 4.8476305 52.29012183 2.4375 56.0625 C0.0625 56.1875 0.0625 56.1875 -2.5625 56.0625 C-3.2225 55.4025 -3.8825 54.7425 -4.5625 54.0625 C-4.1889869 50.56081468 -3.03780387 47.73006419 -1.5625 44.5625 C2.53353434 34.47190446 2.08831407 23.50008038 -0.5625 13.0625 C-1.5736829 10.63689585 -1.5736829 10.63689585 -2.75 8.5 C-4.5625 5.0625 -4.5625 5.0625 -4.23828125 2.91015625 C-3.21370885 0.1088687 -3.09606431 0.07551376 0 0 Z " fill="#1A1A1A" transform="translate(70.5625,23.9375)"/>
<path d="M0 0 C15.30703125 2.18203125 15.30703125 2.18203125 18.64453125 5.51953125 C19.04500569 7.84228302 19.38424165 10.17692482 19.64453125 12.51953125 C18.98453125 12.51953125 18.32453125 12.51953125 17.64453125 12.51953125 C17.64453125 14.16953125 17.64453125 15.81953125 17.64453125 17.51953125 C22.26453125 20.15953125 26.88453125 22.79953125 31.64453125 25.51953125 C30.98453125 26.50953125 30.32453125 27.49953125 29.64453125 28.51953125 C27.39280106 27.33521961 25.14280963 26.14787045 22.89453125 24.95703125 C22.21874023 24.59931641 21.54294922 24.24160156 20.84667969 23.87304688 C15.46765903 21.00524743 10.23515156 17.95204204 5.03515625 14.76953125 C2.6510623 13.28785245 2.6510623 13.28785245 -0.35546875 13.51953125 C-0.68546875 14.17953125 -1.01546875 14.83953125 -1.35546875 15.51953125 C-2.01546875 15.51953125 -2.67546875 15.51953125 -3.35546875 15.51953125 C-1.70546875 17.82953125 -0.05546875 20.13953125 1.64453125 22.51953125 C0.98453125 23.50953125 0.32453125 24.49953125 -0.35546875 25.51953125 C-6.31063557 19.6851939 -6.31063557 19.6851939 -6.48046875 15.26953125 C-5.19244439 12.12102726 -4.38669246 11.03514311 -1.35546875 9.51953125 C2.698512 9.12699221 4.99059334 9.95001608 8.45703125 12.01953125 C9.24722656 12.48359375 10.03742188 12.94765625 10.8515625 13.42578125 C11.44324219 13.78671875 12.03492188 14.14765625 12.64453125 14.51953125 C14.61276011 12.55130239 14.30701506 9.17144416 14.64453125 6.51953125 C13.75930786 6.39106812 13.75930786 6.39106812 12.85620117 6.26000977 C10.18105732 5.87017526 7.50654696 5.47615111 4.83203125 5.08203125 C3.90326172 4.94732422 2.97449219 4.81261719 2.01757812 4.67382812 C1.12490234 4.54169922 0.23222656 4.40957031 -0.6875 4.2734375 C-1.50968018 4.15299072 -2.33186035 4.03254395 -3.17895508 3.90844727 C-5.35546875 3.51953125 -5.35546875 3.51953125 -8.35546875 2.51953125 C-8.86114604 5.08102753 -9.36017007 7.6435259 -9.85546875 10.20703125 C-9.99855469 10.92826172 -10.14164062 11.64949219 -10.2890625 12.39257812 C-10.42441406 13.09833984 -10.55976562 13.80410156 -10.69921875 14.53125 C-10.82490234 15.17537842 -10.95058594 15.81950684 -11.08007812 16.4831543 C-11.46714846 19.00286161 -11.46714846 19.00286161 -11.35546875 23.51953125 C-7.06546875 24.50953125 -2.77546875 25.49953125 1.64453125 26.51953125 C1.64453125 27.50953125 1.64453125 28.49953125 1.64453125 29.51953125 C-3.87653112 29.04379345 -9.16470358 28.53227693 -14.35546875 26.51953125 C-15.88773399 24.29352507 -16.37484506 22.98911277 -16.26293945 20.27709961 C-16.10398193 19.47925049 -15.94502441 18.68140137 -15.78125 17.859375 C-15.52118164 16.54549805 -15.52118164 16.54549805 -15.25585938 15.20507812 C-15.06185547 14.29822266 -14.86785156 13.39136719 -14.66796875 12.45703125 C-14.49330078 11.54630859 -14.31863281 10.63558594 -14.13867188 9.69726562 C-12.15581805 0.05306263 -9.73161974 -0.99391403 0 0 Z " fill="#3D3D3D" transform="translate(116.35546875,26.48046875)"/>
<path d="M0 0 C2.375 0.125 2.375 0.125 5 1 C6.6875 3.3125 6.6875 3.3125 8 6 C8.556875 6.9590625 8.556875 6.9590625 9.125 7.9375 C12.53966736 15.98635878 11.92387136 26.03326359 8.8515625 34.05859375 C6.09503004 40.34298198 6.09503004 40.34298198 2.8125 42.3125 C1.9153125 42.6528125 1.9153125 42.6528125 1 43 C-0.5625 41.875 -0.5625 41.875 -2 40 C-1.80098777 36.9484791 -1.24162795 34.54366288 0 31.75 C2.72135516 24.26627332 2.36611193 16.54111698 0 9 C-0.66 8.01 -1.32 7.02 -2 6 C-1.45945946 1.45945946 -1.45945946 1.45945946 0 0 Z " fill="#1A1A1A" transform="translate(55,31)"/>
<path d="M0 0 C3.38194482 0.91403914 4.74706102 1.62962506 6.75 4.5625 C9.26922512 11.49036909 9.62901868 17.09780834 6.953125 24.04296875 C5.67424732 26.66886103 4.44085236 28.3727651 2 30 C-0.25 29.75 -0.25 29.75 -2 29 C-2.6875 27.4375 -2.6875 27.4375 -3 25 C-2.00522247 22.66443537 -1.00484883 20.33124929 0 18 C0.70739772 12.57661748 -1.12801287 8.01425125 -3 3 C-2.01 2.01 -1.02 1.02 0 0 Z " fill="#1E1E1E" transform="translate(43,37)"/>
<path d="M0 0 C0.66 0.33 1.32 0.66 2 1 C0.46661807 5.14200118 -2.20087377 6.82722877 -5.75 9.3125 C-12.91136891 14.49032811 -17.56507322 19.78279583 -21.82421875 27.49609375 C-22.40623047 28.24052734 -22.40623047 28.24052734 -23 29 C-23.99 29 -24.98 29 -26 29 C-24.85252856 21.24090743 -19.70311304 15.14671176 -14 10 C-13.46503906 9.50757813 -12.93007813 9.01515625 -12.37890625 8.5078125 C-8.50973539 5.04365507 -4.67215223 2.2902707 0 0 Z " fill="#292929" transform="translate(31,10)"/>
<path d="M0 0 C4.20935016 2.64308033 7.55529835 5.36909826 11 9 C11.598125 9.598125 12.19625 10.19625 12.8125 10.8125 C13.204375 11.204375 13.59625 11.59625 14 12 C13.67 12.66 13.34 13.32 13 14 C10.03 13.505 10.03 13.505 7 13 C7 13.66 7 14.32 7 15 C7.53109375 15.26554687 8.0621875 15.53109375 8.609375 15.8046875 C13.8046875 18.40234375 13.8046875 18.40234375 19 21 C18.01 21.33 17.02 21.66 16 22 C15.34 22.66 14.68 23.32 14 24 C13.1646875 23.3503125 13.1646875 23.3503125 12.3125 22.6875 C9.99871116 20.94391934 9.99871116 20.94391934 7.375 19.4375 C5 18 5 18 3 16 C2.875 13.375 2.875 13.375 3 11 C3.66 11 4.32 11 5 11 C4.175 10.113125 3.35 9.22625 2.5 8.3125 C0.53900524 5.98692593 0.02740522 5.25212806 -0.3125 2.125 C-0.209375 1.42375 -0.10625 0.7225 0 0 Z " fill="#373737" transform="translate(117,57)"/>
<path d="M0 0 C2.13911742 2.05129442 3.95737463 4.15695031 5.6875 6.5625 C6.12449219 7.16191406 6.56148437 7.76132812 7.01171875 8.37890625 C8 10 8 10 8 12 C8.66 12.33 9.32 12.66 10 13 C11.24522754 14.90091317 12.42354153 16.84607275 13.5625 18.8125 C14.49255859 20.39998047 14.49255859 20.39998047 15.44140625 22.01953125 C16.70836431 24.44231069 17.52932356 26.33713193 18 29 C17.01 29 16.02 29 15 29 C13.39013672 26.99633789 13.39013672 26.99633789 11.6796875 24.22265625 C11.06222656 23.23458984 10.44476563 22.24652344 9.80859375 21.22851562 C9.17050781 20.18373047 8.53242188 19.13894531 7.875 18.0625 C6.60233085 16.01124184 5.32893282 13.96043566 4.0546875 11.91015625 C3.49249512 10.99371338 2.93030273 10.07727051 2.35107422 9.13305664 C1.17144507 7.09844734 1.17144507 7.09844734 0 6 C-0.04080783 4.00041636 -0.04254356 1.99954746 0 0 Z " fill="#3C3C3C" transform="translate(159,50)"/>
<path d="M0 0 C1.32 0 2.64 0 4 0 C4 2.31 4 4.62 4 7 C8.29 7.99 12.58 8.98 17 10 C17 10.99 17 11.98 17 13 C2.50052466 11.7506121 2.50052466 11.7506121 -0.5 8.25 C-1.15993478 5.2802935 -0.66843378 2.94110865 0 0 Z " fill="#414141" transform="translate(101,43)"/>
<path d="M0 0 C-0.99 0.495 -0.99 0.495 -2 1 C-1.01 1.66 -0.02 2.32 1 3 C0.3709375 3.17015625 -0.258125 3.3403125 -0.90625 3.515625 C-6.67364095 5.14856099 -11.68462901 7.24739717 -17 10 C-17.66 10 -18.32 10 -19 10 C-18.8671875 7.671875 -18.8671875 7.671875 -18 5 C-15.3828125 3.453125 -15.3828125 3.453125 -12.125 2.25 C-11.05507813 1.84265625 -9.98515625 1.4353125 -8.8828125 1.015625 C-3.08300395 -1.02766798 -3.08300395 -1.02766798 0 0 Z " fill="#333333" transform="translate(50,4)"/>
<path d="M0 0 C2.0625 0.4375 2.0625 0.4375 4 1 C3.01269344 3.56912029 2.46442081 4.75972051 -0.0234375 6.046875 C-0.79945312 6.27890625 -1.57546875 6.5109375 -2.375 6.75 C-3.14585938 6.99234375 -3.91671875 7.2346875 -4.7109375 7.484375 C-7 8 -7 8 -11 8 C-11 6.68 -11 5.36 -11 4 C-10.28972656 3.79503906 -9.57945313 3.59007813 -8.84765625 3.37890625 C-7.92855469 3.10949219 -7.00945312 2.84007813 -6.0625 2.5625 C-4.68771484 2.16224609 -4.68771484 2.16224609 -3.28515625 1.75390625 C-1.0597507 1.20973949 -1.0597507 1.20973949 0 0 Z " fill="#3B3B3B" transform="translate(110,93)"/>
<path d="M0 0 C0.66 0.33 1.32 0.66 2 1 C0.4523397 5.64298089 -3.17903837 8.08400297 -7 11 C-10 12.4375 -10 12.4375 -12 13 C-10.4722133 9.56247993 -8.49818944 6.81046312 -6 4 C-5.34 4 -4.68 4 -4 4 C-3.67 3.01 -3.34 2.02 -3 1 C-2.01 0.67 -1.02 0.34 0 0 Z " fill="#1F1F1F" transform="translate(136,77)"/>
<path d="M0 0 C3.95781314 1.51021817 6.07545056 5.1999352 8.078125 8.79296875 C8.453125 12.29296875 8.453125 12.29296875 8.078125 14.79296875 C7.541875 14.11234375 7.005625 13.43171875 6.453125 12.73046875 C3.1377404 8.62986149 -0.19080481 4.52403894 -3.921875 0.79296875 C-1.921875 -0.20703125 -1.921875 -0.20703125 0 0 Z " fill="#373737" transform="translate(150.921875,39.20703125)"/>
<path d="M0 0 C0.33 1.32 0.66 2.64 1 4 C2.07314453 4.18369141 2.07314453 4.18369141 3.16796875 4.37109375 C6.05112713 5.01135375 8.58592473 5.93551556 11.3125 7.0625 C12.19550781 7.42472656 13.07851562 7.78695312 13.98828125 8.16015625 C14.65214844 8.43730469 15.31601563 8.71445313 16 9 C14.35 10.32 12.7 11.64 11 13 C10.1646875 12.3503125 10.1646875 12.3503125 9.3125 11.6875 C6.99871116 9.94391934 6.99871116 9.94391934 4.375 8.4375 C2 7 2 7 0 5 C-0.125 2.375 -0.125 2.375 0 0 Z " fill="#404040" transform="translate(120,68)"/>
<path d="M0 0 C8 9.71428571 8 9.71428571 8 14 C7.01 14 6.02 14 5 14 C3.359375 12.20703125 3.359375 12.20703125 1.75 9.8125 C1.20859375 9.03519531 0.6671875 8.25789063 0.109375 7.45703125 C-1.22776987 4.49553786 -0.93345229 3.05542813 0 0 Z " fill="#484848" transform="translate(169,65)"/>
<path d="M0 0 C0.33 0 0.66 0 1 0 C1.20666253 5.06323209 0.80886571 9.23982707 -1 14 C-1.99 14.33 -2.98 14.66 -4 15 C-4.34650743 9.34037856 -3.48055609 5.96111218 -1 1 C-0.67 0.67 -0.34 0.34 0 0 Z " fill="#313131" transform="translate(106,29)"/>
<path d="M0 0 C0.33 0.66 0.66 1.32 1 2 C4.14183638 3.86182897 7.53249941 4.89670436 11 6 C11 6.99 11 7.98 11 9 C6.63890395 8.49289581 3.54924701 7.63658349 0 5 C-0.33 4.01 -0.66 3.02 -1 2 C-0.67 1.34 -0.34 0.68 0 0 Z " fill="#3B3B3B" transform="translate(146,79)"/>
<path d="M0 0 C5.29441695 -0.50423019 7.81413519 0.81076967 12 4 C11.01 5.485 11.01 5.485 10 7 C6.7 5.35 3.4 3.7 0 2 C0 1.34 0 0.68 0 0 Z " fill="#4B4B4B" transform="translate(136,48)"/>
<path d="M0 0 C1.9375 0.5625 1.9375 0.5625 4 2 C4.75 5.625 4.75 5.625 5 9 C4.34 9 3.68 9 3 9 C2.67 9.99 2.34 10.98 2 12 C1.87882813 11.36191406 1.75765625 10.72382812 1.6328125 10.06640625 C1.46523437 9.24011719 1.29765625 8.41382813 1.125 7.5625 C0.96257812 6.73878906 0.80015625 5.91507813 0.6328125 5.06640625 C0.42398438 4.38449219 0.21515625 3.70257813 0 3 C-0.66 2.67 -1.32 2.34 -2 2 C-1.34 2 -0.68 2 0 2 C0 1.34 0 0.68 0 0 Z " fill="#4C4C4C" transform="translate(131,30)"/>
<path d="M0 0 C2 4 2 4 2.3125 6 C3.34254683 8.99649988 5.48777563 10.19635174 8 12 C6.3125 12.6875 6.3125 12.6875 4 13 C1.25 11.5625 1.25 11.5625 -1 10 C-0.67 6.7 -0.34 3.4 0 0 Z " fill="#1D1D1D" transform="translate(131,36)"/>
<path d="M0 0 C5.625 -0.25 5.625 -0.25 9 2 C9.66 1.67 10.32 1.34 11 1 C10.67 2.65 10.34 4.3 10 6 C6.51329166 4.8905928 3.22515763 3.73662334 0 2 C0 1.34 0 0.68 0 0 Z " fill="#4A4A4A" transform="translate(120,39)"/>
<path d="M0 0 C-0.99 0.66 -1.98 1.32 -3 2 C-2.34 2.66 -1.68 3.32 -1 4 C-5.455 5.485 -5.455 5.485 -10 7 C-9.875 4.6875 -9.875 4.6875 -9 2 C-3.92647059 -1.30882353 -3.92647059 -1.30882353 0 0 Z " fill="#404040" transform="translate(41,7)"/>
<path d="M0 0 C10.55808656 0.96355353 10.55808656 0.96355353 15 2 C14.67 2.66 14.34 3.32 14 4 C9.71 3.67 5.42 3.34 1 3 C0.67 2.01 0.34 1.02 0 0 Z " fill="#1A1A1A" transform="translate(135,36)"/>
<path d="M0 0 C1.32 0.33 2.64 0.66 4 1 C3.8125 3.375 3.8125 3.375 3 6 C0.4375 7.3125 0.4375 7.3125 -2 8 C-1.34 5.36 -0.68 2.72 0 0 Z " fill="#494949" transform="translate(4,38)"/>
<path d="M0 0 C2.64 0 5.28 0 8 0 C8.33 0.99 8.66 1.98 9 3 C6.03 3 3.06 3 0 3 C0 2.01 0 1.02 0 0 Z " fill="#2C2C2C" transform="translate(122,29)"/>
<path d="M0 0 C2.97 0.33 5.94 0.66 9 1 C8.01 1.495 8.01 1.495 7 2 C7 2.66 7 3.32 7 4 C4.69 3.67 2.38 3.34 0 3 C0 2.01 0 1.02 0 0 Z " fill="#4D4D4D" transform="translate(115,27)"/>
<path d="M0 0 C2.97 0.33 5.94 0.66 9 1 C6 3 6 3 3.375 2.75 C2.59125 2.5025 1.8075 2.255 1 2 C0.67 1.34 0.34 0.68 0 0 Z " fill="#202020" transform="translate(109,27)"/>
<path d="M0 0 C1.65 0.33 3.3 0.66 5 1 C5 1.99 5 2.98 5 4 C2.03 3.505 2.03 3.505 -1 3 C-0.67 2.01 -0.34 1.02 0 0 Z " fill="#4C4C4C" transform="translate(152,84)"/>
</svg>
