<?xml version="1.0" encoding="UTF-8"?>
<svg version="1.1" xmlns="http://www.w3.org/2000/svg" width="875" height="812">
<path d="M0 0 C5.606154 3.22509335 10.89310508 6.98538972 16.18359375 10.69921875 C21.83573527 14.66007558 27.55993533 18.51365004 33.27874756 22.37713623 C42.30300468 28.47654239 51.30003843 34.60737094 60.17446899 40.92379761 C74.61609918 51.19294614 89.37082481 60.97003746 104.1875 70.6875 C116.94760898 79.05617107 129.66485035 87.466467 142.1875 96.1875 C143.15751953 96.86232422 144.12753906 97.53714844 145.12695312 98.23242188 C146.86805231 99.44622401 148.6084046 100.66109843 150.34790039 101.87719727 C159.93147735 108.57675635 169.56932006 115.19198712 179.25 121.75 C179.84228394 122.15125092 180.43456787 122.55250183 181.0447998 122.96591187 C183.98147237 124.95504946 186.91863835 126.9434573 189.85595703 128.93164062 C201.52451566 136.83108263 213.17417726 144.75058443 224.6875 152.875 C233.17308452 158.85718117 241.79096031 164.6295486 250.4375 170.375 C300.1257655 203.40569369 300.1257655 203.40569369 304.1875 219.1875 C304.7336348 224.25535825 304.72515026 229.29857284 304.68870544 234.38920593 C304.69260455 235.90680502 304.69824987 237.42440044 304.70547634 238.94198734 C304.720161 243.08619889 304.71009175 247.23002776 304.69573963 251.37422669 C304.68459401 255.85345602 304.69658415 260.33263324 304.70558167 264.81185913 C304.71949072 273.57553086 304.7119757 282.33905816 304.69690608 291.10272297 C304.68002074 301.31190709 304.68325933 311.52105549 304.68700016 321.73024926 C304.69287424 339.94592774 304.67872373 358.16153702 304.65405273 376.37719727 C304.63012271 394.04779655 304.62305318 411.71830343 304.63354492 429.38891602 C304.64495558 448.64164881 304.64688317 467.8943389 304.63244683 487.14707118 C304.63092101 489.20005055 304.62940065 491.25302992 304.62788582 493.30600929 C304.627128 494.3160672 304.62637019 495.32612511 304.62558941 496.36679083 C304.62084857 503.48152492 304.62269653 510.59623993 304.62695122 517.71097374 C304.63187898 526.38016745 304.62588825 535.04927382 304.60605692 543.71844753 C304.59618961 548.1407139 304.59107384 552.56284732 304.59894943 556.98512077 C304.60601349 561.03454376 304.59918476 565.08369863 304.5813458 569.1330863 C304.5773061 570.59654589 304.57829318 572.06002997 304.58486467 573.52348038 C304.62172389 582.50145666 304.33110006 589.3094999 299.375 597 C293.72390174 602.65109826 287.51312968 603.31076744 279.89558411 603.32794189 C279.15939352 603.33091302 278.42320294 603.33388414 277.66470355 603.3369453 C275.19678629 603.34561974 272.72891762 603.34713949 270.26098633 603.34863281 C268.49176937 603.35326193 266.72255342 603.35828672 264.95333862 603.36367798 C260.14527367 603.37679628 255.33722267 603.38324601 250.52914262 603.38768864 C247.52392467 603.39062071 244.51871052 603.39472581 241.51349449 603.39919281 C232.10713971 603.4128672 222.70079363 603.42253374 213.2944296 603.4263947 C202.44341755 603.43087329 191.59253161 603.44841223 180.7415579 603.4773953 C172.34989598 603.49902977 163.9582695 603.50909995 155.56658 603.51043582 C150.55676118 603.51148272 145.54706091 603.51736596 140.5372715 603.53525543 C135.82177042 603.55176627 131.10647661 603.55387699 126.39095688 603.54511642 C124.66445421 603.54434762 122.93794026 603.54866802 121.21146584 603.55857468 C102.0957539 603.6617899 102.0957539 603.6617899 94.84765625 598.53125 C87.30532706 589.82714394 87.89236937 579.10475518 87.94699097 568.09590149 C87.94442769 566.18295163 87.94442769 566.18295163 87.94181263 564.23135632 C87.93737489 560.72167481 87.94529307 557.21211711 87.95536876 553.70245135 C87.96405296 549.9064268 87.9610796 546.11040853 87.95956421 542.31437683 C87.95851849 535.747479 87.96476229 529.18062109 87.97603989 522.61373329 C87.99233446 513.11926916 87.99750693 503.62482423 88.00001587 494.13034763 C88.00438678 478.72401315 88.01767944 463.31769991 88.03662109 447.91137695 C88.05499556 432.95076603 88.06912144 417.99016093 88.07763672 403.02954102 C88.07817271 402.09706305 88.07870871 401.16458508 88.07926095 400.20385021 C88.0834201 392.9106254 88.08733384 385.61740046 88.09117007 378.32417548 C88.11001747 342.61193081 88.1502588 306.89973937 88.1875 271.1875 C22.1875 271.1875 -43.8125 271.1875 -111.8125 271.1875 C-111.76609375 293.978125 -111.7196875 316.76875 -111.671875 340.25 C-111.65144479 354.66015746 -111.63199985 369.07030604 -111.6171875 383.48046875 C-111.60935599 391.04866571 -111.60127405 398.61686235 -111.59277344 406.18505859 C-111.59171844 407.13361099 -111.59066345 408.08216339 -111.58957648 409.05945981 C-111.57217842 424.37386909 -111.5406427 439.6882183 -111.50388882 455.00259197 C-111.46648498 470.71883932 -111.44426532 486.43505522 -111.43614602 502.15134525 C-111.4306571 511.84944516 -111.4133197 521.54737535 -111.38083413 531.24542302 C-111.35969314 537.89540514 -111.35329902 544.54529951 -111.35849449 551.1953128 C-111.36105692 555.03227517 -111.35712415 558.86894094 -111.3356781 562.7058506 C-111.31258576 566.8677336 -111.32055133 571.02898545 -111.33148193 575.19091797 C-111.31983057 576.40104585 -111.3081792 577.61117373 -111.29617476 578.85797215 C-111.34895611 586.28167512 -112.04482592 591.93097376 -117.1536386 597.70265007 C-122.70094024 602.82953307 -129.16821013 603.43681439 -136.42721558 603.44819641 C-137.16188588 603.45202196 -137.89655619 603.45584751 -138.65348923 603.45978898 C-141.09833139 603.47005098 -143.5429357 603.46613987 -145.98779297 603.4621582 C-147.74760148 603.46650846 -149.5074081 603.47169266 -151.26721191 603.47764587 C-156.03586607 603.4910137 -160.80444086 603.49161698 -165.5731101 603.48908257 C-169.55908599 603.48801131 -173.54504592 603.49290024 -177.53101838 603.497688 C-186.93752053 603.50877563 -196.34398275 603.50922484 -205.75048828 603.50317383 C-215.4429312 603.49713458 -225.13522894 603.50944553 -234.82764709 603.5307439 C-243.15992877 603.54837782 -251.49216432 603.55435841 -259.82446396 603.55110615 C-264.79622288 603.54929593 -269.76787824 603.55190338 -274.73962021 603.56582069 C-279.41659809 603.57842346 -284.09335017 603.57643178 -288.77032471 603.56340981 C-290.48231204 603.56104977 -292.19431538 603.5637581 -293.90628433 603.57203293 C-313.60850762 603.66036327 -313.60850762 603.66036327 -320.6875 597.8125 C-325.51047707 591.8547048 -326.93442472 587.6023744 -326.94672108 580.01007748 C-326.95117892 578.73397419 -326.95563676 577.4578709 -326.96022969 576.14309782 C-326.9601404 574.72397418 -326.95995055 573.30485054 -326.95967102 571.88572693 C-326.96297051 570.38043643 -326.96669626 568.87514681 -326.9708125 567.36985832 C-326.98083103 563.22715512 -326.98454906 559.0844664 -326.98720181 554.94175279 C-326.99110532 550.47598872 -327.00068366 546.01023612 -327.00941467 541.54447937 C-327.02917823 530.75623546 -327.03924537 519.96799061 -327.04814246 509.17973313 C-327.05252573 504.09905489 -327.05789246 499.01837769 -327.06313133 493.93770027 C-327.08014386 477.04763092 -327.0946378 460.15756222 -327.10188007 443.26748562 C-327.10378996 438.88429704 -327.1057103 434.50110848 -327.10766602 430.11791992 C-327.10839163 428.48379354 -327.10839163 428.48379354 -327.1091319 426.81665451 C-327.11743134 409.17069033 -327.14276673 391.52479396 -327.17524669 373.87885939 C-327.20832299 355.76118946 -327.22632937 337.64355398 -327.22952431 319.52585369 C-327.23168893 309.35385214 -327.24043048 299.18194946 -327.26598549 289.00997734 C-327.28770029 280.34655823 -327.29573907 271.68326201 -327.28601871 263.01981878 C-327.28147622 258.60122574 -327.28335721 254.18288621 -327.30278015 249.764328 C-327.32042844 245.71442539 -327.31940078 241.66496091 -327.30388286 237.61505354 C-327.3015093 236.15468562 -327.30581728 234.69428722 -327.31771151 233.23396581 C-327.41253408 220.8168548 -325.41852135 210.51705303 -316.8125 201.1875 C-311.46329268 195.96955231 -305.66101011 192.03757417 -299.25 188.25 C-288.46760566 181.73032319 -278.1780628 174.60321607 -267.88647461 167.34228516 C-256.84517233 159.60258745 -245.67819709 152.04418756 -234.50320435 144.49945068 C-230.8031592 142.00120261 -227.10474195 139.50054665 -223.40625 137 C-222.67128799 136.5031369 -221.93632599 136.0062738 -221.17909241 135.49435425 C-205.11388521 124.63147142 -189.08947436 113.70867984 -173.09082031 102.74804688 C-169.1658119 100.05959277 -165.23904779 97.37370505 -161.3125 94.6875 C-159.72915869 93.60417833 -158.14582534 92.52084501 -156.5625 91.4375 C-147.0625 84.9375 -147.0625 84.9375 -144.68676758 83.31201172 C-143.10585968 82.23032934 -141.52496771 81.14862366 -139.9440918 80.06689453 C-135.9487807 77.33310899 -131.95318033 74.59974798 -127.95703125 71.8671875 C-120.56994303 66.81537233 -113.18526652 61.76019965 -105.8125 56.6875 C-100.17075605 52.80651935 -94.52544269 48.93080705 -88.875 45.0625 C-88.09656738 44.52955322 -87.31813477 43.99660645 -86.51611328 43.44750977 C-81.89902727 40.28959281 -77.27477188 37.14250652 -72.64453125 34.00390625 C-58.55952661 24.45430689 -58.55952661 24.45430689 -44.625 14.6875 C-14.46413671 -6.76627412 -14.46413671 -6.76627412 0 0 Z M-11.8125 29.1875 C-18.40225689 33.5044891 -24.8957881 37.93029766 -31.3125 42.5 C-39.0292097 47.98602113 -46.84751992 53.31762123 -54.6875 58.625 C-55.29356079 59.03529449 -55.89962158 59.44558899 -56.52404785 59.86831665 C-58.93668866 61.50140172 -61.3494482 63.13431106 -63.76245117 64.76686096 C-75.13532433 72.46368301 -86.45004347 80.24590496 -97.76342773 88.02978516 C-105.29562761 93.21080188 -112.8427209 98.37003009 -120.38916016 103.53027344 C-124.36412332 106.24859401 -128.33827548 108.96809969 -132.3125 111.6875 C-133.89582934 112.77083917 -135.47916268 113.8541725 -137.0625 114.9375 C-137.84625 115.47375 -138.63 116.01 -139.4375 116.5625 C-141.8125 118.1875 -144.1875 119.8125 -146.5625 121.4375 C-147.30252762 121.94384979 -148.04255524 122.45019958 -148.80500793 122.97189331 C-150.38461132 124.05264574 -151.96426524 125.1333243 -153.54399109 126.21389771 C-157.42626495 128.86964072 -161.30775026 131.52651401 -165.18676758 134.18701172 C-177.60260713 142.69892536 -190.07352447 151.12730328 -202.55932617 159.53613281 C-216.47460004 168.90956976 -230.34964198 178.33408033 -244.07739258 187.98071289 C-254.53386993 195.31912367 -265.13184338 202.40361784 -275.85693359 209.34033203 C-280.75381741 212.51108165 -285.6337409 215.70265549 -290.44921875 218.99609375 C-291.24416748 219.53935303 -292.03911621 220.0826123 -292.8581543 220.64233398 C-295.0535617 222.21470272 -295.0535617 222.21470272 -296.8125 225.1875 C-297.11185606 227.88643924 -297.11185606 227.88643924 -297.05859566 230.99148846 C-297.0645688 232.81878067 -297.0645688 232.81878067 -297.07066262 234.68298787 C-297.06495618 236.04188912 -297.05906498 237.4007896 -297.05300903 238.75968933 C-297.0538807 240.1977098 -297.05563097 241.63572995 -297.05818737 243.07374841 C-297.0626725 247.03475846 -297.05464127 250.99566095 -297.04463124 254.95665729 C-297.03601578 259.22453812 -297.03891555 263.4924126 -297.04043579 267.76029968 C-297.04148585 275.15783825 -297.03519663 282.55534161 -297.02396011 289.95287132 C-297.00772445 300.64852863 -297.00249909 311.34416886 -296.99998413 322.03983716 C-296.99560399 339.39172076 -296.98228623 356.74358558 -296.96337891 374.09545898 C-296.94502837 390.95385648 -296.93089075 407.81224885 -296.92236328 424.6706543 C-296.92182729 425.71994136 -296.92129129 426.76922842 -296.92073905 427.85031205 C-296.91658035 436.05610028 -296.91266645 444.26188862 -296.90882993 452.467677 C-296.88995346 492.70763523 -296.84971901 532.94754648 -296.8125 573.1875 C-245.6625 573.1875 -194.5125 573.1875 -141.8125 573.1875 C-141.76351562 550.76941406 -141.71453125 528.35132813 -141.6640625 505.25390625 C-141.62868924 491.0761681 -141.59283009 476.8984337 -141.5546875 462.72070312 C-141.53467964 455.27417032 -141.51479522 447.8276372 -141.49511719 440.38110352 C-141.49264575 439.44780954 -141.49017431 438.51451556 -141.48762798 437.55293995 C-141.4479152 422.48816568 -141.41517011 407.42338392 -141.38500018 392.35858787 C-141.3538796 376.89656223 -141.31526757 361.43456837 -141.26970994 345.97257847 C-141.24183727 336.43271137 -141.21979892 326.8928675 -141.20523749 317.35297065 C-141.19469052 310.80996664 -141.17686288 304.26700763 -141.15333296 297.72403754 C-141.13997443 293.94983826 -141.12980402 290.175702 -141.12828636 286.40147781 C-141.12655533 282.30574222 -141.10948178 278.21021131 -141.0909729 274.11451721 C-141.09290763 272.92675692 -141.09484237 271.73899662 -141.09683573 270.51524359 C-140.97855158 253.01162999 -140.97855158 253.01162999 -134.76730484 246.7563507 C-128.84663184 242.00464772 -120.52643702 241.74844772 -113.24253845 241.8132782 C-112.33379567 241.80930379 -111.42505289 241.80532939 -110.48877245 241.80123454 C-107.47273852 241.79168346 -104.45718216 241.80338587 -101.44116211 241.81518555 C-99.26712368 241.81275523 -97.09308637 241.80903358 -94.91905212 241.80412292 C-89.03487005 241.7947438 -83.15085518 241.8041141 -77.2666862 241.81745505 C-71.09963005 241.8287996 -64.93258178 241.82465976 -58.76551819 241.82270813 C-48.41160359 241.82182617 -38.05775459 241.8328856 -27.70385742 241.85131836 C-15.74320886 241.87249001 -3.78265632 241.87599405 8.17800719 241.8697564 C19.69821249 241.86405668 31.21838408 241.86971523 42.73858452 241.88092995 C47.63509178 241.88556729 52.53157837 241.88645353 57.42808723 241.8843441 C63.19587942 241.88245688 68.96357423 241.89059857 74.73134422 241.9064045 C76.84485598 241.91063736 78.95837763 241.91150463 81.07189178 241.90871429 C83.96287448 241.90547726 86.85356901 241.91461258 89.74452209 241.92680359 C90.57527585 241.92302427 91.4060296 241.91924494 92.26195771 241.91535109 C98.88359182 241.96454267 106.09678439 242.26202164 111.5625 246.375 C117.94850836 253.21715182 117.62195801 260.12272602 117.58622742 269.06382751 C117.59287424 270.36429459 117.59952107 271.66476166 117.60636932 273.00463682 C117.62436394 276.60317769 117.62384137 280.20151186 117.62023985 283.80008709 C117.61961534 287.68483306 117.63624227 291.56951007 117.65075684 295.45422363 C117.6735374 302.18106028 117.68542701 308.90784516 117.68988609 315.63471794 C117.69634894 325.3605912 117.7192887 335.08637091 117.74622939 344.81220645 C117.78949397 360.59232044 117.81946261 376.37243048 117.84106445 392.15258789 C117.86207512 407.48008159 117.88938515 422.80754288 117.92504883 438.13500977 C117.92726234 439.08968224 117.92947585 440.04435472 117.93175644 441.02795666 C117.9491171 448.4943004 117.96684271 455.96064326 117.98468363 463.42698586 C118.07201487 500.0138038 118.1275181 536.60060726 118.1875 573.1875 C169.6675 573.1875 221.1475 573.1875 274.1875 573.1875 C274.4788059 511.35358364 274.4788059 511.35358364 274.67578125 449.51953125 C274.69536018 441.18570765 274.71556505 432.85188592 274.73681641 424.51806641 C274.73945389 423.47354809 274.74209138 422.42902977 274.74480879 421.35285938 C274.78831013 404.48660366 274.86715236 387.62068863 274.95902796 370.75463498 C275.05252129 353.44734767 275.10808306 336.14023879 275.12838495 318.83270931 C275.14211106 308.1515609 275.18547154 297.47137501 275.26666467 286.79052287 C275.31949783 279.46765946 275.33550739 272.14529409 275.32251377 264.82225388 C275.31610377 260.59589641 275.32597137 256.37122133 275.37955475 252.14516258 C275.42827973 248.27399954 275.43064961 244.40564677 275.39648895 240.53435338 C275.39226866 239.13577868 275.40491661 237.73702755 275.43633182 236.33879936 C275.66656237 228.36953105 275.66656237 228.36953105 271.98814082 221.61257172 C269.47430698 219.57470458 266.96057992 217.84896713 264.1875 216.1875 C263.18009766 215.46594727 262.17269531 214.74439453 261.13476562 214.00097656 C260.29623047 213.44893555 259.45769531 212.89689453 258.59375 212.328125 C257.6354126 211.69358398 256.6770752 211.05904297 255.68969727 210.40527344 C254.69897217 209.7559082 253.70824707 209.10654297 252.6875 208.4375 C251.63941162 207.74430664 250.59132324 207.05111328 249.51147461 206.33691406 C246.4060445 204.28319719 243.29704115 202.23498496 240.1875 200.1875 C229.77315271 193.31147391 219.46857615 186.31873556 209.29296875 179.09375 C197.50163239 170.72836784 185.49235688 162.67384397 173.52767944 154.55969238 C157.10013287 143.41888782 157.10013287 143.41888782 151.1875 139.375 C150.53697159 138.9300972 149.88644318 138.4851944 149.21620178 138.02680969 C145.36652779 135.38784629 141.52997747 132.73250656 137.71801758 130.03930664 C125.27007724 121.2450164 112.6235598 112.7883733 99.875 104.4375 C96.10746765 101.96446303 92.34087694 99.48999314 88.57421875 97.015625 C87.67457397 96.4248819 86.7749292 95.83413879 85.84802246 95.22549438 C64.07337581 80.92157259 64.07337581 80.92157259 54.8125 74.3125 C54.10158203 73.80895996 53.39066406 73.30541992 52.65820312 72.78662109 C49.26113167 70.3797375 45.87202478 67.96226554 42.4921875 65.53125 C32.51564478 58.38583563 22.33453808 51.55608068 12.125 44.75 C11.39845215 44.26533264 10.6719043 43.78066528 9.92333984 43.28131104 C7.81326588 41.87469436 5.70186332 40.47009959 3.58984375 39.06640625 C2.96323349 38.64906723 2.33662323 38.23172821 1.69102478 37.80174255 C-2.76067384 34.84934847 -7.27067507 31.99908376 -11.8125 29.1875 Z " fill="#000000" transform="translate(448.8125,208.8125)"/>
<path d="M0 0 C3.05961757 1.74945314 5.94450764 3.70189527 8.8359375 5.71484375 C9.65709045 6.27434723 10.47824341 6.83385071 11.32427979 7.41030884 C13.09212683 8.61606472 14.85710817 9.82603118 16.6194458 11.03982544 C21.37379747 14.31401697 26.14913264 17.55739045 30.921875 20.8046875 C31.90938751 21.47776443 32.89690002 22.15084137 33.91433716 22.84431458 C45.63833487 30.82199515 57.4969456 38.59471963 69.36590576 46.35446167 C79.77690102 53.16172398 90.07932339 60.07429896 100.19799805 67.31030273 C104.14106704 70.12096049 108.15488316 72.81994331 112.1875 75.5 C112.98929688 76.03334961 113.79109375 76.56669922 114.6171875 77.11621094 C115.64199219 77.79345215 115.64199219 77.79345215 116.6875 78.484375 C123.35898209 82.89901979 130.02651451 87.31953133 136.6875 91.75 C137.34227325 92.18539093 137.99704651 92.62078186 138.67166138 93.06936646 C146.72628764 98.42951772 154.71738477 103.86180058 162.625 109.4375 C174.43963537 117.74758393 186.52909102 125.63406829 198.60275269 133.56030273 C212.86284377 142.92437015 227.0563251 152.38000142 241.1875 161.9375 C242.078927 162.54040863 242.970354 163.14331726 243.88879395 163.76449585 C245.21662903 164.66260483 245.21662903 164.66260483 246.57128906 165.57885742 C248.33264491 166.7700748 250.09403773 167.96123752 251.85546875 169.15234375 C252.71189972 169.73151047 253.56833069 170.31067719 254.45071411 170.90739441 C262.94097719 176.64431456 271.46748522 182.32619515 280 188 C306.47057333 205.61065112 306.47057333 205.61065112 318.00390625 213.8515625 C326.49891456 219.92133325 335.12063373 225.7467285 343.875 231.4375 C375.27441622 251.85752822 375.27441622 251.85752822 386 261 C386.73992188 261.59554688 387.47984375 262.19109375 388.2421875 262.8046875 C407.031237 278.47306442 420.47218002 304.90919026 423.24163818 329.11169434 C423.61539097 334.05307223 423.62248807 338.9850354 423.5625 343.9375 C423.55890472 344.67913391 423.55530945 345.42076782 423.55160522 346.18487549 C423.47325933 357.484636 422.44987355 367.53115149 418 378 C417.40638672 379.58941406 417.40638672 379.58941406 416.80078125 381.2109375 C412.24726702 392.98048591 406.24509735 403.45736741 398 413 C397.43539062 413.69738281 396.87078125 414.39476562 396.2890625 415.11328125 C390.00082372 422.71526005 381.81002123 430.98353925 371.62890625 432.30859375 C362.99015346 432.74250371 357.88278445 429.63343313 351.37890625 424.2578125 C346.4321287 420.26897089 341.29478828 416.78298639 335.9375 413.375 C333.92342091 412.07716165 331.91047115 410.77756964 329.8984375 409.4765625 C328.8062793 408.77047852 327.71412109 408.06439453 326.58886719 407.33691406 C320.42757688 403.33613761 314.31851471 399.25594295 308.20681763 395.17999268 C306.80444461 394.24478461 305.40168907 393.31014983 303.99850464 392.37615967 C291.22451279 383.8732613 278.56555101 375.20993297 265.99267578 366.41235352 C252.66205116 357.08753956 239.19381629 347.9710128 225.71437073 338.86352539 C208.34719804 327.12756617 191.03929751 315.3044623 173.74804688 303.45703125 C163.00981735 296.10055649 152.25513101 288.76870094 141.48999023 281.45166016 C126.27020599 271.10653577 111.05909886 260.74927576 95.90332031 250.31054688 C92.60353044 248.03844939 89.30163099 245.76942087 86 243.5 C84.66665718 242.58334714 83.33332383 241.66668049 82 240.75 C81.34 240.29625 80.68 239.8425 80 239.375 C74 235.25 74 235.25 72.00219727 233.87646484 C70.66159664 232.95483256 69.32093859 232.03328379 67.98022461 231.11181641 C64.75761748 228.89678638 61.53583688 226.68058233 58.31640625 224.4609375 C48.04538271 217.38324401 37.73087474 210.37010548 27.4140625 203.359375 C-1.02578694 184.03298985 -1.02578694 184.03298985 -14 175 C-19.85779001 178.1168521 -25.3180976 181.49073392 -30.67578125 185.3984375 C-37.28570455 190.13839908 -43.99289348 194.70135722 -50.79296875 199.1640625 C-51.72223175 199.77401062 -52.65149475 200.38395874 -53.60891724 201.01239014 C-56.46704838 202.88540432 -59.32694374 204.75569194 -62.1875 206.625 C-78.86868025 217.51928441 -78.86868025 217.51928441 -95.17333984 228.96386719 C-97.88776392 230.9191528 -100.64273775 232.78693024 -103.4375 234.625 C-110.47512743 239.26964568 -117.37457124 244.11034049 -124.29101562 248.93286133 C-131.88570827 254.22783077 -139.50305181 259.48815252 -147.13916016 264.72314453 C-149.01470062 266.01008715 -150.88848582 267.29954503 -152.76171875 268.58984375 C-169.34964109 280.01412003 -186.01146308 291.33024792 -202.66821289 302.65380859 C-216.3541723 311.95869216 -230.02937611 321.27930096 -243.6875 330.625 C-244.4710083 331.16108887 -245.2545166 331.69717773 -246.06176758 332.24951172 C-249.77984956 334.79409216 -253.49669441 337.34044409 -257.2109375 339.890625 C-269.25828674 348.15604932 -281.35941937 356.34126522 -293.46899414 364.51513672 C-305.68124818 372.76206186 -317.84976798 381.06970094 -329.90893555 389.53930664 C-339.85946594 396.5172638 -349.90453972 403.34840446 -360.00686646 410.10409546 C-361.44030548 411.06277739 -362.87300652 412.02256386 -364.30490112 412.98355103 C-389.8342265 430.10416214 -389.8342265 430.10416214 -399.1875 430.3125 C-400.27417969 430.34988281 -401.36085938 430.38726562 -402.48046875 430.42578125 C-410.83822664 429.41468734 -416.22801033 424.46124341 -421.9375 418.625 C-422.63407715 417.91891602 -423.3306543 417.21283203 -424.04833984 416.48535156 C-430.10120331 410.18856884 -434.78217316 403.62105193 -439 396 C-439.55945313 395.01773437 -440.11890625 394.03546875 -440.6953125 393.0234375 C-449.0898111 377.37339238 -452.40101312 360.39825131 -452.3125 342.75 C-452.30686035 341.56559326 -452.3012207 340.38118652 -452.29541016 339.16088867 C-451.87814751 308.9465285 -439.31931321 284.75618078 -418.54296875 263.484375 C-398.27339436 244.28525514 -371.66536985 230.26306959 -348.33105469 215.11743164 C-340.08822907 209.76489017 -331.91530534 204.31960825 -323.81033325 198.76087952 C-313.35587077 191.59121331 -302.86090523 184.48275586 -292.34863281 177.39819336 C-289.63285546 175.56779448 -286.91794499 173.7361153 -284.203125 171.90429688 C-275.3117667 165.90780757 -266.40792209 159.93091321 -257.48046875 153.98828125 C-247.7651877 147.52107658 -238.08594561 141.00145565 -228.4152832 134.46777344 C-203.68148878 117.75868185 -203.68148878 117.75868185 -192 110 C-180.03847738 102.05506095 -168.14567685 94.00864111 -156.24526978 85.97259521 C-143.91896664 77.6501972 -131.5716105 69.36112261 -119.1875 61.125 C-109.67122543 54.7950277 -100.18087288 48.43238329 -90.74975586 41.97583008 C-82.41855465 36.27471881 -74.05852449 30.61663573 -65.69421387 24.96426392 C-64.09940874 23.88651798 -62.50475641 22.80854589 -60.91027832 21.73031616 C-57.13262881 19.17592135 -53.35278264 16.62491627 -49.56835938 14.08056641 C-46.41274977 11.95806558 -43.27078054 9.81686113 -40.13476562 7.66552734 C-38.54306666 6.58286386 -36.95127281 5.50033984 -35.359375 4.41796875 C-34.63840637 3.91832108 -33.91743774 3.4186734 -33.17462158 2.90388489 C-21.65886426 -4.88562938 -12.54944609 -5.89843045 0 0 Z M-19.67797852 30.32299805 C-20.41225571 30.83304886 -21.1465329 31.34309967 -21.90306091 31.86860657 C-22.69946487 32.43145859 -23.49586884 32.99431061 -24.31640625 33.57421875 C-26.04389648 34.7760003 -27.77194569 35.97697867 -29.50048828 37.17724609 C-30.40357727 37.80677185 -31.30666626 38.43629761 -32.23712158 39.0848999 C-36.74353636 42.20853912 -41.29148735 45.26992898 -45.83984375 48.33203125 C-46.74964996 48.94553436 -47.65945618 49.55903748 -48.59683228 50.19113159 C-50.44624549 51.43822278 -52.29588574 52.68497735 -54.14575195 53.93139648 C-56.96030332 55.82786507 -59.77414558 57.72538222 -62.58789062 59.62304688 C-70.69715646 65.09056436 -78.81195428 70.54873266 -86.95483398 75.96606445 C-93.16612355 80.11472583 -99.35118855 84.30244297 -105.54049683 88.48379517 C-108.13616598 90.23726404 -110.73221528 91.99016879 -113.32836914 93.74291992 C-120.72947448 98.73970043 -128.13022712 103.73700281 -135.53027344 108.73535156 C-154.13942335 121.30425228 -172.75344681 133.86415714 -191.45281982 146.29855347 C-204.63557042 155.0661732 -217.7606241 163.91845389 -230.88137817 172.77850342 C-242.13497699 180.37745036 -253.40152912 187.95438142 -264.7121582 195.46826172 C-271.33942071 199.87697849 -277.93005094 204.33816329 -284.51052856 208.81628418 C-305.39513422 223.02832447 -326.34862474 237.15801042 -347.5625 250.875 C-354.84274062 255.58420212 -362.09756262 260.33096961 -369.32492065 265.12091064 C-370.50049434 265.89909917 -371.67714597 266.67566242 -372.85501099 267.45037842 C-380.21365441 272.29292646 -387.22318768 277.37200571 -394 283 C-395.19943237 283.98033203 -395.19943237 283.98033203 -396.4230957 284.98046875 C-410.640266 296.73968937 -419.54922276 313.76423229 -422 332 C-423.89650077 353.68766651 -419.77905452 374.05443403 -405.64453125 391.15625 C-403.51427318 393.54456784 -401.33268693 395.80868804 -399 398 C-394.60863926 396.46711765 -390.93204591 394.13762275 -387.1015625 391.5546875 C-386.43896423 391.11290665 -385.77636597 390.67112579 -385.09368896 390.21595764 C-382.93416473 388.7738277 -380.7794466 387.32470247 -378.625 385.875 C-377.11940397 384.86646766 -375.61370649 383.85808677 -374.10791016 382.84985352 C-364.89793673 376.6726318 -355.75433251 370.40885468 -346.6730957 364.04370117 C-338.77246915 358.51249465 -330.80178354 353.08939381 -322.8125 347.6875 C-322.15791809 347.24485809 -321.50333618 346.80221619 -320.82891846 346.34616089 C-318.1840674 344.55794522 -315.53895046 342.77012397 -312.89343262 340.9828949 C-306.00662068 336.33028226 -299.12721914 331.66677726 -292.25 327 C-291.37513947 326.40640182 -291.37513947 326.40640182 -290.48260498 325.80081177 C-281.04498478 319.39655924 -271.62382031 312.96863323 -262.21679688 306.51953125 C-243.60924849 293.76475359 -224.97026162 281.05619184 -206.3125 268.375 C-195.8608653 261.27054756 -185.42297325 254.14642669 -175 247 C-174.34338379 246.55027832 -173.68676758 246.10055664 -173.01025391 245.63720703 C-164.5430403 239.83730508 -156.10869025 233.99152491 -147.6875 228.125 C-127.9176894 214.36066004 -107.96777052 200.86525038 -88.00585938 187.38183594 C-84.49609163 185.01105616 -80.98707968 182.63916234 -77.47851562 180.26660156 C-72.68077962 177.02234689 -67.88188589 173.77981088 -63.08227539 170.53833008 C-61.21847776 169.27925051 -59.35502422 168.01966142 -57.49194336 166.75952148 C-40.59431138 155.33178468 -40.59431138 155.33178468 -32.046875 149.7734375 C-30.98823242 149.08427246 -29.92958984 148.39510742 -28.83886719 147.68505859 C-24.0878128 144.8649883 -20.34176122 143.6769914 -14.8125 143.5625 C-13.24435547 143.50255859 -13.24435547 143.50255859 -11.64453125 143.44140625 C-3.16896866 144.74044746 3.88164065 150.05952064 10.6875 155 C19.55730727 161.32250976 28.53547683 167.46805182 37.5625 173.5625 C40.24236326 175.3734379 42.92193982 177.18479989 45.6015625 178.99609375 C46.24544922 179.43119263 46.88933594 179.8662915 47.55273438 180.3145752 C55.72682351 185.8398682 63.86771857 191.41340895 72 197 C72.68513672 197.47050781 73.37027344 197.94101563 74.07617188 198.42578125 C78.06819829 201.16770289 82.05866668 203.91188222 86.04833984 206.65722656 C89.36491763 208.93908519 92.68250537 211.21947463 96 213.5 C99.96532693 216.22586084 103.93047898 218.95197322 107.89453125 221.6796875 C129.77572936 236.73430216 151.72108723 251.69506996 173.6875 266.625 C184.87580781 274.22990057 196.0457815 281.8612116 207.20361328 289.51074219 C217.38815227 296.49275188 227.59303024 303.44424898 237.8125 310.375 C271.03031919 332.90655286 271.03031919 332.90655286 279.1015625 338.5703125 C296.1969724 350.56617164 313.58401272 362.11064001 330.97998047 373.6640625 C338.23857447 378.48585413 345.48767549 383.32188055 352.73712158 388.15740967 C356.20847675 390.47270564 359.68042237 392.78711573 363.15234375 395.1015625 C364.29809867 395.86539268 365.44385097 396.62922681 366.58959961 397.39306641 C367.38503174 397.92335449 368.18046387 398.45364258 369 399 C378.33338161 391.78437378 384.37436995 380.71346535 389 370 C389.41378906 369.10023438 389.82757812 368.20046875 390.25390625 367.2734375 C396.95171576 349.95714949 394.3742977 328.74194515 387.15527344 312.04638672 C377.51330102 290.65359409 360.1460743 278.50807866 341.125 266 C339.86558819 265.16711593 338.60647313 264.33378298 337.34765625 263.5 C334.83544187 261.83682141 332.32204793 260.17545081 329.80761719 258.515625 C320.62649964 252.45220882 311.45769769 246.39076641 302.5 240 C291.9444678 232.5478515 281.18002622 225.41437277 270.41903687 218.2640686 C258.0714181 210.05943097 245.76168946 201.80179687 233.48303223 193.49432373 C215.64440533 181.4250987 197.71418028 169.50414598 179.6887207 157.71557617 C170.96728134 152.00242989 162.33699463 146.21564043 153.90209961 140.08569336 C151.10033769 138.07211112 148.25714243 136.14622423 145.375 134.25 C140.80211973 131.2379962 136.31709402 128.12073572 131.84594727 124.9597168 C124.35447539 119.6650294 116.82410042 114.54431446 109.00219727 109.75170898 C101.49519392 105.12603018 94.27185628 100.09491255 87.02001953 95.08276367 C73.67252011 85.87762886 60.25346783 76.78713278 46.75 67.8125 C43.36431401 65.56160267 39.97890099 63.31029559 36.59375 61.05859375 C35.30322723 60.20041046 35.30322723 60.20041046 33.9866333 59.32489014 C28.53813065 55.69866384 23.10152771 52.0552602 17.67327881 48.39878845 C14.06914626 45.97135529 10.46172837 43.54882871 6.85412598 41.1265564 C5.12323685 39.96234624 3.39397547 38.79571224 1.66638184 37.62661743 C-0.73391493 36.00266283 -3.13970707 34.38718253 -5.546875 32.7734375 C-6.26065308 32.28726456 -6.97443115 31.80109161 -7.70983887 31.30018616 C-12.54792998 28.0736659 -14.81018898 26.9011866 -19.67797852 30.32299805 Z " fill="#000000" transform="translate(452,4)"/>
<path d="M0 0 C1.06253494 -0.00571014 2.12506989 -0.01142029 3.21980286 -0.01730347 C4.96069435 -0.01898026 4.96069435 -0.01898026 6.73675537 -0.02069092 C8.57641121 -0.02813828 8.57641121 -0.02813828 10.45323181 -0.03573608 C13.81501105 -0.04783424 17.17672817 -0.05530028 20.53852177 -0.05974674 C22.64119038 -0.06268194 24.74385359 -0.06678761 26.84651947 -0.07125092 C33.43208835 -0.08492012 40.01764482 -0.09458922 46.6032269 -0.09845281 C54.19249325 -0.10293027 61.7815792 -0.12046599 69.37079072 -0.1494534 C75.24526149 -0.1711084 81.11968165 -0.18115914 86.99419188 -0.18249393 C90.49884596 -0.18353936 94.00333033 -0.1893909 97.5079422 -0.20731354 C101.42151131 -0.22693862 105.33485709 -0.22249003 109.24847412 -0.21600342 C110.40097153 -0.2252182 111.55346893 -0.23443298 112.7408905 -0.243927 C120.51410279 -0.20361257 127.78278898 0.44212915 133.56390381 6.26544189 C134.37794678 7.04274658 134.37794678 7.04274658 135.20843506 7.83575439 C139.86915191 14.79733147 140.18384806 22.39644773 140.12562561 30.53303528 C140.12960002 31.64989037 140.13357442 32.76674546 140.13766927 33.91744465 C140.14726048 37.64368234 140.135493 41.36953737 140.12371826 45.09576416 C140.12614726 47.77374284 140.12975155 50.45169654 140.13478088 53.12966919 C140.14424645 59.63832276 140.13768892 66.14686509 140.12551794 72.65551037 C140.11186504 80.24048157 140.11353868 87.82542658 140.11565127 95.41040694 C140.11883783 108.94633655 140.1071922 122.48221346 140.08758545 136.01812744 C140.06857897 149.14314376 140.06149931 162.26809834 140.06707764 175.39312744 C140.07313947 189.69801815 140.07295123 204.00288173 140.0615918 218.30777019 C140.06038456 219.83390772 140.05917857 221.36004525 140.05797386 222.88618279 C140.05737032 223.6370043 140.05676678 224.38782582 140.05614496 225.1613995 C140.0522707 230.44467008 140.05265751 235.72793055 140.05455971 241.01120186 C140.0566848 247.45162518 140.05143374 253.89199452 140.03694616 260.33240265 C140.02971745 263.61644195 140.02668688 266.90038704 140.03018951 270.18443489 C140.0334136 273.74798749 140.02432339 277.31130384 140.01210022 280.87483215 C140.01587954 281.90761923 140.01965887 282.9404063 140.02355272 284.00448996 C139.97712413 291.65751059 139.47657921 299.31220406 134.4593792 305.4783392 C127.954777 311.80824122 118.47865193 311.71358933 109.99310303 311.64215088 C108.13750259 311.65025536 108.13750259 311.65025536 106.24441528 311.65852356 C102.88057897 311.66882464 99.51774047 311.66138488 96.15399313 311.64481235 C92.61835516 311.63086345 89.08274425 311.63743281 85.54708862 311.64094543 C79.61429599 311.64363914 73.68170665 311.63024227 67.7489624 311.60699463 C60.90623475 311.5803655 54.06384622 311.57864867 47.22108448 311.59038299 C40.61412366 311.6011887 34.00728458 311.59495346 27.4003334 311.58082771 C24.59908264 311.57509452 21.79792175 311.57512937 18.99666977 311.57989311 C15.08128937 311.58558311 11.16624382 311.5662786 7.25091553 311.54449463 C5.52228271 311.5512471 5.52228271 311.5512471 3.75872803 311.55813599 C-3.85875392 311.48785716 -9.96213761 310.90405479 -15.99859619 305.82794189 C-20.82732093 300.06029845 -23.368751 295.87783818 -23.38002396 288.37582016 C-23.3838651 287.41485577 -23.38770625 286.45389139 -23.39166379 285.46380687 C-23.39079731 284.41090441 -23.38993083 283.35800195 -23.38903809 282.27319336 C-23.39200921 281.15244329 -23.39498033 280.03169322 -23.39804149 278.87698102 C-23.40673859 275.10769747 -23.40823759 271.33844563 -23.409729 267.56915283 C-23.41435645 264.87221628 -23.41936036 262.17528263 -23.42477417 259.47834778 C-23.43835268 252.14150627 -23.44438147 244.80467024 -23.44878483 237.46781826 C-23.45154808 232.8860074 -23.45578559 228.30419865 -23.460289 223.72238922 C-23.47248107 211.03485115 -23.48278049 198.34731477 -23.48616409 185.65977097 C-23.48638366 184.84783085 -23.48660323 184.03589074 -23.48682944 183.19934638 C-23.48704772 182.38547176 -23.487266 181.57159713 -23.48749089 180.73305964 C-23.48793436 179.08386024 -23.48838092 177.43466083 -23.48883057 175.78546143 C-23.489052 174.96740285 -23.48927343 174.14934428 -23.48950157 173.30649605 C-23.49344916 160.05251697 -23.51090226 146.79859287 -23.53419009 133.54463503 C-23.55791039 119.93459822 -23.57036625 106.324589 -23.57153201 92.71453118 C-23.57244839 85.07395702 -23.57819143 77.4334545 -23.59635162 69.79290009 C-23.61176178 63.28647623 -23.6168677 56.78014618 -23.60861352 50.27370754 C-23.60471017 46.95518865 -23.60725713 43.63701198 -23.61967087 40.31849098 C-23.63235185 36.7173729 -23.62653392 33.11673958 -23.61608887 29.515625 C-23.62414527 28.47164543 -23.63220168 27.42766586 -23.64050221 26.35205054 C-23.58508973 18.18381006 -22.26356802 11.15541372 -16.24859619 5.14044189 C-10.92217873 1.45675131 -6.40530864 0.02065515 0 0 Z M6.75140381 30.14044189 C6.75140381 112.97044189 6.75140381 195.80044189 6.75140381 281.14044189 C40.74140381 281.14044189 74.73140381 281.14044189 109.75140381 281.14044189 C109.75140381 198.31044189 109.75140381 115.48044189 109.75140381 30.14044189 C75.76140381 30.14044189 41.77140381 30.14044189 6.75140381 30.14044189 Z " fill="#000000" transform="translate(379.24859619140625,500.85955810546875)"/>
</svg>
