<?xml version="1.0" encoding="UTF-8"?>
<svg version="1.1" xmlns="http://www.w3.org/2000/svg" width="185" height="187">
<path d="M0 0 C0.98608749 0.00424484 0.98608749 0.00424484 1.99209595 0.00857544 C4.07044483 0.01967803 6.14834616 0.04476264 8.2265625 0.0703125 C9.64452498 0.08035519 11.06249429 0.08947877 12.48046875 0.09765625 C15.93764287 0.11958445 19.39455892 0.15404432 22.8515625 0.1953125 C22.8515625 0.8553125 22.8515625 1.5153125 22.8515625 2.1953125 C24.8046875 2.13020833 26.7578125 2.06510417 28.7109375 2 C31.20282922 2.22736238 32.66556809 2.99762207 34.8515625 4.1953125 C36.46955133 4.87881933 38.09505198 5.54474133 39.7265625 6.1953125 C40.54898438 6.5253125 41.37140625 6.8553125 42.21875 7.1953125 C44.87229725 8.24353209 44.87229725 8.24353209 47.7578125 9.0390625 C51.41615265 10.40632094 54.3510468 12.40959658 57.4765625 14.6953125 C61.6081723 17.73527437 61.6081723 17.73527437 66.0625 20.25390625 C68.87931102 21.73611467 70.3841233 24.14683898 72.2890625 26.63671875 C74.10136803 28.44449351 75.35660852 28.80278741 77.8515625 29.1953125 C77.93535156 29.73800781 78.01914063 30.28070312 78.10546875 30.83984375 C79.10733472 34.00280281 80.82220027 36.21883454 82.7890625 38.8828125 C83.49933594 39.85605469 84.20960938 40.82929687 84.94140625 41.83203125 C86.63284522 44.25866046 86.63284522 44.25866046 88.8515625 45.1953125 C89.8515625 47.33984375 89.8515625 47.33984375 90.8515625 50.0078125 C92.18762108 53.58738691 92.18762108 53.58738691 93.84765625 57.01953125 C95.350856 60.27743887 96.08601853 63.71941689 96.9140625 67.1953125 C97.08744141 67.906875 97.26082031 68.6184375 97.43945312 69.3515625 C97.91351437 71.29866463 98.38273616 73.24694328 98.8515625 75.1953125 C99.03025879 75.80463623 99.20895508 76.41395996 99.39306641 77.04174805 C102.49847823 91.62792359 100.82206277 109.26255883 95.8515625 123.1953125 C95.47775847 124.75323125 95.12011749 126.31525297 94.7890625 127.8828125 C93.87410033 131.11567883 92.90409525 132.62964656 90.8515625 135.1953125 C90.5628125 136.1646875 90.2740625 137.1340625 89.9765625 138.1328125 C88.60508155 141.86628841 86.68949712 143.4218764 83.8515625 146.1953125 C79.66922564 151.24396358 79.66922564 151.24396358 77.8515625 157.1953125 C77.1296875 157.4015625 76.4078125 157.6078125 75.6640625 157.8203125 C72.04910463 159.58762524 70.36891333 162.09703456 67.8515625 165.1953125 C66.53368112 165.89202686 65.19778232 166.55506691 63.8515625 167.1953125 C62.16745389 168.31535268 60.50161791 169.46318481 58.8515625 170.6328125 C58.0059375 171.22964844 57.1603125 171.82648438 56.2890625 172.44140625 C54.76837589 173.53561825 53.26777449 174.65900697 51.80078125 175.82421875 C49.76222381 177.25815395 48.03918779 177.9684982 45.6640625 178.6953125 C44.88417969 178.94023437 44.10429687 179.18515625 43.30078125 179.4375 C42.49253906 179.68757812 41.68429688 179.93765625 40.8515625 180.1953125 C39.22528651 180.73313606 37.60023328 181.27467436 35.9765625 181.8203125 C29.41839302 184.00636899 23.87236434 185.32165225 16.8984375 185.328125 C16.23877991 185.32908173 15.57912231 185.33003845 14.8994751 185.33102417 C13.50768946 185.33170213 12.11590059 185.32987473 10.72412109 185.32568359 C8.62199568 185.32036421 6.52008728 185.32562385 4.41796875 185.33203125 C-14.42407119 185.34489004 -14.42407119 185.34489004 -19.1484375 182.1953125 C-23.51800844 180.20230682 -27.75910077 178.40114016 -32.5234375 177.6953125 C-35.8902782 177.05400951 -36.75454274 175.60224117 -39.1484375 173.1953125 C-40.80329538 172.10253115 -42.49263547 171.06034474 -44.2109375 170.0703125 C-49.35076097 167.08689617 -52.90638579 164.42845083 -56.55078125 159.75390625 C-58.38574702 157.96380517 -59.64891936 157.58940499 -62.1484375 157.1953125 C-62.27412109 156.38126953 -62.27412109 156.38126953 -62.40234375 155.55078125 C-63.40420972 152.38782219 -65.11907527 150.17179046 -67.0859375 147.5078125 C-68.15134766 146.04794922 -68.15134766 146.04794922 -69.23828125 144.55859375 C-70.92972022 142.13196454 -70.92972022 142.13196454 -73.1484375 141.1953125 C-74.1484375 139.05078125 -74.1484375 139.05078125 -75.1484375 136.3828125 C-76.49888807 132.78428206 -76.49888807 132.78428206 -78.13256836 129.31176758 C-79.17208059 127.14605464 -79.80506459 125.11323033 -80.40234375 122.7890625 C-80.61697266 121.96277344 -80.83160156 121.13648437 -81.05273438 120.28515625 C-81.37854492 119.00318359 -81.37854492 119.00318359 -81.7109375 117.6953125 C-82.04254883 116.41333984 -82.04254883 116.41333984 -82.38085938 115.10546875 C-82.97524202 112.80335833 -83.56459263 110.5001159 -84.1484375 108.1953125 C-84.33092041 107.53797119 -84.51340332 106.88062988 -84.70141602 106.20336914 C-87.71421484 92.66963331 -84.87737685 78.2099762 -80.77636719 65.27392578 C-80.12769627 63.12665354 -79.59439068 60.97163713 -79.078125 58.7890625 C-78.18111911 55.32164477 -77.3165961 53.90551075 -75.1484375 51.1953125 C-74.8596875 50.2259375 -74.5709375 49.2565625 -74.2734375 48.2578125 C-72.90195655 44.52433659 -70.98637212 42.9687486 -68.1484375 40.1953125 C-63.96610064 35.14666142 -63.96610064 35.14666142 -62.1484375 29.1953125 C-61.4265625 28.9890625 -60.7046875 28.7828125 -59.9609375 28.5703125 C-56.34597963 26.80299976 -54.66578833 24.29359044 -52.1484375 21.1953125 C-50.83116884 20.49744038 -49.49510538 19.83461512 -48.1484375 19.1953125 C-46.44260467 18.07695449 -44.75590217 16.92905469 -43.0859375 15.7578125 C-42.22871094 15.16097656 -41.37148438 14.56414063 -40.48828125 13.94921875 C-38.1781894 12.31764011 -38.1781894 12.31764011 -36.55859375 10.53125 C-34.52545902 8.60512236 -32.21250793 8.38130102 -29.54296875 7.796875 C-25.78057225 6.85167262 -22.19660712 5.45450143 -18.56640625 4.09765625 C-16.77312869 3.42843635 -14.96429259 2.80059753 -13.1484375 2.1953125 C-12.24399902 1.84871582 -11.33956055 1.50211914 -10.40771484 1.14501953 C-6.77804854 0.08738643 -3.77611433 -0.03227448 0 0 Z M-11.5859375 51.1328125 C-13.73432938 53.96868978 -14.12248641 56.0276711 -14.01171875 59.56640625 C-12.14000225 65.2662488 -6.72723352 69.51715053 -2.1484375 73.1953125 C-1.4884375 73.1953125 -0.8284375 73.1953125 -0.1484375 73.1953125 C0.1815625 73.8553125 0.5115625 74.5153125 0.8515625 75.1953125 C3.94408024 79.321078 7.43779361 82.90101609 11.1015625 86.5078125 C11.65585938 87.05759766 12.21015625 87.60738281 12.78125 88.17382812 C14.13573302 89.51663457 15.49332923 90.85629952 16.8515625 92.1953125 C15.20736618 96.48676831 12.04106805 99.15794756 8.7890625 102.2578125 C4.50412687 106.14954565 4.50412687 106.14954565 1.8515625 111.1953125 C1.1915625 111.1953125 0.5315625 111.1953125 -0.1484375 111.1953125 C-0.1484375 111.8553125 -0.1484375 112.5153125 -0.1484375 113.1953125 C-0.71046875 113.44152344 -1.2725 113.68773437 -1.8515625 113.94140625 C-6.42784269 116.43968166 -10.04938288 120.03095786 -13.1484375 124.1953125 C-14.0273086 127.37622666 -14.13832851 130.03527581 -13.1484375 133.1953125 C-11.40285979 135.32121161 -10.37831132 136.11062215 -7.7734375 137.0703125 C-4.23395517 137.23885928 -2.9113555 136.39147809 -0.1484375 134.1953125 C1.19427071 132.20159425 2.52809744 130.2018563 3.8515625 128.1953125 C5.9140625 126.9453125 5.9140625 126.9453125 7.8515625 126.1953125 C10.88263553 124.53393555 10.88263553 124.53393555 11.8125 122.265625 C13.02473399 119.85027157 14.36403915 118.73077324 16.4765625 117.0703125 C18.35607211 115.63362532 18.35607211 115.63362532 19.8515625 114.1953125 C19.8515625 113.5353125 19.8515625 112.8753125 19.8515625 112.1953125 C21.83102842 110.83168042 23.833487 109.50112606 25.8515625 108.1953125 C28.28794482 106.09498292 28.80049794 105.34850619 29.8515625 102.1953125 C30.8209375 101.7209375 31.7903125 101.2465625 32.7890625 100.7578125 C35.82406899 99.46655292 35.82406899 99.46655292 37.2890625 97.4453125 C38.13473974 94.06260355 37.70605752 91.55225722 36.8515625 88.1953125 C35.04660819 86.19352387 35.04660819 86.19352387 32.8515625 85.1953125 C32.1915625 85.1953125 31.5315625 85.1953125 30.8515625 85.1953125 C30.614375 84.43347656 30.3771875 83.67164063 30.1328125 82.88671875 C28.62487888 79.71913867 27.34500548 78.87736774 24.3515625 77.1328125 C20.91112552 75.11658239 19.49066044 73.80420359 17.8515625 70.1953125 C16.41834788 68.99010929 14.98127172 67.78846679 13.5078125 66.6328125 C11.07767909 64.5236401 9.14356643 62.06614541 7.1484375 59.55078125 C6.72046875 59.10347656 6.2925 58.65617187 5.8515625 58.1953125 C5.1915625 58.1953125 4.5315625 58.1953125 3.8515625 58.1953125 C2.4788943 56.22210197 1.14728633 54.21988098 -0.1484375 52.1953125 C-2.07848979 49.83932621 -2.07848979 49.83932621 -5.5234375 49.8828125 C-9.01610348 50.01500884 -9.01610348 50.01500884 -11.5859375 51.1328125 Z " fill="#2D97C2" transform="translate(85.1484375,0.8046875)"/>
<path d="" fill="#2D97C2" transform="translate(0,0)"/>
<path d="" fill="#D2EBF5" transform="translate(0,0)"/>
<path d="" fill="#2D97C2" transform="translate(0,0)"/>
<path d="" fill="#C8E6F2" transform="translate(0,0)"/>
<path d="" fill="#DAEEF6" transform="translate(0,0)"/>
<path d="" fill="#2D97C2" transform="translate(0,0)"/>
<path d="" fill="#E4F3F9" transform="translate(0,0)"/>
<path d="" fill="#B6DEEE" transform="translate(0,0)"/>
</svg>
