<?xml version="1.0" encoding="UTF-8"?>
<svg version="1.1" xmlns="http://www.w3.org/2000/svg" width="922" height="718">
<path d="M0 0 C0.85078125 0.74121094 1.7015625 1.48242188 2.578125 2.24609375 C5.08482567 4.46444695 7.55069919 6.71851425 10 9 C11.10794922 10.02673828 11.10794922 10.02673828 12.23828125 11.07421875 C45.24415923 42.79034661 61.72677395 88.70580403 62.9609375 133.7109375 C63.40817984 164.60872188 55.66610376 193.93268446 41 221 C40.42378906 222.06863281 39.84757812 223.13726562 39.25390625 224.23828125 C17.11196287 263.66423585 -20.91270474 291.92824756 -64.13964844 304.23925781 C-71.67374337 306.24303383 -79.29116944 307.83774288 -87 309 C-88.01090698 309.15251221 -88.01090698 309.15251221 -89.04223633 309.30810547 C-96.26811447 310.25137892 -103.53581231 310.24354011 -110.8125 310.25 C-111.49807983 310.25067474 -112.18365967 310.25134949 -112.89001465 310.25204468 C-124.48033328 310.2339991 -135.65419949 309.47367668 -147 307 C-147.77666016 306.83371094 -148.55332031 306.66742187 -149.35351562 306.49609375 C-174.00868816 301.03514495 -197.00321148 290.37536447 -217 275 C-217.9075 274.31679688 -218.815 273.63359375 -219.75 272.9296875 C-256.32619905 244.30010312 -278.34840821 203.12265838 -285.25 157.5625 C-290.39719134 110.95955137 -278.2208195 63.92001859 -249 27 C-218.11037571 -10.75503452 -176.01435832 -35.33861467 -127.15234375 -40.3984375 C-81.42933803 -44.0801594 -34.68377637 -30.53680311 0 0 Z " fill="#010101" transform="translate(572,259)"/>
<path d="M0 0 C0.96951599 0.01780518 1.93903198 0.03561035 2.93792725 0.05395508 C12.5832485 0.23321842 22.22840951 0.41943682 31.87280273 0.64355469 C56.84480408 1.21549813 81.77073038 0.89698727 106.74267578 0.42724609 C120.07772023 0.17895584 133.41254699 -0.05036721 146.75 -0.10546875 C148.23716019 -0.11755371 148.23716019 -0.11755371 149.75436401 -0.12988281 C173.05287292 -0.1598497 196.69454149 6.31405466 213.890625 22.734375 C222.1655842 31.62229414 227.9013415 40.97194322 233.02783203 51.92529297 C237.65635412 61.803038 242.28044525 71.34211215 249 80 C249.433125 80.6084375 249.86625 81.216875 250.3125 81.84375 C261.85694477 96.9614753 281.91674052 103.06583708 299.9588623 105.54370117 C305.9251366 106.17921454 311.87531907 106.12400509 317.86914062 106.09765625 C319.80570252 106.09541452 321.74226442 106.09317308 323.67882633 106.09094238 C325.74516801 106.08758794 327.81148907 106.08173888 329.87782288 106.07516479 C334.20984653 106.06153028 338.54186007 106.05572388 342.87390137 106.05102539 C352.86118555 106.03902494 362.84844291 106.01704534 372.83570862 105.99479675 C381.97519581 105.97451882 391.11467341 105.95646032 400.25417852 105.94658184 C403.84673918 105.94245705 407.43926904 105.9362266 411.03181458 105.92483521 C477.50856938 105.71648091 477.50856938 105.71648091 502.8125 129.25 C510.13467044 137.04154034 514.90268221 145.79565799 518.375 155.8125 C518.61371826 156.48595459 518.85243652 157.15940918 519.09838867 157.85327148 C523.47618048 171.49646571 523.29190933 186.10573114 523.25396729 200.27305603 C523.25627667 202.17215852 523.25945637 204.07126011 523.26342177 205.97035986 C523.27171292 211.14613849 523.26767053 216.32184265 523.26144934 221.49762142 C523.2569024 227.09622297 523.2639197 232.6948122 523.26940918 238.29341125 C523.27828115 249.24447271 523.27639092 260.19550667 523.2705839 271.14656918 C523.26605853 280.05098313 523.26545829 288.95538939 523.26763153 297.85980415 C523.267938 299.1293942 523.26824446 300.39898424 523.26856022 301.70704671 C523.2691997 304.28658473 523.26984812 306.86612276 523.2705054 309.44566078 C523.27604007 332.92033603 523.27031 356.39499287 523.2598202 379.86966483 C523.25033111 401.2675287 523.25117829 422.66536876 523.26074219 444.06323242 C523.27146801 468.14084647 523.27565192 492.21844429 523.26951766 516.29606158 C523.2688806 518.86616774 523.26825185 521.43627391 523.26763153 524.00638008 C523.26732298 525.27075889 523.26701443 526.53513771 523.26669653 527.83783103 C523.26497343 536.72572686 523.2678764 545.6136142 523.27259064 554.50150871 C523.27821404 565.34128046 523.27665244 576.18102325 523.26602915 587.0207917 C523.26079189 592.54592714 523.25868235 598.07101442 523.26532745 603.59614944 C523.27132957 608.66350893 523.26794217 613.73077602 523.25737235 618.79812724 C523.25515625 620.62162622 523.25623381 622.44513316 523.26112393 624.26862692 C523.32234168 649.0135509 521.4013186 673.95480953 503.29296875 692.73046875 C502.53628906 693.47941406 501.77960937 694.22835937 501 695 C500.33613281 695.69738281 499.67226563 696.39476562 498.98828125 697.11328125 C482.62221831 713.16760966 457.99934951 717.16356492 436.04331493 717.13142776 C434.0879357 717.13450672 434.0879357 717.13450672 432.09305385 717.13764787 C428.47419789 717.14319805 424.85536567 717.14254513 421.23650683 717.14087028 C417.29942168 717.1401379 413.36234315 717.14516514 409.42526084 717.1494453 C401.61619139 717.15701916 393.80712877 717.15921805 385.99805603 717.15977435 C376.64417461 717.16068861 367.29029952 717.16735802 357.93642082 717.17412117 C335.32782117 717.1901778 312.7192222 717.19608422 290.11061787 717.20086992 C279.41306175 717.20320636 268.71550617 717.20680908 258.01795047 717.2105653 C221.39222776 717.22340093 184.76650536 717.23411977 148.14078045 717.2375679 C145.84179053 717.23778953 143.54280062 717.23801132 141.2438107 717.23823325 C138.93929411 717.23845389 136.63477752 717.23867438 134.33026093 717.2388947 C129.70707174 717.23933725 125.08388255 717.23978437 120.46069336 717.24023438 C118.74127132 717.24039846 118.74127132 717.24039846 116.98711348 717.24056586 C79.82698142 717.24419571 42.66686889 717.26011298 5.50674431 717.28342474 C-33.7896068 717.3080315 -73.08594676 717.32174115 -112.3823058 717.32293582 C-116.69776897 717.32310727 -121.01323213 717.3233227 -125.3286953 717.32357025 C-126.39126813 717.32362602 -127.45384096 717.32368179 -128.54861296 717.32373925 C-145.6347628 717.324889 -162.72089258 717.33590464 -179.80703564 717.35045731 C-196.98813707 717.36483755 -214.16921285 717.36805067 -231.35031865 717.36001733 C-241.55105413 717.35556818 -251.75170668 717.35939305 -261.95243123 717.37525584 C-268.77592116 717.38503342 -275.59935324 717.38380114 -282.42284269 717.37381961 C-286.30443073 717.36844754 -290.18585995 717.3676524 -294.06743459 717.38032833 C-323.46279953 717.47014805 -354.01926317 716.6447 -376.2734375 694.8515625 C-397.22693298 672.93744832 -398.33472399 641.60866525 -398.25396729 612.98742676 C-398.25627921 611.16538129 -398.25946058 609.34333675 -398.26342177 607.52129412 C-398.27167804 602.57697332 -398.26768684 597.63273092 -398.26144934 592.68841004 C-398.25688781 587.33181398 -398.2639268 581.97523056 -398.26940918 576.61863708 C-398.27826564 566.14972299 -398.27639795 555.68083771 -398.2705839 545.21192253 C-398.26605259 536.69759949 -398.26546083 528.18328447 -398.26763153 519.66896057 C-398.267938 518.45351052 -398.26824446 517.23806047 -398.26856022 515.9857786 C-398.26919972 513.5160069 -398.26984815 511.04623521 -398.2705054 508.57646352 C-398.27619772 485.46028217 -398.26966807 462.34411673 -398.25890467 439.227938 C-398.24997016 419.42717857 -398.25152251 399.6264426 -398.26074219 379.82568359 C-398.27146426 356.78775061 -398.2756485 333.74983155 -398.26951766 310.71189642 C-398.26888061 308.25161076 -398.26825187 305.79132509 -398.26763153 303.33103943 C-398.26732298 302.1207808 -398.26701443 300.91052217 -398.26669653 299.66358903 C-398.26497539 291.16728856 -398.2678721 282.67099697 -398.27259064 274.17469788 C-398.27822104 263.80941591 -398.27663784 253.44416421 -398.26602915 243.07888567 C-398.26080138 237.79840724 -398.25866587 232.51797912 -398.26532745 227.23750114 C-398.27134955 222.39034319 -398.26791024 217.54328152 -398.25737235 212.69613212 C-398.25516455 210.95614431 -398.25621445 209.21614812 -398.26112393 207.47616583 C-398.28479187 198.37990089 -397.9844619 189.40011111 -397.09740829 180.34296417 C-397.01834732 179.53352803 -396.93928635 178.7240919 -396.85782959 177.89012739 C-394.90401433 159.66172827 -388.98505138 139.58703887 -375.19140625 126.75 C-347.83342241 104.9026261 -313.97318458 105.70831001 -280.65783811 105.69407773 C-276.77803707 105.68952963 -272.8983015 105.67148552 -269.01853943 105.65428162 C-257.5334161 105.60561752 -246.04825548 105.57421814 -234.56304932 105.55297852 C-225.59724296 105.53638629 -216.63156327 105.51343752 -207.66584152 105.46995777 C-203.07759461 105.44839773 -198.48958976 105.44010255 -193.90129578 105.44235051 C-191.03691067 105.44066695 -188.17268028 105.42651952 -185.30835152 105.40913773 C-183.37895435 105.40100444 -181.44951234 105.40740869 -179.52011108 105.414505 C-160.8034181 105.26195421 -142.19157324 99.72901473 -128.25 86.75 C-120.78731548 78.58981261 -116.19943781 68.57119684 -111.625 58.625 C-107.12718416 49.06916287 -102.61289175 40.25593056 -96 32 C-95.50628906 31.34 -95.01257813 30.68 -94.50390625 30 C-83.51748297 16.05689057 -66.81643429 7.50714584 -50 3 C-48.82308594 2.6803125 -47.64617187 2.360625 -46.43359375 2.03125 C-31.25342932 -1.33174027 -15.45090049 -0.28685984 0 0 Z M-78.33886719 39.13574219 C-86.38439202 48.16508193 -91.57568004 57.58800397 -96.5 68.5 C-106.45934628 90.56931069 -119.83962661 106.59068278 -142.40234375 116.6484375 C-156.95685231 122.11625505 -171.71925867 123.14525185 -187.14428711 123.15771484 C-188.54348914 123.16239423 -189.94268967 123.1675396 -191.34188843 123.17311096 C-194.33791394 123.18431795 -197.33392994 123.19278763 -200.32996941 123.19923019 C-205.08692379 123.21000997 -209.84380953 123.23028242 -214.60072327 123.25234985 C-228.12221095 123.31393451 -241.6436938 123.36812935 -255.1652832 123.40136719 C-262.64667063 123.41983684 -270.12794176 123.44892461 -277.60924345 123.4893719 C-281.55398226 123.51023672 -285.49857588 123.5258695 -289.44337273 123.52817917 C-330.26156276 122.93450804 -330.26156276 122.93450804 -365 142 C-376.03425532 156.93868412 -380.17794353 174.59596999 -380.13142776 193.00597858 C-380.1334804 193.77435028 -380.13553303 194.54272198 -380.13764787 195.33437768 C-380.14328674 197.90020636 -380.14186448 200.46598083 -380.14044189 203.03181458 C-380.14302733 204.89371304 -380.14604099 206.75561096 -380.1494453 208.61750811 C-380.15749784 213.72766737 -380.1593039 218.83781257 -380.16004276 223.94797742 C-380.16189641 229.46222965 -380.16944541 234.97647463 -380.17617798 240.49072266 C-380.18975036 252.54692429 -380.19578458 264.6031226 -380.20018864 276.65933061 C-380.20295343 284.19209949 -380.20719127 291.7248671 -380.21169281 299.25763512 C-380.22388503 320.12649476 -380.23421914 340.99535372 -380.2375679 361.8642168 C-380.23778953 363.2129716 -380.23801131 364.5617264 -380.23823325 365.9104812 C-380.23845389 367.26241343 -380.23867437 368.61434566 -380.2388947 369.9662779 C-380.23933724 372.67828357 -380.23978436 375.39028925 -380.24023438 378.10229492 C-380.24034377 378.77471115 -380.24045316 379.44712738 -380.24056586 380.13991985 C-380.24419352 401.92498468 -380.26010302 423.71001618 -380.28342474 445.49506825 C-380.30806266 468.55196306 -380.32173591 491.6088425 -380.32293582 514.66575259 C-380.32385103 527.22448628 -380.32956429 539.78317633 -380.34775543 552.34189796 C-380.36319634 563.03944628 -380.36825346 573.73693748 -380.36001733 584.43449483 C-380.35612468 589.88693975 -380.35697235 595.33926977 -380.37107468 600.79170036 C-380.38389722 605.79536891 -380.3825435 610.79883721 -380.37048396 615.80250581 C-380.36854131 617.60071052 -380.37153812 619.39892982 -380.38032833 621.19711409 C-380.48016264 643.02376202 -378.67373909 666.17198423 -363.1953125 682.95703125 C-342.64660089 702.52520268 -309.81097393 700.30704896 -283.58920733 700.25693511 C-279.73478988 700.2518121 -275.88038813 700.25840096 -272.02597296 700.26342177 C-265.28595451 700.27061194 -258.54596815 700.27044657 -251.80594826 700.26532745 C-241.78309599 700.25773582 -231.7602706 700.26164375 -221.73741849 700.26774407 C-203.83307161 700.27825641 -185.92873903 700.27737046 -168.0243908 700.27158624 C-152.35698395 700.2665497 -136.68958233 700.26524426 -121.02217484 700.26763153 C-119.98181502 700.2677843 -118.9414552 700.26793707 -117.86956933 700.26809447 C-113.64614152 700.26871717 -109.42271372 700.26935398 -105.19928592 700.270014 C-65.60468653 700.27612792 -26.01009624 700.27059138 13.58450174 700.2598202 C48.74481593 700.25032805 83.90511563 700.2511799 119.06542969 700.26074219 C158.59190034 700.27145604 198.11836297 700.27569567 237.64483488 700.26951766 C241.85982537 700.26887625 246.07481587 700.26825057 250.28980637 700.26763153 C251.3276029 700.26747338 252.36539944 700.26731522 253.43464436 700.26715227 C269.09175308 700.26487937 284.74885598 700.26753405 300.4059639 700.27259064 C318.21100489 700.27831233 336.01602937 700.27687262 353.8210683 700.26602915 C363.78029219 700.2601636 373.73948032 700.2597631 383.69870327 700.2673215 C390.35702893 700.27181659 397.015326 700.2689965 403.67364744 700.26031196 C407.46315734 700.25556983 411.25259637 700.2538954 415.04210396 700.26112393 C455.02195964 700.69554607 455.02195964 700.69554607 489.375 682.1875 C502.63350927 667.91122135 505.2597954 650.69757876 505.40939331 631.94903564 C505.42791241 630.46930775 505.44717454 628.98958899 505.46711659 627.50987959 C505.51825867 623.51618066 505.55714366 619.52245093 505.59313861 615.52859014 C505.62500287 612.13656458 505.66351749 608.74462509 505.70166298 605.35266532 C506.08154684 571.26817265 506.14921456 537.1832772 506.13530136 503.09700279 C506.13295336 497.19476666 506.13275463 491.2925334 506.13381577 485.39029694 C506.133969 484.5277159 506.13412223 483.66513486 506.13428011 482.77641501 C506.13460005 481.02039025 506.13492427 479.2643655 506.1352527 477.50834075 C506.13805677 461.31148843 506.13490197 445.11464192 506.12945233 428.91779056 C506.12498578 415.22188353 506.12576913 401.525985 506.13037109 387.83007812 C506.13580328 371.65739659 506.13778587 355.48472003 506.13475883 339.31203771 C506.13444051 337.56617181 506.13412613 335.8203059 506.13381577 334.07444 C506.13366149 333.21694683 506.13350721 332.35945367 506.13334826 331.47597586 C506.1325088 325.62487971 506.13391323 319.77378697 506.13629532 313.92269135 C506.14416168 292.28155025 506.1154535 270.64086628 506 249 C505.99569737 248.19050974 505.99139474 247.38101948 505.98696172 246.54699922 C505.92774613 235.69146486 505.84327936 224.83643295 505.7275846 213.98135233 C505.69437328 210.83457766 505.66740723 207.68785338 505.64625382 204.54097509 C505.62110895 200.87188056 505.58169335 197.20320139 505.53163877 193.53436464 C505.5080934 191.57449684 505.49820462 189.61447928 505.48894954 187.6544919 C505.19333948 169.30496433 500.66885759 153.60238263 488.125 139.9609375 C473.68479901 126.30291406 453.15119625 124.04063 434.21484375 123.4296875 C433.22330953 123.39755472 433.22330953 123.39755472 432.21174431 123.3647728 C417.10275217 122.89808737 401.99336652 122.95740813 386.87890625 123.0078125 C385.62012035 123.01164696 384.36133446 123.01548141 383.06440353 123.01943207 C371.21368547 123.0564152 359.36302271 123.10147478 347.51245117 123.17138672 C340.96571065 123.20990431 334.41901478 123.23211319 327.87217522 123.24569321 C325.41050709 123.25366316 322.94884955 123.26714898 320.48724556 123.28662491 C291.87275914 123.5096181 265.26694485 119.73571133 243 100 C242.38769531 99.47019531 241.77539062 98.94039063 241.14453125 98.39453125 C230.94302035 88.94004174 224.87515649 76.35988948 219 64 C212.7263574 50.73772522 212.7263574 50.73772522 204 39 C203.49339844 38.401875 202.98679687 37.80375 202.46484375 37.1875 C192.07013017 25.74565312 176.99227893 20.14229415 162 18 C159.98808399 17.91728765 157.97383114 17.88212429 155.96022034 17.88647461 C154.77145294 17.8865451 153.58268555 17.8866156 152.3578949 17.88668823 C151.06617874 17.89185455 149.77446259 17.89702087 148.44360352 17.90234375 C147.0577398 17.90426516 145.67187539 17.90572791 144.28601074 17.9067688 C141.30194879 17.90992656 138.31791526 17.91619253 135.33386421 17.92483521 C130.57177581 17.93846659 125.80969661 17.94427808 121.04759216 17.94897461 C110.03532588 17.96099931 99.02308296 17.98274755 88.01083374 18.00520325 C76.39985635 18.02885811 64.78888687 18.04866085 53.1778903 18.05994797 C50.75480911 18.06249905 48.33172965 18.06577825 45.90864944 18.06912231 C26.43540683 18.09322052 6.97006089 18.07302572 -12.48765564 17.17993164 C-36.84875385 16.22143156 -60.81109218 21.04369273 -78.33886719 39.13574219 Z " fill="#000000" transform="translate(398,0)"/>
<path d="M0 0 C1.03640625 0.81210938 2.0728125 1.62421875 3.140625 2.4609375 C18.71850774 15.12296014 33.26427042 29.69577079 45 46 C45.85176801 47.14664872 46.70465463 48.29246725 47.55859375 49.4375 C53.60726903 57.63225764 58.94348175 66.16452261 64 75 C64.65613281 76.12277344 65.31226563 77.24554688 65.98828125 78.40234375 C97.74859397 134.98534577 103.85288899 204.80994601 87.05395508 266.96923828 C80.29681572 290.94069676 70.50268414 314.03106464 57 335 C56.57251465 335.66402832 56.1450293 336.32805664 55.70458984 337.01220703 C18.84528344 393.59172034 -38.35043489 433.92782666 -104.53881836 448.15820312 C-109.67635911 449.20500684 -114.8287785 450.13604722 -120 451 C-120.78665039 451.13277344 -121.57330078 451.26554687 -122.38378906 451.40234375 C-147.17520144 455.34416724 -174.35882385 454.2358594 -199 450 C-199.94133789 449.83902832 -200.88267578 449.67805664 -201.85253906 449.51220703 C-241.68311722 442.39031904 -279.40875747 425.20283229 -311 400 C-311.95648438 399.25492188 -312.91296875 398.50984375 -313.8984375 397.7421875 C-366.18519021 356.18878579 -399.39433399 294.16929429 -407 228 C-407.0942627 227.19796143 -407.18852539 226.39592285 -407.28564453 225.56958008 C-413.80576399 163.34851161 -396.95078281 99.44940827 -360 49 C-359.58395508 48.42701172 -359.16791016 47.85402344 -358.73925781 47.26367188 C-352.41863333 38.61228579 -345.44075927 30.70047163 -338 23 C-337.39961914 22.37770508 -336.79923828 21.75541016 -336.18066406 21.11425781 C-328.52027053 13.21657795 -320.79530561 5.64458738 -312 -1 C-311.37851074 -1.47614746 -310.75702148 -1.95229492 -310.11669922 -2.44287109 C-232.93466399 -61.27700613 -127.80561779 -69.57969485 0 0 Z M-303 15 C-303.55461914 15.45310547 -304.10923828 15.90621094 -304.68066406 16.37304688 C-317.66449959 27.0380791 -329.79299544 38.61346836 -340 52 C-340.42877441 52.55768066 -340.85754883 53.11536133 -341.29931641 53.68994141 C-348.22887749 62.74335519 -354.41844878 72.0608384 -360 82 C-360.60908203 83.07459473 -360.60908203 83.07459473 -361.23046875 84.17089844 C-391.28072555 137.63723996 -398.79725062 203.04998906 -382.62646484 262.12939453 C-373.83566663 292.80168937 -359.85600789 320.98348059 -340 346 C-339.24074219 346.96421875 -338.48148438 347.9284375 -337.69921875 348.921875 C-324.38877885 365.23389155 -309.25555394 379.92963351 -292 392 C-291.37319336 392.4448877 -290.74638672 392.88977539 -290.10058594 393.34814453 C-240.85987746 428.11161896 -178.95598616 442.9499262 -119.3359375 433 C-74.02781541 424.78376505 -30.79671793 405.17770487 2.32080078 372.6484375 C4.18911481 370.81434964 6.07755307 369.00204617 7.96484375 367.1875 C15.89728015 359.48581519 23.20546135 351.59784961 29.75732422 342.68701172 C30.97864961 341.02898451 32.22377916 339.39123502 33.47265625 337.75390625 C62.92784906 298.51919288 78.5607127 248.82588098 78.3125 199.9375 C78.31067719 199.18264313 78.30885437 198.42778625 78.30697632 197.65005493 C78.0430579 132.22149837 50.77113465 74.55096658 5.5 28.3125 C0.27697837 23.15587271 -5.19224765 18.48331079 -11 14 C-11.53544434 13.58282715 -12.07088867 13.1656543 -12.62255859 12.73583984 C-44.7118132 -12.11606781 -81.99072995 -27.66009196 -122 -34 C-123.13211914 -34.19263428 -123.13211914 -34.19263428 -124.28710938 -34.38916016 C-186.32627828 -44.68581888 -254.86451082 -24.66914771 -303 15 Z " fill="#000000" transform="translate(617,195)"/>
<path d="M0 0 C7.22808982 5.13855353 13.64172529 11.34107748 20.078125 17.421875 C22.69597252 19.93150663 22.69597252 19.93150663 24.8984375 21.01318359 C27.02955336 22.18065977 28.44847419 23.11857081 30 25 C30.89582109 29.06718086 30.70583269 32.98384224 30.5 37.125 C30.47679687 38.22199219 30.45359375 39.31898438 30.4296875 40.44921875 C30.21639269 48.35082193 30.21639269 48.35082193 29 52 C27.0234375 53.4375 27.0234375 53.4375 24.375 55 C20.24008668 57.52599763 16.32959046 60.19551815 12.47290039 63.11791992 C2.46897053 70.68255289 -6.43033423 77.22426758 -19.546875 76.57421875 C-30.06493896 74.82517418 -37.70703309 68.39425812 -45 61 C-45.66 60.3503125 -46.32 59.700625 -47 59.03125 C-53.16576397 52.5465672 -57.16778619 45.09843332 -57.6875 36.0625 C-57.12499979 24.62006157 -50.09978133 15.56489011 -42 8 C-29.46015858 -2.59653266 -15.39205163 -8.81588097 0 0 Z M-32.2421875 23.171875 C-36.13644169 27.22189936 -39.52032117 31.20896833 -40 37 C-36.21327342 46.49735458 -28.92795916 53.1890882 -20.30859375 58.25 C-16.29419887 59.55416889 -13.15241868 58.58064855 -9.46484375 56.72265625 C-6.61584839 54.85121417 -3.79725205 52.94821207 -1 51 C-0.12359863 50.40807861 -0.12359863 50.40807861 0.77050781 49.80419922 C2.5961387 48.56228338 4.39342023 47.28697688 6.1875 46 C6.76443604 45.60949463 7.34137207 45.21898926 7.93579102 44.81665039 C10.90802454 42.6128722 11.94047614 41.25459711 12.7890625 37.625 C11.67532507 32.5084241 9.05963738 30.34789669 5.1875 27 C4.50985596 26.3920459 3.83221191 25.7840918 3.1340332 25.15771484 C-10.20378366 13.42798126 -18.12644385 10.02766026 -32.2421875 23.171875 Z " fill="#000000" transform="translate(791,183)"/>
<path d="M0 0 C5.7266069 5.8676029 14.0625 15.36379696 14.0625 24.11328125 C1.24110577 24.29858474 -11.57997034 24.44075994 -24.40243053 24.52777863 C-30.35641436 24.56954241 -36.30948263 24.62619414 -42.26293945 24.71679688 C-48.00774956 24.80367786 -53.75167878 24.85154641 -59.49709511 24.87229919 C-61.68968898 24.88708916 -63.88223423 24.91597159 -66.07445335 24.9591217 C-69.14469164 25.01715434 -72.21128455 25.02519658 -75.28198242 25.02148438 C-76.18972916 25.05024658 -77.09747589 25.07900879 -78.0327301 25.10864258 C-84.01826834 25.03026796 -84.01826834 25.03026796 -86.678339 22.37669373 C-88.06709872 20.2984471 -89.16128451 18.49052833 -89.9375 16.11328125 C-88.69369869 12.38187731 -87.37414395 11.72629998 -84.1875 9.48828125 C-83.1975 8.79089844 -82.2075 8.09351562 -81.1875 7.375 C-80.115 6.62863281 -79.0425 5.88226563 -77.9375 5.11328125 C-76.81164269 4.30848964 -75.68665063 3.50248632 -74.5625 2.6953125 C-73.43793772 1.89651883 -72.31294642 1.09832875 -71.1875 0.30078125 C-70.16140625 -0.42753906 -69.1353125 -1.15585937 -68.078125 -1.90625 C-50.61288023 -12.91978121 -16.232654 -13.93501732 0 0 Z " fill="#000000" transform="translate(202.9375,64.88671875)"/>
<path d="M0 0 C0.66 0.33 1.32 0.66 2 1 C-6.25 9.25 -14.5 17.5 -23 26 C-23 22.48401315 -22.56814673 22.16359981 -20.25390625 19.70703125 C-19.66754395 19.07998291 -19.08118164 18.45293457 -18.47705078 17.80688477 C-17.84524902 17.14873779 -17.21344727 16.49059082 -16.5625 15.8125 C-15.92812012 15.14210693 -15.29374023 14.47171387 -14.64013672 13.78100586 C-9.98553281 8.90860473 -5.1934569 4.30040214 0 0 Z " fill="#4A4A49" transform="translate(350,258)"/>
</svg>
