<?xml version="1.0" encoding="UTF-8"?>
<svg version="1.1" xmlns="http://www.w3.org/2000/svg" width="780" height="711">
<path d="M0 0 C1.00853027 0.00410889 2.01706055 0.00821777 3.05615234 0.01245117 C6.62102014 0.03701279 10.18534785 0.07867661 13.75 0.125 C14.46087769 0.13360046 15.17175537 0.14220093 15.9041748 0.15106201 C20.60570632 0.20972617 25.30637152 0.28919021 30.00720215 0.38946533 C31.56351503 0.42103769 33.11992227 0.44830657 34.6763916 0.47088623 C63.09726752 0.90490415 63.09726752 0.90490415 73.234375 10.53515625 C79.36630484 17.29831416 80.84048781 25.05822682 80.95532227 33.8515625 C80.96522753 34.52416548 80.97513279 35.19676846 80.98533821 35.88975334 C81.01738352 38.17646636 81.04213942 40.4631919 81.06640625 42.75 C81.08714688 44.44394116 81.10805219 46.13788031 81.12910461 47.83181763 C81.18602434 52.5839222 81.23482585 57.33608306 81.2818222 62.08829498 C81.31253564 65.12852816 81.34583337 68.16872378 81.37969971 71.20892334 C81.72501287 102.76268469 81.76855238 134.3124688 81.71210647 165.86766529 C81.70535051 169.79812704 81.69970922 173.72859001 81.69411868 177.65905356 C81.68705824 182.59561973 81.6794331 187.53218496 81.67163086 192.46875 C81.67008786 193.44911744 81.66854487 194.42948487 81.66695511 195.43956041 C81.64762129 207.33883309 81.6164738 219.23797913 81.56937522 231.13717473 C81.53991182 238.73467054 81.5208279 246.33214915 81.50930768 253.9296931 C81.50063012 259.25039715 81.47921181 264.57084053 81.44804066 269.8914578 C81.43207684 273.16027362 81.4286866 276.42901158 81.42893493 279.69786263 C81.42654347 281.20216558 81.41901326 282.70647088 81.40585148 284.21071815 C80.98141556 294.69147812 80.98141556 294.69147812 84.75 304.125 C90.89433081 307.63120283 96.5701836 307.55920686 103.52728271 307.53718567 C104.70973265 307.54524363 105.89218258 307.55330159 107.11046433 307.56160372 C110.37995026 307.58086067 113.64914429 307.58681857 116.91867685 307.58705795 C120.44986186 307.5905565 123.98095243 307.61124166 127.51208496 307.62973022 C134.42570454 307.66318248 141.33927664 307.68068986 148.25296327 307.69265769 C156.31051736 307.70712502 164.36799477 307.73671984 172.42550328 307.76675066 C186.8087119 307.81977471 201.19192276 307.85802984 215.57519531 307.88842773 C229.51796153 307.91789906 243.46062777 307.95931537 257.40332031 308.01342773 C272.59558243 308.07237249 287.78784049 308.12491115 302.98016191 308.16615504 C304.60215394 308.17056418 306.22414597 308.17497518 307.846138 308.17938805 C308.64411723 308.18154862 309.44209646 308.18370919 310.26425688 308.18593523 C315.87422252 308.20150949 321.48416291 308.22144814 327.09410858 308.24295998 C333.93850533 308.26901317 340.78287577 308.28753871 347.62731668 308.29671214 C351.11627821 308.30155082 354.60515218 308.30953703 358.09407806 308.32641029 C361.88436405 308.3429577 365.67446527 308.34690986 369.46478271 308.34773254 C370.55634163 308.35540282 371.64790054 308.36307309 372.77253699 308.37097579 C380.58257812 308.35312723 388.69423319 308.11149803 395.8125 304.625 C402.03992237 296.5896163 399.99718773 283.41007743 399.92944336 273.73876953 C399.92396055 271.88486982 399.91941333 270.03096714 399.91572571 268.17706299 C399.90605133 264.2004177 399.89025805 260.22386131 399.86976433 256.24725723 C399.83780831 249.95064834 399.82242172 243.65406457 399.80970764 237.35739136 C399.77570412 221.7191652 399.72304486 206.08100874 399.6605835 190.44287109 C399.61204683 178.28312744 399.5699931 166.12344684 399.54907519 153.96362007 C399.53759767 147.71306366 399.51226829 141.46276851 399.47632778 135.21230721 C399.45704205 131.31341276 399.4504444 127.41457032 399.44726372 123.51563263 C399.44326839 121.71780585 399.43414364 119.9199814 399.41930008 118.12221146 C399.31120794 104.53294453 399.44620248 90.84597395 409.3828125 80.41015625 C415.90637023 74.42779053 423.15767196 71.99565672 431.98286438 72.00474548 C433.01412854 72.00336799 434.0453927 72.00199049 435.1079073 72.00057125 C436.23285697 72.00416936 437.35780664 72.00776747 438.5168457 72.01147461 C439.72673503 72.01135407 440.93662436 72.01123354 442.18317699 72.01110935 C446.09739715 72.01185541 450.01156962 72.01946972 453.92578125 72.02734375 C456.3432208 72.02881412 458.76066066 72.02983425 461.17810059 72.03039551 C470.13957191 72.03563738 479.10103643 72.04959858 488.0625 72.0625 C518.1028125 72.0934375 518.1028125 72.0934375 548.75 72.125 C549.08 149.015 549.41 225.905 549.75 305.125 C554.38109492 306.97743797 555.79334076 307.35652265 560.4375 306.875 C561.39011719 306.78734375 562.34273437 306.6996875 563.32421875 306.609375 C565.92075419 306.32421771 565.92075419 306.32421771 567.75 304.125 C568.08159802 301.08074531 568.08159802 301.08074531 568.06388855 297.42910767 C568.0734384 296.73169169 568.08298826 296.03427572 568.0928275 295.31572592 C568.12247718 292.9639048 568.13778536 290.61220916 568.15307617 288.26025391 C568.17100787 286.57661478 568.18974056 284.89298402 568.20921516 283.20936203 C568.25971389 278.6016843 568.29723806 273.99397963 568.33223367 269.38616133 C568.36342758 265.47992269 568.40196868 261.57376955 568.44035 257.66759598 C568.71824734 229.19550731 568.8372266 200.72282806 568.91727304 172.24959469 C568.92862835 168.27752785 568.94090088 164.30546407 568.95318401 160.33340001 C568.96850251 155.36159067 568.9832714 150.38977973 568.99804688 145.41796875 C569.00100399 144.43680887 569.00396111 143.45564898 569.00700784 142.44475698 C569.04022676 131.32498561 569.06577727 120.205267 569.07592773 109.08544922 C569.0843183 99.9814998 569.1067436 90.87770234 569.1452834 81.7738291 C569.16480957 77.0311488 569.17752312 72.28869398 569.17244911 67.54597092 C569.16779296 63.15344969 569.18165928 58.76137051 569.20946121 54.36893845 C569.21632318 52.77468314 569.21655407 51.18038163 569.20926094 49.58612823 C569.15484991 36.35503517 570.72603378 23.49206817 579.75 13.125 C588.8843685 3.9906315 601.9379561 2.0297182 614.34843445 1.98605347 C615.29950577 1.9880777 616.25057709 1.99010193 617.23046875 1.9921875 C618.2385408 1.99123077 619.24661285 1.99027405 620.28523254 1.98928833 C622.41924095 1.98860951 624.55325145 1.99044301 626.68725586 1.99462891 C629.88204874 1.99990837 633.07669627 1.99471188 636.27148438 1.98828125 C646.14695318 1.98439946 656.00546933 2.08528829 665.87109375 2.55078125 C666.67169724 2.58690521 667.47230072 2.62302917 668.29716492 2.6602478 C678.91560718 3.22977474 687.8736599 5.02185339 695.4375 12.9375 C700.65513883 20.12938055 701.88332838 27.07481213 701.85743046 35.78227043 C701.85689593 36.42908712 701.8563614 37.07590382 701.85581067 37.74232101 C701.852786 39.90653129 701.84252422 42.07064547 701.83229065 44.23483276 C701.82859525 45.80330947 701.82534638 47.37178729 701.82250541 48.94026577 C701.81341112 53.24792782 701.79798152 57.55554749 701.78152263 61.86318684 C701.76487845 66.50933185 701.75410225 71.15549089 701.74261475 75.801651 C701.72191001 83.85065796 701.69748433 91.89964673 701.67053413 99.9486351 C701.631574 111.58613358 701.5982213 123.22364282 701.56623887 134.86116232 C701.51419764 153.74208974 701.45761903 172.62300073 701.39819336 191.50390625 C701.34047522 209.8453711 701.28489007 228.18684036 701.23217773 246.52832031 C701.22730316 248.22406279 701.22730316 248.22406279 701.2223301 249.95406269 C701.20604045 255.62540178 701.18979278 261.296741 701.17356598 266.96808028 C701.03888587 314.02040712 700.89684472 361.07270966 700.75 408.125 C668.86933827 411.59851627 636.97326829 411.58712786 604.94781842 411.58689142 C596.94932516 411.58746756 588.95089214 411.60565618 580.95242346 411.62407071 C565.29371996 411.65957966 549.63503056 411.67865564 533.97629328 411.69057711 C520.28454002 411.70107115 506.59280901 411.71752582 492.90106964 411.73969078 C491.98853242 411.74116116 491.07599521 411.74263154 490.13580535 411.74414647 C486.43059851 411.75012711 482.72539172 411.75613817 479.020185 411.76219289 C444.37217329 411.81874745 409.7241603 411.85897081 375.07611831 411.89117835 C344.33652832 411.91983953 313.59698053 411.96107177 282.85742188 412.01342773 C274.97219729 412.0268435 267.08697269 412.04025123 259.20174789 412.05354786 C257.74529023 412.05600498 257.74529023 412.05600498 256.25940917 412.05851174 C230.50559499 412.10178186 204.75176849 412.13548332 178.99793649 412.16615504 C176.2263743 412.16946417 173.45481212 412.17277514 170.68324994 412.17608971 C168.84499288 412.17828601 167.0067358 412.18047487 165.16847872 412.18265621 C152.38159412 412.19790739 139.59471978 412.21686368 126.80784429 412.2383885 C110.34093913 412.26610011 93.874048 412.28720058 77.40712151 412.29671214 C68.71017945 412.30192749 60.01328614 412.31260315 51.31636248 412.33134662 C45.49760831 412.34331663 39.67887815 412.34783518 33.86011195 412.34645568 C30.55208664 412.34587053 27.24421664 412.34945092 23.93619773 412.35984788 C-24.20096772 412.50410428 -24.20096772 412.50410428 -39 398.46484375 C-49.50746156 386.93290469 -50.71098781 371.80787526 -50.63095093 356.80429077 C-50.6344175 355.41894846 -50.63918871 354.03360892 -50.64513266 352.64827502 C-50.65753494 348.88346915 -50.65152214 345.11889448 -50.64217401 341.35408831 C-50.63533927 337.27770536 -50.64588641 333.20136002 -50.65411377 329.12498474 C-50.66740572 321.15650484 -50.6645939 313.18811003 -50.65587585 305.21962689 C-50.64908271 298.74074705 -50.6481896 292.26189096 -50.6514473 285.78300858 C-50.651907 284.85862409 -50.65236669 283.93423961 -50.65284032 282.98184348 C-50.65379956 281.10361872 -50.6547722 279.22539398 -50.6557581 277.34716924 C-50.66429845 259.76415736 -50.65449867 242.18119252 -50.638357 224.59818836 C-50.6249506 209.528326 -50.6272872 194.45853298 -50.64111328 179.38867188 C-50.65718539 161.86267539 -50.66347928 144.33672005 -50.65427649 126.81071723 C-50.6533209 124.94026479 -50.65237779 123.06981234 -50.6514473 121.19935989 C-50.65098447 120.27920133 -50.65052164 119.35904276 -50.65004479 118.4110006 C-50.64746013 111.94281737 -50.65181449 105.47466034 -50.65888596 99.00648117 C-50.6673191 91.11993811 -50.66498258 83.23348458 -50.64904372 75.34695171 C-50.64118605 71.32718878 -50.63802648 67.30757485 -50.64799118 63.28781319 C-50.65699056 59.60159758 -50.65191996 55.91566784 -50.63605852 52.22947784 C-50.63116852 50.2785514 -50.64085996 48.32760481 -50.65123022 46.37669981 C-50.56468155 33.29804058 -48.08886408 21.25090423 -39.0625 11.375 C-28.36773645 1.33264033 -13.97647699 -0.07085514 0 0 Z M-24.1875 28 C-29.94184496 36.71870449 -29.39664443 45.86826202 -29.38371277 55.98304749 C-29.38597833 57.28180374 -29.38824388 58.58056 -29.39057809 59.9186725 C-29.39668091 63.51293691 -29.39656428 67.10717801 -29.39538372 70.70144641 C-29.39517932 74.58233997 -29.40070229 78.46322612 -29.40544128 82.34411621 C-29.41374074 89.94455907 -29.41649583 97.54499417 -29.41705366 105.14544118 C-29.41752928 111.32698243 -29.41958634 117.50852113 -29.42275429 123.69006157 C-29.43155997 141.23045811 -29.43617395 158.77084853 -29.43542381 176.3112473 C-29.43538386 177.25646293 -29.4353439 178.20167857 -29.43530273 179.17553711 C-29.43526185 180.12191236 -29.43522097 181.06828762 -29.43517885 182.04334091 C-29.4347727 197.36881604 -29.44433462 212.69426656 -29.4584411 228.01973457 C-29.47282381 243.77013837 -29.4797102 259.52053019 -29.47884732 275.27094072 C-29.47851595 284.1077166 -29.48123694 292.9444667 -29.49202538 301.78123665 C-29.50115547 309.30774803 -29.50328519 316.83422196 -29.49651595 324.3607365 C-29.493263 328.19637546 -29.49314941 332.03194267 -29.5018692 335.86757469 C-29.51125152 340.03779242 -29.50492605 344.20784581 -29.49723816 348.37806702 C-29.50238172 349.5737249 -29.50752529 350.76938279 -29.51282471 352.00127274 C-29.77677492 369.27994671 -29.77677492 369.27994671 -22.25 384.125 C-14.06998927 390.89747771 -2.91117043 390.41169426 7.11012268 390.35899353 C8.46253655 390.35913546 9.81495057 390.36015766 11.16736323 390.36197323 C14.89174947 390.36440513 18.61601223 390.35428939 22.34037557 390.3421441 C26.4179136 390.33107685 30.49545313 390.33172159 34.57300377 390.33082008 C41.7668125 390.32758703 48.96057946 390.31675855 56.15437126 390.3010273 C66.9323811 390.27746286 77.71038332 390.2652601 88.48841307 390.25513002 C108.20906214 390.23615271 127.92967922 390.20490575 147.65030412 390.16912999 C165.99479014 390.1359009 184.33927785 390.10737684 202.68377686 390.08233643 C207.81208485 390.0752987 212.94039282 390.06824963 218.06870079 390.06119728 C219.35086036 390.05943517 220.63301994 390.05767306 221.95403283 390.05585755 C274.77994949 389.9830129 327.60581445 389.89022356 380.43167686 389.78562355 C381.81683087 389.78288221 383.20198487 389.7801411 384.58713887 389.77740022 C385.61651172 389.77536329 385.61651172 389.77536329 386.66667999 389.77328522 C389.4432785 389.76779172 392.21987702 389.76230074 394.99647555 389.75681018 C396.38641635 389.75406031 397.77635715 389.75130821 399.16629794 389.74855389 C421.89423354 389.70351764 444.62217416 389.66263879 467.3501215 389.62401587 C491.80996047 389.58243503 516.26979041 389.53733131 540.72961527 389.48812145 C553.91322003 389.46166111 567.09682432 389.43675344 580.28043938 389.41592598 C591.36526616 389.39839919 602.45008038 389.37755961 613.53489243 389.35233159 C619.1658385 389.33961428 624.79677599 389.32846333 630.42773247 389.32158089 C635.5783622 389.3152483 640.72896207 389.30438894 645.87957532 389.2899667 C647.73646867 389.28555405 649.59336681 389.2827766 651.45026516 389.28183801 C660.93416635 389.27612663 670.30809309 389.1541133 679.75 388.125 C679.79574043 342.4415923 679.83100037 296.75818702 679.85213066 251.07476095 C679.85463218 245.68598969 679.85722082 240.29721847 679.85986328 234.90844727 C679.8603879 233.83560349 679.86091252 232.76275972 679.86145304 231.65740553 C679.87016452 214.26770233 679.88593857 196.8780123 679.90430559 179.48831692 C679.92298399 161.65557756 679.93411235 143.82284513 679.93817699 125.99009639 C679.94092633 114.97921008 679.94962151 103.96836099 679.96583293 92.95748613 C679.97637441 85.41516961 679.97960709 77.87287244 679.97700275 70.33054908 C679.97571702 65.9738036 679.97773943 61.61712333 679.98841095 57.26038933 C679.99809902 53.27623699 679.99866405 49.29219413 679.99179779 45.3080369 C679.99094839 43.86249964 679.99352304 42.41695572 679.99976636 40.97143169 C680.00773052 39.01456346 680.00229732 37.05765414 679.99609566 35.10077953 C679.9968551 34.01136191 679.99761454 32.92194428 679.99839699 31.799514 C679.94275093 28.89913443 679.94275093 28.89913443 677.75 26.125 C670.14224143 23.20228905 661.27185739 23.81861697 653.2734375 23.82421875 C651.89441807 23.82032118 650.51539981 23.81598437 649.13638306 23.81123352 C646.26373376 23.8038221 643.3912075 23.80402678 640.51855469 23.80932617 C636.85599742 23.81513571 633.19394343 23.79812985 629.53146935 23.7749815 C626.6899832 23.7601865 623.84861699 23.75937988 621.00709915 23.76249123 C619.00644957 23.76173593 617.00581844 23.74792503 615.00521851 23.73381042 C608.22534024 23.7681881 602.85180855 24.05307706 596.75 27.125 C589.68250338 34.93644363 590.47978503 45.72480907 590.56896782 55.61255074 C590.59077141 58.03673383 590.59996041 60.46072469 590.60670471 62.88499451 C590.61818707 66.51050967 590.6351666 70.13594162 590.65625 73.76141357 C590.71439915 84.02965729 590.72996148 94.29802527 590.74609375 104.56640625 C590.74813686 105.70339462 590.75017998 106.840383 590.752285 108.01182556 C590.80992185 143.46817619 590.51808761 178.92359068 590.26842737 214.3788209 C590.23774801 218.74277011 590.2073779 223.10672148 590.17697144 227.47067261 C590.16493926 229.19508268 590.15290485 230.91949274 590.14086819 232.64390278 C590.11730504 236.01975645 590.09377409 239.39561034 590.07026005 242.77146435 C590.02066239 249.88237847 589.97082659 256.99328981 589.91869599 264.10418588 C589.8976475 266.98328539 589.8769986 269.86238769 589.85640538 272.74149048 C589.8424753 274.66743283 589.82798224 276.59337107 589.81346035 278.51930904 C589.80504651 279.70112035 589.79663267 280.88293165 589.78796387 282.10055542 C589.77885483 283.24670193 589.76974579 284.39284843 589.76036072 285.57372665 C589.75303527 288.08461939 589.76659866 290.59561407 589.79493713 293.10635757 C589.81432594 295.07783579 589.81432594 295.07783579 589.83410645 297.08914185 C589.85161201 298.27123293 589.86911758 299.45332401 589.88715363 300.67123604 C589.56267964 308.84204863 587.57704874 315.96650485 581.625 321.75 C571.97864245 329.13670998 560.44902154 329.25619616 548.75 328.125 C541.60871051 326.80469183 536.90065651 324.11589148 532.1875 318.61328125 C528.38783601 312.03614548 527.30600171 305.45137336 527.35127258 297.95640564 C527.34462576 297.07891916 527.33797893 296.20143269 527.33113068 295.29735571 C527.3126025 292.38162877 527.31509908 289.46631588 527.31762695 286.55053711 C527.30860358 284.45070826 527.29827495 282.35088468 527.28674316 280.25106812 C527.25921476 274.56788402 527.24989425 268.88479999 527.24388909 263.20155787 C527.23449465 257.25579679 527.20829035 251.31011014 527.18388367 245.36439514 C527.14024452 234.11305685 527.11168163 222.86173301 527.08856028 211.61033589 C527.06149481 198.79775245 527.01758408 185.98524398 526.97227156 173.17271411 C526.87946226 146.82351674 526.80776446 120.47429586 526.75 94.125 C514.61496531 93.94780015 502.47983357 93.78186092 490.34445095 93.63022423 C484.70927728 93.55945805 479.07420989 93.48484036 473.43920898 93.40136719 C467.99931302 93.32092677 462.55937144 93.25067337 457.11924934 93.18742752 C455.04562612 93.16154005 452.97204505 93.13200623 450.89852715 93.09873581 C447.990241 93.05269918 445.08207392 93.01972757 442.17358398 92.98974609 C441.31978149 92.9732048 440.465979 92.95666351 439.58630371 92.93962097 C434.02926581 92.9002986 428.52312741 93.09137323 423.875 96.5 C421.09395083 100.51707103 421.60525186 105.31148891 421.61196899 110.01087952 C421.60914771 110.81099581 421.60632643 111.6111121 421.60341966 112.43547434 C421.59507872 115.11983448 421.59373582 117.80415335 421.59228516 120.48852539 C421.58761644 122.4121309 421.58247278 124.33573531 421.57688904 126.25933838 C421.56560826 130.40465758 421.55717385 134.54996959 421.55076981 138.69529915 C421.54008491 145.25583188 421.51983749 151.81631313 421.49765015 158.3768158 C421.43574636 177.03365717 421.38175613 195.69049582 421.34863281 214.34741211 C421.33026247 224.6493964 421.30129451 234.95129469 421.2606281 245.25321573 C421.23959546 250.70237686 421.22410616 256.15142977 421.22182083 261.60063362 C421.21966655 266.73148856 421.2037177 271.86211837 421.17743111 276.99290466 C421.17026583 278.87012934 421.16812361 280.74738137 421.17153358 282.62461662 C421.19238493 296.29266209 420.90295314 309.13798516 411.22265625 319.80859375 C401.81968054 328.68057789 390.08216437 329.27549719 377.82049561 329.25871277 C376.60960966 329.26097833 375.39872372 329.26324388 374.15114427 329.26557809 C370.7977213 329.27080849 367.44435201 329.27156379 364.09092879 329.27038372 C360.47117337 329.27017943 356.8514259 329.27570116 353.23167419 329.28044128 C346.1424483 329.28874258 339.05323072 329.2914959 331.96400037 329.29205366 C326.20002096 329.29252911 320.43604428 329.29458528 314.67206573 329.29775429 C298.32292393 329.30655974 281.97378868 329.31117388 265.62464449 329.31042381 C264.74352646 329.31038386 263.86240842 329.3103439 262.95458984 329.31030273 C262.07239337 329.31026185 261.1901969 329.31022097 260.2812672 329.31017885 C245.98766971 329.3097725 231.69409859 329.31933959 217.40050873 329.3334411 C202.71688748 329.34781284 188.03327908 329.35471083 173.34965062 329.35384732 C165.10878845 329.35351561 156.86795391 329.35625138 148.62709808 329.36702538 C141.60988866 329.37614091 134.59271939 329.37829701 127.5755066 329.37151595 C123.99757715 329.36825595 120.41972468 329.36817518 116.8418026 329.3768692 C112.95697929 329.38621157 109.07226778 329.3799445 105.18743896 329.37223816 C104.06504845 329.37738172 102.94265794 329.38252529 101.7862556 329.38782471 C89.55047121 329.33427408 77.50963748 327.43999663 68.24609375 318.796875 C56.95195369 306.1757472 59.34806014 285.31226234 59.44116211 269.70361328 C59.44528804 267.14313432 59.44805376 264.58265286 59.4495697 262.02217102 C59.45563943 256.53243828 59.47072069 251.04285014 59.49394035 245.55316544 C59.52735364 237.60756884 59.54196801 229.66201975 59.55179507 221.71636294 C59.5680736 208.80989813 59.59628652 195.90349074 59.63354492 182.99707031 C59.63576605 182.22653536 59.63798717 181.45600041 59.64027561 180.66211592 C59.64929181 177.53975599 59.65832768 174.41739611 59.66739174 171.29503632 C59.69225722 162.68693024 59.71470804 154.07881853 59.73608398 145.47070312 C59.73800296 144.69929863 59.73992194 143.92789414 59.74189907 143.13311376 C59.77362385 130.26406085 59.7973343 117.39500252 59.81616598 104.52592456 C59.8282173 96.60039582 59.8479694 88.67495506 59.87777246 80.74947278 C59.90015738 74.68116342 59.91255074 68.61287699 59.92133522 62.54453087 C59.92667644 60.05808065 59.93549018 57.5716351 59.94803619 55.0852108 C59.96471755 51.69055242 59.9690189 48.29609177 59.97032166 44.90139771 C59.98212972 43.42737006 59.98212972 43.42737006 59.99417633 41.92356408 C59.9811414 36.3203749 59.51915689 31.46364122 57.75 26.125 C50.42294801 20.44653471 38.09075328 21.95588447 29.27734375 21.921875 C28.11425186 21.91617493 26.95115997 21.91047485 25.75282288 21.90460205 C23.30812475 21.89520856 20.86341428 21.88864074 18.41870117 21.88476562 C14.69492595 21.87501944 10.97169393 21.84392525 7.24804688 21.8125 C4.86198241 21.80597236 2.47591404 21.80072095 0.08984375 21.796875 C-1.01351822 21.7845282 -2.11688019 21.7721814 -3.25367737 21.75946045 C-10.76899243 21.78097827 -18.88011609 22.0023731 -24.1875 28 Z " fill="#000000" transform="translate(60.25,298.875)"/>
<path d="M0 0 C0.93535043 -0.00290688 1.87070085 -0.00581376 2.83439523 -0.00880873 C5.95621901 -0.0160845 9.07784476 -0.00917661 12.19966698 -0.002285 C14.46553567 -0.0045904 16.73140361 -0.00776746 18.99726999 -0.01173949 C25.21467263 -0.02008555 31.43201383 -0.01596299 37.64941669 -0.00976706 C43.66917949 -0.00570755 49.68892947 -0.01103728 55.70868974 -0.01606179 C68.77992972 -0.026586 81.85115014 -0.02568315 94.92239198 -0.01990396 C106.36510365 -0.01486979 117.80780815 -0.01356086 129.25052071 -0.01594925 C130.38974271 -0.0161784 130.38974271 -0.0161784 131.5519793 -0.01641219 C134.63514734 -0.01703489 137.71831538 -0.01767169 140.80148341 -0.01833172 C169.72165808 -0.02444892 198.64182031 -0.01890473 227.56199306 -0.00813792 C253.2352002 0.00134743 278.9083875 0.00050876 304.58159447 -0.00905991 C333.4403404 -0.01977996 362.29907532 -0.02400931 391.15782297 -0.01783538 C394.23718412 -0.01719397 397.31654529 -0.01656829 400.39590645 -0.01594925 C401.15409544 -0.01579109 401.91228443 -0.01563294 402.69344885 -0.01546999 C414.12259393 -0.01319893 425.55173104 -0.01584848 436.98087502 -0.02090836 C449.98631047 -0.02663746 462.99172333 -0.02517497 475.99715598 -0.01434687 C482.62994011 -0.00900605 489.26269292 -0.00701547 495.8954792 -0.01364517 C501.97396798 -0.01962876 508.0523795 -0.01628982 514.13086133 -0.00569007 C516.3232948 -0.00346617 518.51573487 -0.00456946 520.70816405 -0.00944164 C544.76542826 -0.05877879 568.31902291 1.08756529 586.80669212 18.57590103 C598.1708677 31.15176577 603.2811093 46.95096879 608.45162392 62.76745224 C609.29901785 65.3589374 610.15240841 67.94838189 611.0073452 70.53738785 C612.22523278 74.22631359 613.44129759 77.91583166 614.65590477 81.60583878 C624.9040244 112.72112578 635.25013812 143.74884299 647.22466087 174.25168228 C647.47026756 174.87814651 647.71587425 175.50461075 647.96892357 176.15005875 C650.74288617 183.24120288 650.74288617 183.24120288 653.57890892 190.30759048 C660.89132885 208.46510058 662.95709545 226.6483506 656.22466087 245.25168228 C648.22895611 263.89212468 631.72972958 278.81465224 613.41216087 287.00168228 C591.90622929 295.40980779 570.12526479 293.08453904 549.22466087 284.25168228 C540.12072999 280.15896215 531.44510124 275.43049498 523.09599876 269.95773697 C519.8391443 267.86422313 519.8391443 267.86422313 516.09966087 267.22824478 C513.4574301 268.67046241 511.60783708 270.56594323 509.47466087 272.68918228 C493.47834372 287.82536419 473.94038776 295.90952207 451.95903587 295.52121353 C437.81137989 294.94171915 424.1488323 288.85600603 413.09966087 280.12668228 C412.15091087 279.50793228 411.20216087 278.88918228 410.22466087 278.25168228 C406.04357501 279.37036746 403.086546 281.72596517 399.72466087 284.37668228 C376.88362146 301.94288471 351.9126792 312.59652256 322.82866478 308.95138931 C305.38094383 305.83643345 286.43145284 297.42017423 272.50591087 286.31808853 C269.50610951 283.91295456 269.50610951 283.91295456 266.75200462 284.70090103 C265.91798119 285.21265884 265.08395775 285.72441666 264.22466087 286.25168228 C263.07094994 286.83562759 261.917239 287.41957291 260.72856712 288.02121353 C260.09450951 288.35040787 259.46045189 288.6796022 258.8071804 289.01877213 C235.77027784 300.94093997 210.24071933 305.96706508 184.75444603 298.59103775 C173.13830774 294.84134729 162.51798935 288.71615131 152.22466087 282.25168228 C151.74746605 282.63388931 151.27027122 283.01609634 150.77861595 283.40988541 C141.2675688 290.9977219 131.87217223 298.30754315 121.22466087 304.25168228 C120.35583275 304.74152603 119.48700462 305.23136978 118.59184837 305.73605728 C104.34396256 313.32897449 89.01046235 314.50505537 73.58794212 309.89621353 C61.55284382 305.59570999 49.7100056 299.67382332 38.81450462 293.02121353 C37.98144798 292.51340347 37.14839134 292.00559341 36.29009056 291.48239517 C34.76489828 290.53267329 33.254556 289.55841952 31.76469994 288.55417252 C24.70472316 284.10335343 17.98877998 284.31780565 9.9465847 285.89426041 C6.53448638 286.72953051 3.16285833 287.65503664 -0.21283913 288.62668228 C-25.02967299 295.62374948 -51.1710885 298.48369327 -74.51923561 285.52707291 C-80.44245802 282.03991815 -85.70075592 277.88285531 -90.77533913 273.25168228 C-91.81561256 272.31582291 -91.81561256 272.31582291 -92.87690163 271.36105728 C-108.78589881 256.27603206 -119.73594162 237.47419703 -120.40033913 215.25168228 C-120.53965954 201.47955685 -115.99140094 189.08825912 -111.47779274 176.25973892 C-110.54354967 173.58908143 -109.63359913 170.91040221 -108.72262001 168.23173904 C-99.85201863 142.19402513 -90.19019679 116.42584614 -80.62381935 90.63824844 C-78.20137482 84.10758762 -75.78897586 77.57343939 -73.39170265 71.03349686 C-72.04510366 67.36416766 -70.69067876 63.69776404 -69.33411598 60.03210831 C-68.72378484 58.37818232 -68.11659319 56.72309351 -67.51294899 55.06671524 C-59.88436791 34.15241834 -50.46758349 15.63653505 -29.40424538 5.65402603 C-19.73555811 1.74783082 -10.40180041 -0.05719558 0 0 Z M-21.21283913 26.12668228 C-22.16030006 26.61910416 -23.107761 27.11152603 -24.08393288 27.61886978 C-42.45827915 38.76615097 -47.98070892 64.86704144 -54.83783913 83.87668228 C-56.10521233 87.37266759 -57.37429971 90.86802773 -58.6434269 94.36337662 C-59.48992994 96.69526174 -60.33580881 99.02737354 -61.18105507 101.35971451 C-64.49483423 110.49965658 -67.8628299 119.61864988 -71.24650002 128.73288345 C-76.06039678 141.71428797 -80.76976798 154.73106127 -85.36551857 167.79135513 C-85.95642975 169.47047603 -86.5486599 171.14913355 -87.14243507 172.8272438 C-90.30974672 181.79081734 -93.34541601 190.79469968 -96.18158913 199.86886978 C-96.44274513 200.67446335 -96.70390114 201.48005692 -96.97297096 202.31006241 C-100.29296999 213.17650103 -98.81157072 223.74226977 -94.27533913 234.12668228 C-85.84568963 249.62426867 -71.46114291 264.63948641 -54.77533913 270.68918228 C-34.71953106 276.52690132 -15.10462237 270.37333344 4.3347683 264.97604752 C9.58897722 263.65905521 14.62415152 263.07458476 20.03716087 263.00168228 C21.74839134 262.96301041 21.74839134 262.96301041 23.49419212 262.92355728 C32.04020356 263.67524834 38.73535783 267.46023886 45.97466087 271.81418228 C71.11030987 287.67729504 71.11030987 287.67729504 99.50981712 290.14621353 C116.45899299 284.56152105 130.66073787 271.6224672 144.14946556 260.33932877 C144.76080345 259.83087418 145.37214134 259.32241959 146.00200462 258.79855728 C146.53043968 258.35350845 147.05887474 257.90845963 147.60332298 257.44992447 C149.38786317 256.13106839 151.2176929 255.18992006 153.22466087 254.25168228 C154.1450515 255.02511978 155.06544212 255.79855728 156.01372337 256.59543228 C174.25120532 271.70016979 193.78293058 282.36577962 218.22466087 280.25168228 C233.66130582 277.96683592 247.26426565 271.38180899 259.94731712 262.52121353 C262.65628232 260.64527935 265.37655696 258.90455166 268.22466087 257.25168228 C268.77702415 257.6286525 269.32938744 258.00562271 269.898489 258.39401627 C304.29332483 282.79980068 304.29332483 282.79980068 344.83403587 287.63058853 C367.25590013 282.99416542 386.74612352 268.61648599 403.30669212 253.32980728 C405.16216087 251.62668228 405.16216087 251.62668228 408.22466087 249.25168228 C411.80207634 249.4986439 413.28868907 251.09064611 415.59966087 253.68918228 C426.4854424 264.91830014 440.27180232 273.7058219 456.26762962 274.37668228 C480.19897718 273.36505332 496.68581141 255.20987101 512.22466087 239.25168228 C520.11491696 242.89718035 527.52725087 247.16219393 534.97466087 251.62668228 C554.5722176 263.29823366 573.51796424 273.61478335 597.13481712 269.77902603 C599.62612117 269.11967932 601.86884913 268.29428815 604.22466087 267.25168228 C605.09091087 266.87269791 605.95716087 266.49371353 606.84966087 266.10324478 C618.27068479 260.49007109 627.88803537 251.26576114 634.22466087 240.25168228 C634.65649681 239.50918228 635.08833275 238.76668228 635.53325462 238.00168228 C640.18061245 228.4818351 639.71932197 216.8498345 636.39287376 206.98334122 C636.13884789 206.27009689 635.88482201 205.55685257 635.62309837 204.82199478 C635.22296532 203.66209534 635.22296532 203.66209534 634.81474876 202.47876358 C632.11851208 194.75481895 629.15878603 187.13337333 626.16423607 179.52127457 C616.06924708 153.79328295 607.03291733 127.73067374 598.29887962 101.51340103 C597.98034838 100.55732956 597.98034838 100.55732956 597.65538216 99.58194351 C595.33027241 92.60073454 593.01337841 85.61689742 590.70805931 78.62912369 C590.11901566 76.84898628 590.11901566 76.84898628 589.51807213 75.03288651 C588.78622981 72.82070297 588.05683285 70.60770807 587.33054161 68.39369583 C579.63463467 43.97545703 579.63463467 43.97545703 561.47466087 27.00168228 C550.16746571 22.0552433 539.09696631 21.81633435 526.99977684 21.85295486 C525.16439976 21.84750785 523.32902617 21.84075316 521.49365819 21.83281296 C516.47256363 21.8148471 511.45161745 21.81533788 506.43049836 21.81894243 C501.00151026 21.81956808 495.57257115 21.80292411 490.14360619 21.78842545 C480.72474745 21.76563114 471.30592567 21.75375116 461.88704109 21.74929619 C448.17108042 21.74279662 434.45518522 21.71977751 420.73925103 21.69295289 C398.35435187 21.64963252 375.9694527 21.61969382 353.58452415 21.59811783 C332.0675819 21.57734947 310.55066544 21.55017357 289.0337429 21.51413345 C287.06273539 21.51083522 287.06273539 21.51083522 285.05190955 21.50747035 C279.76324746 21.49859232 274.47458546 21.48966349 269.18592357 21.48066856 C235.1049237 21.42273006 201.02391534 21.36936827 166.94289207 21.32719803 C165.78095154 21.325756 164.619011 21.32431397 163.42186014 21.32282824 C150.94276738 21.30752883 138.46367683 21.29452339 125.98457718 21.28646183 C122.71080955 21.28428309 119.43704194 21.28209257 116.16327433 21.27988542 C114.00678881 21.27844195 111.85030326 21.2770393 109.69381769 21.27567821 C95.59694111 21.2663128 81.50023479 21.23859199 67.40342557 21.19425875 C59.99898289 21.1712155 52.59453015 21.15489647 45.19006596 21.14054012 C39.30446577 21.12861652 33.41897942 21.10828611 27.5334304 21.08123705 C23.94752939 21.06688703 20.36165095 21.06097754 16.7757245 21.05744721 C15.13666059 21.05414043 13.49759904 21.047398 11.85856619 21.03677867 C-5.21469752 20.8241326 -5.21469752 20.8241326 -21.21283913 26.12668228 Z " fill="#000000" transform="translate(119.77533912658691,-0.2516822814941406)"/>
<path d="M0 0 C2.35511409 -0.00200044 4.71021938 -0.00573058 7.06533051 -0.00990677 C36.41024901 -0.04909635 65.70514983 0.579427 95.05464935 1.12293625 C95.05464935 56.56293625 95.05464935 112.00293625 95.05464935 169.12293625 C48.84498156 169.16323928 48.84498156 169.16323928 29.41207123 169.17176437 C16.01875677 169.17768728 2.62544861 169.1846327 -10.76786041 169.1983757 C-20.52413487 169.20838189 -30.28040418 169.21480374 -40.03668362 169.21702474 C-45.19656293 169.21832182 -50.35642754 169.22134356 -55.51630211 169.22866631 C-60.38602352 169.23552042 -65.25572435 169.23753437 -70.12545013 169.23604393 C-71.90018641 169.23631608 -73.67492347 169.23826494 -75.44965553 169.24214172 C-84.09697357 169.26008359 -92.72100867 169.17151698 -101.35759735 168.70959091 C-102.05738628 168.67498483 -102.75717521 168.64037874 -103.47816986 168.60472399 C-112.7927086 168.03773653 -117.53678654 164.17763298 -123.83597565 157.55262375 C-131.04586775 149.24789617 -135.12213946 140.63306104 -136.11722565 129.68153 C-136.19680511 128.8391629 -136.27638458 127.99679581 -136.35837555 127.12890244 C-137.39086781 114.64297978 -137.24539273 102.08892213 -137.20609283 89.56946945 C-137.19470978 85.92130136 -137.20148414 82.27342518 -137.21294785 78.62526703 C-137.24755589 65.75308725 -137.2646897 52.88157839 -136.13285065 40.0487175 C-136.06583954 39.23999695 -135.99882843 38.4312764 -135.92978668 37.59804916 C-134.85193465 27.31132474 -129.77818406 16.98983729 -121.94535065 10.12293625 C-110.28050944 1.07262841 -99.7687759 1.04632406 -85.39066315 0.80653 C-84.28887726 0.78565826 -83.18709137 0.76478653 -82.05191803 0.74328232 C-78.39146777 0.67671458 -74.73095798 0.61768759 -71.07035065 0.56043625 C-69.78747162 0.53958969 -68.50459259 0.51874313 -67.18283844 0.49726486 C-44.78919792 0.14272196 -22.39628594 0.01472764 0 0 Z M-79.10625458 22.14529419 C-83.01853248 22.16960354 -86.92924038 22.239863 -90.84085846 22.31653976 C-91.99885326 22.32187949 -93.15684807 22.32721922 -94.34993362 22.33272076 C-100.67114034 22.43877618 -100.67114034 22.43877618 -106.03391266 25.51317978 C-106.66468719 26.37439941 -107.29546173 27.23561905 -107.94535065 28.12293625 C-108.83222565 28.96856125 -109.71910065 29.81418625 -110.63285065 30.68543625 C-119.73171351 42.03762251 -116.11077472 68.69448341 -116.07572174 82.60242844 C-116.0703519 85.12234633 -116.07571832 87.6420861 -116.0820694 90.16199875 C-117.60144529 118.50313206 -117.60144529 118.50313206 -106.94535065 143.12293625 C-106.38803946 143.80661302 -105.83072826 144.49028978 -105.25652885 145.19468403 C-102.18266095 147.75926022 -100.30768049 147.66061252 -96.33368683 147.72887802 C-95.67951711 147.74519417 -95.0253474 147.76151033 -94.35135436 147.77832091 C-92.18678379 147.82704862 -90.02296419 147.84729863 -87.8579483 147.86683273 C-86.32456016 147.89438715 -84.79119669 147.92334714 -83.25786018 147.95363903 C-78.48718862 148.03999313 -73.71661863 148.08502383 -68.94535065 148.12293625 C-67.49203994 148.13624151 -66.03872929 148.14955333 -64.5854187 148.16287231 C-55.26420165 148.24157432 -45.94355916 148.24233085 -36.62209654 148.22433019 C-32.7051612 148.21790424 -28.78822428 148.21747817 -24.87128448 148.21630478 C-17.51651294 148.21324633 -10.16175698 148.20511033 -2.80699217 148.19495529 C7.1756766 148.18148301 17.15834991 148.17624973 27.14102554 148.17045307 C42.77891173 148.16116395 58.41676509 148.14120955 74.05464935 148.12293625 C74.05464935 106.54293625 74.05464935 64.96293625 74.05464935 22.12293625 C48.25582274 22.09373033 48.25582274 22.09373033 22.4569931 22.07410812 C11.91353104 22.06820905 1.37007705 22.06133222 -9.17337799 22.0474968 C-16.85723956 22.03741876 -24.54109448 22.03105219 -32.22496247 22.02884775 C-36.28022223 22.02756252 -40.33546299 22.0246199 -44.39071655 22.01720619 C-53.8906675 22.00080446 -63.3893412 22.02033821 -72.88895226 22.10591269 C-74.9613795 22.12306894 -77.03378581 22.13442298 -79.10625458 22.14529419 Z " fill="#000000" transform="translate(305.94535064697266,371.8770637512207)"/>
</svg>
