<?xml version="1.0" encoding="UTF-8"?>
<svg version="1.1" xmlns="http://www.w3.org/2000/svg" width="512" height="512">
<path d="M0 0 C1.99438477 1.00878906 1.99438477 1.00878906 3.94140625 2.265625 C4.67891113 2.73645508 5.41641602 3.20728516 6.17626953 3.69238281 C6.96372559 4.20639648 7.75118164 4.72041016 8.5625 5.25 C9.39894043 5.7872168 10.23538086 6.32443359 11.09716797 6.87792969 C13.737051 8.57679118 16.369267 10.28701014 19 12 C20.60540683 13.04176209 22.21087403 14.08343116 23.81640625 15.125 C26.24363396 16.7013728 28.66984442 18.27924887 31.09399414 19.86035156 C37.87133871 24.27908377 44.6814514 28.64517465 51.5 33 C59.82554465 38.31815145 68.1269648 43.67059006 76.40234375 49.06640625 C83.07847966 53.41390595 89.7860353 57.71120073 96.5 62 C104.82549701 67.31822658 113.12696415 72.67058964 121.40234375 78.06640625 C128.07848016 82.41390628 134.78606659 86.71115095 141.5 91 C149.4137733 96.05597121 157.31447543 101.13076878 165.1875 106.25 C165.99445313 106.77464844 166.80140625 107.29929687 167.6328125 107.83984375 C169.75729217 109.22347922 171.88129624 110.60753471 174 112 C175.01885096 112.51204105 176.03770191 113.02408211 177.08742714 113.55163956 C180 116 180 116 180.73828697 119.81869125 C180.76349905 121.40137715 180.75537505 122.98479702 180.7215271 124.56732178 C180.72665365 125.44053613 180.7317802 126.31375048 180.7370621 127.21342587 C180.74696117 130.14530932 180.7139211 133.07514172 180.68115234 136.00683594 C180.67946027 138.10592093 180.68040918 140.20500948 180.68380737 142.30409241 C180.685532 148.00852886 180.65020564 153.7122115 180.60836363 159.41647243 C180.57090784 165.37553036 180.56733532 171.33460473 180.56021118 177.29376221 C180.54154724 188.58086482 180.49228896 199.86761961 180.43211424 211.15456891 C180.35257155 226.40473635 180.32013506 241.65499862 180.28510094 256.90532112 C180.22864798 280.93714139 180.1091251 304.96822757 180 329 C142.38 329 104.76 329 66 329 C66 266.3 66 203.6 66 139 C20.46 139 -25.08 139 -72 139 C-72 201.7 -72 264.4 -72 329 C-109.62 329 -147.24 329 -186 329 C-186.80606068 276.10898476 -186.80606068 276.10898476 -186.9765625 253.91992188 C-187.09517651 238.60662669 -187.23449383 223.29553459 -187.50878906 207.98413086 C-187.70848127 196.83179356 -187.83724125 185.68124533 -187.8817699 174.52716988 C-187.90779369 168.62293346 -187.96867281 162.72381358 -188.11460114 156.82122231 C-188.25104378 151.2568933 -188.29211591 145.6997503 -188.26215363 140.13390732 C-188.26762783 138.0990841 -188.30705821 136.06400516 -188.3841095 134.03063393 C-188.83422004 121.53246856 -188.83422004 121.53246856 -186 116 C-181.10396297 110.77980702 -174.82627824 107.51200765 -168.5050807 104.31249082 C-164.77142815 102.35631244 -161.30337247 100.04204551 -157.8125 97.6875 C-149.70762716 92.43804682 -141.56748305 87.24381367 -133.4309082 82.04370117 C-126.13102331 77.37435574 -118.8571587 72.66700375 -111.59838867 67.93408203 C-103.85386496 62.89081226 -96.06574567 57.91654299 -88.27734375 52.94140625 C-81.8332669 48.82194117 -75.40667936 44.67736329 -69 40.5 C-61.52550292 35.62638483 -54.01967334 30.80360201 -46.5 26 C-38.64975088 20.98416221 -30.81096749 15.95183232 -23 10.875 C-22.21818359 10.36710938 -21.43636719 9.85921875 -20.63085938 9.3359375 C-19.88642578 8.85125 -19.14199219 8.3665625 -18.375 7.8671875 C-17.65570313 7.40280273 -16.93640625 6.93841797 -16.1953125 6.45996094 C-14.64602741 5.42963122 -13.12179531 4.36114208 -11.6171875 3.26660156 C-10.83601562 2.70682617 -10.05484375 2.14705078 -9.25 1.5703125 C-8.55390625 1.05484863 -7.8578125 0.53938477 -7.140625 0.00830078 C-4.30723772 -1.32631253 -2.94537686 -0.95251534 0 0 Z " fill="#1D95CB" transform="translate(259,151)"/>
<path d="M0 0 C2.21557617 1.11645508 2.21557617 1.11645508 4.29296875 2.51953125 C5.07784668 3.04087646 5.86272461 3.56222168 6.67138672 4.09936523 C7.91686279 4.94736694 7.91686279 4.94736694 9.1875 5.8125 C10.9849118 7.00896296 12.78310731 8.2042493 14.58203125 9.3984375 C15.48904785 10.00397461 16.39606445 10.60951172 17.33056641 11.23339844 C21.30615526 13.86439907 25.33639493 16.40470667 29.375 18.9375 C30.94939776 19.92810097 32.5236138 20.9189908 34.09765625 21.91015625 C35.29285889 22.66256592 35.29285889 22.66256592 36.51220703 23.43017578 C40.95353211 26.23269985 45.38284993 29.05407195 49.8125 31.875 C50.72926514 32.45870361 51.64603027 33.04240723 52.59057617 33.64379883 C56.3311635 36.02577815 60.07133249 38.40841396 63.81152344 40.79101562 C74.13492365 47.36665864 84.46445981 53.93196253 94.81713867 60.46142578 C101.82659946 64.88468013 108.81799422 69.33607977 115.80859375 73.7890625 C121.69766667 77.53890697 127.59478596 81.27563229 133.5 85 C141.28298144 89.90865946 149.04777456 94.84545306 156.80859375 99.7890625 C162.6976669 103.53890712 168.59481615 107.27558418 174.5 111 C182.20201583 115.8583814 189.89131811 120.73644444 197.5690918 125.63305664 C202.35992086 128.68797421 207.15751755 131.73120399 211.96875 134.75390625 C213.43671021 135.67937256 213.43671021 135.67937256 214.93432617 136.62353516 C216.78887716 137.79236321 218.6456484 138.95767952 220.50512695 140.11865234 C235.43359664 149.54671288 247.44635653 159.89428803 251.62280273 177.85791016 C254.16500883 192.29500805 252.00971188 206.65443412 243.8125 218.875 C235.79828764 229.72318548 235.79828764 229.72318548 230 232 C225.24302967 231.03697204 221.60223532 228.61769871 217.6875 225.875 C210.8133217 221.17718885 203.8345971 216.66089903 196.8125 212.1875 C189.18748852 207.32308242 181.57546036 202.4412574 174 197.5 C166.52559452 192.62624684 159.01970008 187.80355614 151.5 183 C141.3861184 176.53861022 131.31083105 170.02057265 121.25537109 163.46875 C109.68526049 155.93402545 98.06504173 148.47911524 86.4309082 141.04370117 C79.13102331 136.37435574 71.8571587 131.66700375 64.59838867 126.93408203 C57.92202089 122.58640036 51.2142059 118.28896692 44.5 114 C36.75146137 109.0501855 29.01895856 104.07757802 21.3125 99.0625 C20.50151855 98.53769043 19.69053711 98.01288086 18.85498047 97.47216797 C15.15963153 95.07775207 11.48775183 92.66078712 7.86328125 90.16015625 C7.22672607 89.72888428 6.5901709 89.2976123 5.93432617 88.85327148 C4.26316389 87.71879335 2.60367307 86.56717317 0.9453125 85.4140625 C-2.71360527 83.65739375 -4.16586513 83.74672336 -8 85 C-10.28656084 86.32516594 -12.36058157 87.6591743 -14.5 89.1875 C-15.82772835 90.10402827 -17.15726943 91.01793416 -18.48828125 91.9296875 C-19.20838379 92.42436523 -19.92848633 92.91904297 -20.67041016 93.42871094 C-24.95023415 96.31541679 -29.32344782 99.05553341 -33.6875 101.8125 C-40.92270003 106.39693425 -48.13538839 111.01260317 -55.3125 115.6875 C-56.55483398 116.49670898 -56.55483398 116.49670898 -57.82226562 117.32226562 C-59.44705164 118.38101375 -61.07172888 119.43992883 -62.69628906 120.49902344 C-74.2809017 128.04694613 -85.91866011 135.51046855 -97.5690918 142.95629883 C-104.86897669 147.62564426 -112.1428413 152.33299625 -119.40161133 157.06591797 C-127.14613504 162.10918774 -134.93425433 167.08345701 -142.72265625 172.05859375 C-149.1667331 176.17805883 -155.59332064 180.32263671 -162 184.5 C-170.53785536 190.06695935 -179.11952828 195.56363604 -187.70947266 201.04980469 C-193.45698854 204.72347463 -199.19268883 208.41373124 -204.90600586 212.14038086 C-207.32861249 213.71975844 -209.75586794 215.29178775 -212.18359375 216.86328125 C-215.57192673 219.05933283 -218.93248515 221.29289929 -222.28515625 223.54296875 C-224.00230991 224.67492567 -225.71974821 225.80645095 -227.4375 226.9375 C-228.61868408 227.74622559 -228.61868408 227.74622559 -229.82373047 228.57128906 C-235.29200566 232.1339713 -235.29200566 232.1339713 -238.828125 231.46484375 C-239.54484375 230.98144531 -240.2615625 230.49804688 -241 230 C-241.57363281 229.64164063 -242.14726562 229.28328125 -242.73828125 228.9140625 C-251.9447884 221.3752353 -258.0177003 210.68317884 -260 199 C-261.56996558 183.07956783 -259.12150794 168.84726243 -249 156 C-244.62071992 151.1228354 -239.99964269 147.37136085 -234.4375 143.9375 C-233.71353027 143.47980225 -232.98956055 143.02210449 -232.24365234 142.55053711 C-230.66941606 141.55582008 -229.09282915 140.56481541 -227.51416016 139.57714844 C-224.89050054 137.9313103 -222.27809925 136.26876627 -219.66796875 134.6015625 C-210.19075802 128.54828949 -200.6886081 122.53472482 -191.17749023 116.53491211 C-181.43337763 110.38538002 -171.71802391 104.19064114 -162 98 C-150.73971766 90.82689899 -139.4754005 83.66080996 -128.18286133 76.53857422 C-122.11212494 72.70769308 -116.05440494 68.85663068 -110 65 C-102.40541918 60.1622837 -94.79984917 55.34256929 -87.18359375 50.5390625 C-81.11263987 46.70797641 -75.05465239 42.85678831 -69 39 C-62.17538243 34.65274708 -55.34408625 30.31653921 -48.5 26 C-39.72453259 20.46500627 -30.96974383 14.89780747 -22.21875 9.32421875 C-21.36796875 8.78845215 -20.5171875 8.25268555 -19.640625 7.70068359 C-17.77415685 6.49859252 -15.93231547 5.25785104 -14.109375 3.99072266 C-13.15546875 3.34022949 -12.2015625 2.68973633 -11.21875 2.01953125 C-10.36216797 1.41858643 -9.50558594 0.8176416 -8.62304688 0.19848633 C-5.2447449 -1.34508072 -3.53420993 -1.0164776 0 0 Z " fill="#1D95CA" transform="translate(260,33)"/>
<path d="M0 0 C26.4 0 52.8 0 80 0 C80 53.13 80 106.26 80 161 C53.6 161 27.2 161 0 161 C0 107.87 0 54.74 0 0 Z " fill="#1D96CB" transform="translate(216,319)"/>
<path d="M0 0 C0.66 0.33 1.32 0.66 2 1 C-2.95 5.95 -7.9 10.9 -13 16 C-13 11.93645091 -11.47015238 10.94829419 -8.75 8 C-7.96109375 7.13375 -7.1721875 6.2675 -6.359375 5.375 C-4.3351828 3.33740256 -2.34982916 1.63841299 0 0 Z " fill="#17739D" transform="translate(22,179)"/>
</svg>
