<?xml version="1.0" encoding="UTF-8"?>
<svg version="1.1" xmlns="http://www.w3.org/2000/svg" width="266" height="190">
<path d="M0 0 C7.86226193 4.63404842 12.82273314 11.06644746 15.375 19.8125 C17.09655018 30.75267371 16.65407741 41.37426177 10.375 50.8125 C6.09153595 56.26722375 1.17460722 60.14928672 -5.625 61.8125 C-14.88659207 62.89013859 -23.01841306 62.57100772 -30.625 56.8125 C-38.47035165 49.74630999 -41.39903316 43.40250813 -42.5 33.0625 C-43.03757572 22.36817447 -40.786282 12.97770003 -33.625 4.8125 C-24.72530915 -3.3655943 -10.93559844 -5.22150196 0 0 Z M-24.625 12.8125 C-30.55066912 20.66000776 -30.29164185 28.39618381 -29.625 37.8125 C-28.18529294 43.20357696 -25.28735903 46.74515854 -20.625 49.8125 C-16.67377519 51.78811241 -11.93159535 51.24498694 -7.625 50.8125 C-2.70493933 48.48665314 -0.31268565 45.49106392 2.375 40.8125 C4.84827596 33.39267211 4.26682279 23.93198008 1.43359375 16.65234375 C-0.6987066 12.94639001 -3.81957924 10.71521038 -7.625 8.8125 C-14.30705388 8.14647829 -19.4728571 8.03734317 -24.625 12.8125 Z " fill="#3E3E3E" transform="translate(150.625,69.1875)"/>
<path d="M0 0 C3.96 6.93 7.92 13.86 12 21 C12.66 21 13.32 21 14 21 C15.40858236 19.10835707 15.40858236 19.10835707 16.78515625 16.66015625 C17.31560547 15.76232422 17.84605469 14.86449219 18.39257812 13.93945312 C18.94365234 12.99005859 19.49472656 12.04066406 20.0625 11.0625 C21.15645902 9.19857679 22.25145591 7.33526219 23.34765625 5.47265625 C23.83242432 4.64000244 24.31719238 3.80734863 24.81665039 2.94946289 C26 1 26 1 27 0 C29.18639453 -0.07258946 31.37500389 -0.08373783 33.5625 -0.0625 C35.35880859 -0.04896484 35.35880859 -0.04896484 37.19140625 -0.03515625 C38.11824219 -0.02355469 39.04507813 -0.01195313 40 0 C39.35248793 3.2800431 38.146475 5.70305047 36.41796875 8.5546875 C35.89783203 9.41707031 35.37769531 10.27945313 34.84179688 11.16796875 C34.29587891 12.06128906 33.74996094 12.95460938 33.1875 13.875 C32.65318359 14.76058594 32.11886719 15.64617187 31.56835938 16.55859375 C29.33562643 20.24411356 27.1229262 23.86202213 24.55078125 27.3203125 C22.74760265 29.83195062 22.74760265 29.83195062 23.24389648 32.38110352 C24.03364355 35.11653031 25.06286892 37.15755557 26.546875 39.58203125 C27.3203125 40.85723633 27.3203125 40.85723633 28.109375 42.15820312 C28.92148438 43.47208008 28.92148438 43.47208008 29.75 44.8125 C30.2759375 45.67681641 30.801875 46.54113281 31.34375 47.43164062 C34.22400372 52.15482896 37.15048375 56.84673648 40.12597656 61.51049805 C41 63 41 63 41 64 C36.21562711 65.43967452 31.57797806 66.34165992 27 64 C21.05114029 57.69466499 17.01279188 49.6237516 13 42 C12.61142822 42.63091553 12.22285645 43.26183105 11.82250977 43.91186523 C10.07059807 46.75462451 8.31657817 49.59607704 6.5625 52.4375 C5.95083984 53.43072266 5.33917969 54.42394531 4.70898438 55.44726562 C4.12568359 56.39150391 3.54238281 57.33574219 2.94140625 58.30859375 C2.40201416 59.18314209 1.86262207 60.05769043 1.30688477 60.95874023 C0 63 0 63 -1 64 C-3.18639453 64.07258946 -5.37500389 64.08373783 -7.5625 64.0625 C-8.76003906 64.05347656 -9.95757812 64.04445313 -11.19140625 64.03515625 C-12.58166016 64.01775391 -12.58166016 64.01775391 -14 64 C-13.36642928 60.77768473 -12.22449961 58.48889317 -10.453125 55.734375 C-9.9375 54.92613281 -9.421875 54.11789063 -8.890625 53.28515625 C-8.34921875 52.44855469 -7.8078125 51.61195312 -7.25 50.75 C-5.67303127 48.28791892 -4.09646257 45.82575725 -2.52929688 43.35742188 C-1.52631939 41.81132504 -0.4917504 40.28517559 0.57617188 38.78320312 C1.05119141 38.09677734 1.52621094 37.41035156 2.015625 36.703125 C2.44649414 36.10661133 2.87736328 35.51009766 3.32128906 34.89550781 C4.23530417 32.92492398 4.23530417 32.92492398 3.2980957 30.56591797 C2.02658472 28.05254944 0.68692795 25.64350807 -0.78515625 23.2421875 C-1.31560547 22.36949219 -1.84605469 21.49679688 -2.39257812 20.59765625 C-2.94365234 19.69917969 -3.49472656 18.80070312 -4.0625 17.875 C-5.16025549 16.08238186 -6.25542766 14.28817848 -7.34765625 12.4921875 C-8.07480835 11.30665283 -8.07480835 11.30665283 -8.81665039 10.09716797 C-10 8 -10 8 -11 5 C-10.67 4.34 -10.34 3.68 -10 3 C-9.34 3 -8.68 3 -8 3 C-8 2.34 -8 1.68 -8 1 C-5.10765685 0.17361624 -3.11257569 0 0 0 Z " fill="#3E3E3E" transform="translate(65,67)"/>
<path d="M0 0 C13.53 0 27.06 0 41 0 C41 3.63 41 7.26 41 11 C31.43 11 21.86 11 12 11 C12 16.28 12 21.56 12 27 C20.58 27 29.16 27 38 27 C38 30.3 38 33.6 38 37 C29.42 37 20.84 37 12 37 C12 45.91 12 54.82 12 64 C8.04 64 4.08 64 0 64 C0 42.88 0 21.76 0 0 Z " fill="#414141" transform="translate(173,67)"/>
<path d="M0 0 C4.29 0 8.58 0 13 0 C12 4 12 4 10 6 C9.34 5.67 8.68 5.34 8 5 C8 3.68 8 2.36 8 1 C5.36 1 2.72 1 0 1 C0 0.67 0 0.34 0 0 Z " fill="#7D7D7D" transform="translate(92,67)"/>
<path d="M0 0 C4.29 0 8.58 0 13 0 C13.33 0.99 13.66 1.98 14 3 C9.38 3 4.76 3 0 3 C0 2.01 0 1.02 0 0 Z " fill="#747474" transform="translate(92,128)"/>
</svg>
