<?xml version="1.0" encoding="UTF-8"?>
<svg version="1.1" xmlns="http://www.w3.org/2000/svg" width="512" height="512">
<path d="M0 0 C0.83047852 0.19319824 1.66095703 0.38639648 2.51660156 0.58544922 C20.99933198 4.95580564 39.15800827 10.85049197 55.90234375 19.88427734 C58.20936172 21.11135743 60.53910126 22.28590317 62.875 23.45703125 C86.45534966 35.37035555 108.83298297 49.19494381 126.4453125 69.1171875 C130.24051544 73.3998477 134.32036417 77.35847585 138.41015625 81.35546875 C156.47875541 99.80560695 168.51648383 126.23785123 175 151 C175.19899902 151.75087891 175.39799805 152.50175781 175.60302734 153.27539062 C181.42427961 176.36969528 181.59899637 203.85263407 176 227 C175.72739767 228.31577372 175.45791183 229.63219662 175.19140625 230.94921875 C168.22874783 263.63647772 149.18203774 291.38030247 125.70703125 314.30078125 C122.78659899 317.16353315 120.03180584 320.06750972 117.3984375 323.1953125 C113.93793171 327.22962794 110.06481831 330.39510537 105.8125 333.5625 C104.69004883 334.40808472 104.69004883 334.40808472 103.54492188 335.27075195 C97.60933161 339.67977463 91.47157603 343.42891809 85 347 C83.02052156 348.16758502 81.05043438 349.35021533 79.07983398 350.53271484 C19.31916152 386.23248066 -51.46398418 397.89723033 -120.25 388.75390625 C-121.19560791 388.63192871 -122.14121582 388.50995117 -123.11547852 388.38427734 C-125.15076333 388.11313572 -127.18239948 387.81388739 -129.21069336 387.49462891 C-135.55522369 386.54672902 -135.55522369 386.54672902 -141.19140625 389.140625 C-141.97386719 390.16671875 -142.75632813 391.1928125 -143.5625 392.25 C-144.46736978 393.36806159 -145.37499505 394.48389791 -146.28515625 395.59765625 C-146.73262207 396.16758301 -147.18008789 396.73750977 -147.64111328 397.32470703 C-154.34459017 405.5890366 -162.64392505 412.48579961 -171 419 C-171.63212402 419.49790039 -172.26424805 419.99580078 -172.91552734 420.50878906 C-185.5185352 430.4207314 -198.11419819 439.42866645 -212.6484375 446.296875 C-215.20315675 447.59507732 -217.51171314 448.92919066 -219.91015625 450.47265625 C-241.34752182 464.07792425 -279.26178289 477 -305 477 C-304.68917129 471.48011077 -301.23635907 468.20024773 -297.8125 464.1875 C-296.67164838 462.8281044 -295.53232113 461.467428 -294.39453125 460.10546875 C-293.83169434 459.43185303 -293.26885742 458.7582373 -292.68896484 458.06420898 C-288.44942913 452.8827585 -284.69081241 447.69450264 -281.53515625 441.7890625 C-279.92048331 438.85553457 -278.21373052 435.99051411 -276.49145508 433.11938477 C-266.7188944 416.76713336 -259.34677323 399.92524568 -252.30371094 382.22436523 C-251.02599672 379.06429562 -249.69060339 375.93357348 -248.34765625 372.80078125 C-246.17137095 367.59708706 -244.51168106 362.39977891 -243.125 356.9375 C-242.90070313 356.11056641 -242.67640625 355.28363281 -242.4453125 354.43164062 C-241.10543357 349.72367602 -241.10543357 349.72367602 -242 345 C-244.10044621 343.52672928 -246.17930798 342.19000394 -248.375 340.875 C-255.04152604 336.7430672 -261.04343632 332.11117862 -267 327 C-267.65613281 326.46632813 -268.31226563 325.93265625 -268.98828125 325.3828125 C-272.80063807 322.25515834 -275.98269843 318.83480049 -279.17578125 315.08203125 C-283.01639651 310.69863097 -287.25959716 306.68749459 -291.44140625 302.6328125 C-299.47749625 294.36361454 -305.59887421 284.90221408 -311.02783203 274.79150391 C-312.00251737 272.99536102 -313.01080593 271.2219556 -314.02734375 269.44921875 C-327.51882082 245.58962069 -333.22585508 219.36224107 -333.25 192.125 C-333.25100708 191.33999115 -333.25201416 190.5549823 -333.25305176 189.7461853 C-333.24301968 178.20177226 -332.69947024 167.26532168 -330 156 C-329.7277247 154.68285593 -329.45822771 153.36513471 -329.19140625 152.046875 C-323.24889582 124.19455729 -307.88671966 95.79364051 -287.25390625 76.1875 C-284.47518313 73.49064567 -282.01572763 70.59214845 -279.5703125 67.59375 C-278 66 -278 66 -275.9296875 65.03125 C-273.47143689 63.71752903 -273.19002486 62.47959552 -272 60 C-256.25262658 43.60547424 -234.77089022 32.75155766 -215 22 C-213.92492187 21.40832031 -212.84984375 20.81664063 -211.7421875 20.20703125 C-179.05235351 2.99563673 -140.65305218 -5.4062313 -104 -8 C-103.16355957 -8.06171387 -102.32711914 -8.12342773 -101.46533203 -8.18701172 C-67.32805582 -10.55931644 -33.28126255 -7.83612733 0 0 Z " fill="#BCDCF4" transform="translate(333,22)"/>
<path d="M0 0 C7.08640662 5.2625282 12.81272574 10.64630427 14.8203125 19.51953125 C16.06551352 28.64644422 13.59698497 34.90681493 8.55078125 42.40625 C6.05502845 45.67845923 3.77362765 47.39001264 -0.1796875 48.51953125 C-0.1796875 49.17953125 -0.1796875 49.83953125 -0.1796875 50.51953125 C-7.54359876 53.98490126 -15.61031182 55.1029812 -23.5703125 52.83984375 C-25.4921875 52.01953125 -25.4921875 52.01953125 -28.1796875 50.51953125 C-28.1796875 49.85953125 -28.1796875 49.19953125 -28.1796875 48.51953125 C-28.7778125 48.41898438 -29.3759375 48.3184375 -29.9921875 48.21484375 C-32.585099 47.39066831 -33.46245532 46.47574199 -35.1796875 44.39453125 C-35.6540625 43.83507812 -36.1284375 43.275625 -36.6171875 42.69921875 C-40.99335704 36.59446225 -42.87051128 32.56433199 -42.6796875 25.08203125 C-42.66905273 24.33211914 -42.65841797 23.58220703 -42.64746094 22.80957031 C-42.4502579 17.08568973 -41.48930808 13.30009431 -38.1796875 8.51953125 C-37.6434375 7.65328125 -37.1071875 6.78703125 -36.5546875 5.89453125 C-27.22067826 -3.43947799 -11.62896038 -7.89852327 0 0 Z " fill="#2E6998" transform="translate(270.1796875,188.48046875)"/>
<path d="M0 0 C2.93146079 1.70955171 4.89320773 3.56392056 7.04296875 6.19140625 C7.56890625 6.825625 8.09484375 7.45984375 8.63671875 8.11328125 C14.1474179 15.02764905 14.87937362 21.43779913 14.04296875 30.19140625 C11.51852795 40.1845294 6.87281147 46.83379706 -1.95703125 52.19140625 C-8.95868014 54.99588142 -16.45647398 55.49170751 -23.7421875 53.38671875 C-31.39206686 49.9578702 -36.37904159 44.05839073 -40.95703125 37.19140625 C-42.93756544 29.89537383 -43.6170524 19.59390994 -40.26953125 12.62890625 C-39.1484375 10.82421875 -39.1484375 10.82421875 -37.95703125 9.19140625 C-37.21453125 8.13953125 -36.47203125 7.08765625 -35.70703125 6.00390625 C-26.03519361 -3.88774588 -12.61450229 -5.90597416 0 0 Z " fill="#2D6898" transform="translate(383.95703125,187.80859375)"/>
<path d="M0 0 C0.76570313 0.54269531 1.53140625 1.08539063 2.3203125 1.64453125 C3.073125 2.08152344 3.8259375 2.51851562 4.6015625 2.96875 C11.12556929 6.97733868 14.88916153 11.35107833 17.3203125 18.64453125 C17.46909161 21.24244345 17.55134485 23.79596274 17.5703125 26.39453125 C17.5909375 27.08546875 17.6115625 27.77640625 17.6328125 28.48828125 C17.68540651 35.48328502 15.47624086 40.85405339 10.7578125 46.08203125 C10.15839844 46.76136719 9.55898437 47.44070312 8.94140625 48.140625 C7.3203125 49.64453125 7.3203125 49.64453125 5.3203125 49.64453125 C5.3203125 50.30453125 5.3203125 50.96453125 5.3203125 51.64453125 C-2.7038347 55.62109977 -10.45158844 57.40382811 -19.265625 54.9140625 C-24.00911756 52.98357134 -27.32464638 50.57472228 -30.6796875 46.64453125 C-31.3603125 45.90203125 -32.0409375 45.15953125 -32.7421875 44.39453125 C-38.16363286 36.69957654 -39.5411124 30.02598682 -38.6796875 20.64453125 C-37.14540183 12.66624578 -31.12589078 6.24896217 -24.6796875 1.64453125 C-18.0581315 -2.44110969 -7.03322722 -3.55762368 0 0 Z " fill="#2D6898" transform="translate(152.6796875,186.35546875)"/>
<path d="M0 0 C0.66 0 1.32 0 2 0 C0.4169423 4.2742558 -2.50568404 6.26531794 -6 9 C-4.4722133 5.56247993 -2.49818944 2.81046312 0 0 Z " fill="#4C82AC" transform="translate(351,191)"/>
</svg>
