<?xml version="1.0" encoding="UTF-8"?>
<svg version="1.1" xmlns="http://www.w3.org/2000/svg" width="1123" height="1118">
<path d="M0 0 C5.11797756 3.81488476 9.52861201 8.23398449 13.91723633 12.85424805 C15.98997966 15.01599108 18.15264724 16.98279752 20.43296814 18.92372131 C25.42337726 23.26806578 30.07993053 27.91984305 34.75146484 32.60205078 C35.71643857 33.56566625 36.6816242 34.52906957 37.64700317 35.49227905 C40.24635244 38.08710446 42.84257067 40.68504084 45.43806577 43.28372073 C48.16789308 46.0160979 50.90018006 48.74601382 53.63206482 51.47633362 C58.21744606 56.05990079 62.80072691 60.64556028 67.3828125 65.23242188 C72.6637008 70.51875132 77.94818162 75.80146894 83.23454243 81.0823254 C87.79119059 85.63442067 92.3458685 90.18848041 96.89893574 94.74415737 C99.61041741 97.45718987 102.32255062 100.16956179 105.03647041 102.88015556 C107.58902424 105.42979894 110.13907793 107.98191781 112.68730545 110.53588486 C114.05712082 111.90763104 115.42936763 113.27694789 116.80171204 114.64616394 C127.94387103 125.82612866 136.15522132 137.36132872 143.42895508 151.34643555 C143.78787842 152.01674805 144.14680176 152.68706055 144.51660156 153.37768555 C146.55597277 157.41471471 147.08495474 159.53371267 145.86645508 163.84643555 C144.40641216 167.14207524 142.61378638 170.25758329 140.86645508 173.40893555 C140.42172852 174.23973633 139.97700195 175.07053711 139.51879883 175.92651367 C132.81518076 188.11066629 124.1468145 197.99659858 114.24145508 207.59643555 C112.7308246 209.07151605 111.22260719 210.54895343 109.7171936 212.02935791 C108.35913821 213.36324232 106.99462248 214.69054038 105.62963867 216.01733398 C103.59558575 218.09991088 101.70524782 220.17635442 99.81982422 222.38427734 C94.58690619 228.42068676 88.86529745 233.9914272 83.21411133 239.6315918 C81.98760154 240.85877677 80.7612401 242.08611002 79.53501892 243.31358337 C76.9756498 245.87441936 74.41450015 248.43345726 71.85205078 250.99121094 C68.58635 254.25121508 65.32516032 257.5156892 62.06530094 260.78153324 C59.53706881 263.31339839 57.00643568 265.84285298 54.47509575 268.37161064 C53.27242316 269.57362153 52.07047798 270.77636074 50.86931038 271.97987556 C45.24686547 277.61089744 39.62903631 283.18591996 33.57359314 288.35722351 C30.84800652 290.73487327 28.33795208 293.30782231 25.81958008 295.90112305 C24.71571417 297.02251293 23.61153758 298.14359706 22.50708008 299.2644043 C20.81477692 300.98744999 19.12494834 302.71270718 17.44067383 304.44360352 C5.38309827 316.81532551 -8.34550335 330.69467418 -26.69604492 331.15893555 C-52.62421243 330.84427332 -72.13395606 303.97777136 -88.87915039 287.06469727 C-89.4937059 286.44577103 -90.10826141 285.82684479 -90.74143982 285.18916321 C-91.89278819 284.02939518 -93.04211176 282.8676115 -94.18885803 281.70329285 C-96.93825407 278.93714093 -99.73781526 276.30051865 -102.70581055 273.76977539 C-108.96720808 268.34906925 -114.72758597 262.39602256 -120.57495117 256.5378418 C-121.86939682 255.24407121 -123.16399076 253.95044898 -124.45872498 252.65696716 C-127.16079643 249.95636315 -129.86106873 247.25397662 -132.56005859 244.55029297 C-136.00166482 241.10299006 -139.44774197 237.66019704 -142.89518833 234.21873569 C-145.56602203 231.55153342 -148.23444736 228.88193187 -150.902174 226.21162224 C-152.17117075 224.94196335 -153.44089703 223.67303312 -154.71139717 222.40487862 C-166.7138878 210.41969349 -166.7138878 210.41969349 -171.7497406 204.44012451 C-173.70998392 202.18256678 -175.85506359 200.14220675 -178.01660156 198.07983398 C-188.73808177 187.82943195 -197.81427937 175.4342278 -198.38354492 160.15893555 C-198.02620665 136.03860245 -174.38007546 117.79012993 -158.70418763 102.18135881 C-156.17685776 99.66294344 -153.65493303 97.13912477 -151.13224792 94.61605835 C-146.90374494 90.38848558 -142.67142531 86.1647658 -138.43652344 81.94360352 C-133.5598883 77.08273286 -128.68853936 72.21661556 -123.82014638 67.34749091 C-118.60079198 62.12745842 -113.37763122 56.91124725 -108.1533525 51.69614363 C-106.66211303 50.20702207 -105.17157306 48.71720349 -103.6811924 47.22722244 C-100.89462 44.44185164 -98.10378837 41.66077209 -95.3125 38.88012695 C-94.49827576 38.06544952 -93.68405151 37.25077209 -92.84515381 36.41140747 C-88.61939688 32.20908102 -84.31824225 28.16163881 -79.79075432 24.28511429 C-77.70382155 22.47337835 -75.77838509 20.54128009 -73.87182617 18.54174805 C-52.98460812 -3.04895581 -28.79770031 -20.33614318 0 0 Z " fill="#2B95C2" transform="translate(755.133544921875,243.153564453125)"/>
<path d="M0 0 C1.04542969 0.52480957 2.09085938 1.04961914 3.16796875 1.59033203 C32.46757683 16.36675089 59.90561487 34.11827195 86 54 C86.64114746 54.48807129 87.28229492 54.97614258 87.94287109 55.47900391 C99.56919883 64.37441803 110.67498416 73.88297935 121.49975586 83.73510742 C123.06009613 85.14857062 124.62748515 86.5543376 126.20532227 87.94824219 C132.71819601 93.71747926 138.91339788 99.75908406 145.05102539 105.9206543 C146.69239796 107.56741404 148.33908819 109.20872095 149.98632812 110.84960938 C155.53497609 116.39439243 160.92516414 122.01377173 166 128 C167.04481298 129.19191486 168.09168106 130.38203147 169.140625 131.5703125 C175.8950484 139.27509625 182.42052322 147.10568567 188.64941406 155.24169922 C189.97150629 156.96290461 191.30913636 158.67107588 192.6484375 160.37890625 C248.20514178 232.04043499 284.59621733 318.36689115 303 433 C303.12375 434.00604279 303.12375 434.00604279 303.25 435.03240967 C308.40176799 477.19334429 307.996537 520.84710324 303 563 C302.86078125 564.2370166 302.7215625 565.4740332 302.578125 566.74853516 C295.27419636 630.41275572 275.53105737 691.78555234 247 749 C246.48179688 750.04043457 245.96359375 751.08086914 245.4296875 752.15283203 C235.0051235 772.94739797 223.22209159 792.86222397 210 812 C209.54979492 812.65597168 209.09958984 813.31194336 208.63574219 813.98779297 C198.02205052 829.41365533 186.62560431 844.21474813 174.38720703 858.38623047 C172.89234882 860.12523307 171.41215919 861.87603472 169.93359375 863.62890625 C165.07135174 869.37733231 160.19277166 874.97747235 154.78125 880.22265625 C152.9837243 882.01624 151.3352354 883.8810743 149.6875 885.8125 C143.43686479 893.06209518 136.56319414 899.79244106 129.28125 906 C126.80724069 908.16899447 124.41099887 910.40842563 122.01318359 912.66088867 C115.55078327 918.72835493 108.94061517 924.4794836 102 930 C100.87145458 930.91941877 99.74390462 931.84006036 98.6171875 932.76171875 C47.14776822 974.69178697 -12.23516375 1006.70330538 -75 1028 C-76.01529785 1028.3501416 -77.0305957 1028.7002832 -78.07666016 1029.06103516 C-117.87058841 1042.72202744 -159.23127224 1050.59285384 -201 1055 C-202.61600098 1055.17789062 -202.61600098 1055.17789062 -204.26464844 1055.359375 C-238.88136397 1059.02044406 -275.40898291 1058.80780565 -310 1055 C-311.22170898 1054.87109375 -312.44341797 1054.7421875 -313.70214844 1054.609375 C-398.78046348 1045.44154459 -482.4818286 1018.25001283 -595.31152344 943.32373047 C-597.05610522 941.95601468 -598.81225119 940.60423882 -600.5703125 939.25390625 C-612.50704833 930.03703628 -623.85330128 920.15272558 -635 910 C-635.85078125 909.24203125 -636.7015625 908.4840625 -637.578125 907.703125 C-644.35699975 901.60592481 -650.8558889 895.24969538 -657.3125 888.8125 C-658.16054199 887.96905029 -659.00858398 887.12560059 -659.88232422 886.2565918 C-664.79571603 881.33111233 -669.46862609 876.27658265 -674 871 C-675.45445517 869.39231627 -676.91220895 867.78760285 -678.375 866.1875 C-683.10513275 860.93801145 -687.58548951 855.51631394 -692 850 C-692.40943848 849.49017578 -692.81887695 848.98035156 -693.24072266 848.45507812 C-715.21542711 821.03494289 -734.24180829 791.8604141 -751 761 C-751.45745605 760.1656543 -751.91491211 759.33130859 -752.38623047 758.47167969 C-792.09702187 685.75717185 -813.61329663 602.4243896 -816.5625 519.75 C-816.60568359 518.66332031 -816.64886719 517.57664062 -816.69335938 516.45703125 C-819.69279342 434.85338113 -804.15393067 353.02933512 -746 226 C-745.39430176 224.94216309 -744.78860352 223.88432617 -744.16455078 222.79443359 C-728.84626604 196.1597997 -711.76194091 170.56518237 -692 147 C-690.52010845 145.16725175 -689.0409574 143.33390535 -687.5625 141.5 C-683.71107413 136.78822071 -679.68365537 132.27035422 -675.5546875 127.80078125 C-673.59991996 125.65771041 -671.69584123 123.49243441 -669.80297852 121.29589844 C-666.2172254 117.19394083 -662.45520048 113.31016295 -658.59765625 109.46484375 C-657.91626083 108.78249161 -657.23486542 108.10013947 -656.53282166 107.39710999 C-655.10294259 105.96655563 -653.67182089 104.53724233 -652.23950195 103.10913086 C-650.06802289 100.94300926 -647.90193675 98.77159826 -645.73632812 96.59960938 C-644.33625798 95.20020013 -642.93587762 93.80110116 -641.53515625 92.40234375 C-640.89844498 91.76360825 -640.2617337 91.12487274 -639.60572815 90.46678162 C-635.23095298 86.11433965 -630.67832871 82.02254192 -626 78 C-624.91695677 77.05063239 -623.8347425 76.10031695 -622.75390625 75.1484375 C-613.80970998 67.34679376 -604.50452744 60.10342658 -595 53 C-594.21898926 52.41395996 -593.43797852 51.82791992 -592.63330078 51.22412109 C-582.30013763 43.48209749 -571.87646314 35.96104089 -561 29 C-560.26716797 28.52804199 -559.53433594 28.05608398 -558.77929688 27.56982422 C-479.12889376 -23.49024157 -387.14826736 -53.90124705 0 0 Z M-425 -21 C-426.12196777 -20.63793457 -427.24393555 -20.27586914 -428.39990234 -19.90283203 C-453.81286126 -11.61316284 -478.09639049 -0.91998319 -502 11 C-503.04043457 11.51820312 -504.08086914 12.03640625 -505.15283203 12.5703125 C-542.13852839 31.11168335 -576.40698089 54.32267792 -608 81 C-609.20310729 82.00653158 -610.40623163 83.01304279 -611.609375 84.01953125 C-624.50912707 94.8765658 -636.62150949 106.54259676 -648.5625 118.4375 C-649.39539551 119.26572266 -650.22829102 120.09394531 -651.08642578 120.94726562 C-655.3890205 125.26115781 -659.5372968 129.64863484 -663.50952148 134.26879883 C-665.37361729 136.43395909 -667.31160957 138.52634894 -669.25 140.625 C-673.79802765 145.66553826 -677.96692095 150.94878466 -682.12109375 156.3125 C-684.01776232 158.75781307 -685.94547275 161.17151105 -687.91015625 163.5625 C-695.32523687 172.60656772 -702.00266071 182.03050188 -708.49658203 191.75439453 C-709.86004116 193.79094813 -711.23704732 195.81725226 -712.62109375 197.83984375 C-758.58425338 265.31980316 -787.80150053 344.29894108 -798.8125 425.0625 C-798.91186859 425.78308594 -799.01123718 426.50367188 -799.11361694 427.24609375 C-802.26383647 450.41523598 -803.3814831 473.50352664 -803.3125 496.875 C-803.31067719 498.16404236 -803.30885437 499.45308472 -803.30697632 500.78118896 C-803.25819959 521.33954649 -802.61582286 541.60423772 -800 562 C-799.87271515 563.00764404 -799.87271515 563.00764404 -799.74285889 564.03564453 C-791.77476058 626.77401226 -773.21331074 686.42274213 -745 743 C-744.22269531 744.56065186 -744.22269531 744.56065186 -743.4296875 746.15283203 C-720.94998363 790.99458122 -691.47232101 831.76219833 -657.39892578 868.48779297 C-655.91494049 870.0919474 -654.43927554 871.70346865 -652.96484375 873.31640625 C-645.40477169 881.5750476 -637.79847946 889.70137744 -629.28515625 896.99609375 C-626.93547274 899.05658545 -624.65010363 901.1741656 -622.36669922 903.30737305 C-616.11325773 909.14531253 -609.68988357 914.66242221 -603 920 C-601.87030792 920.92091185 -600.74144468 921.84284111 -599.61328125 922.765625 C-575.99023746 942.0062287 -550.51719977 959.02340344 -524 974 C-523.01370605 974.55896973 -522.02741211 975.11793945 -521.01123047 975.69384766 C-495.39822184 990.10751442 -468.66125873 1002.08377647 -441 1012 C-439.85305664 1012.4120166 -438.70611328 1012.8240332 -437.52441406 1013.24853516 C-391.27158488 1029.67365308 -342.93747533 1039.38339641 -294 1043 C-293.28489258 1043.05784668 -292.56978516 1043.11569336 -291.83300781 1043.17529297 C-212.36236971 1049.4768471 -130.21290419 1035.68050129 96 917 C96.60682617 916.49227051 97.21365234 915.98454102 97.83886719 915.46142578 C99.6269399 913.959464 101.40884456 912.4505984 103.1875 910.9375 C103.68483643 910.51581543 104.18217285 910.09413086 104.69458008 909.65966797 C115.42745803 900.43666078 125.57474827 890.59073139 135.55908203 880.57128906 C137.39110995 878.7338424 139.22850605 876.9018835 141.06640625 875.0703125 C146.9242393 869.21608351 152.66156104 863.33859778 158 857 C158.94860738 855.91629085 159.89908494 854.83421546 160.8515625 853.75390625 C168.07875325 845.46738048 174.82430547 836.87852694 181.42382812 828.08642578 C182.89660005 826.13687361 184.38906289 824.20476041 185.890625 822.27734375 C247.71294643 742.36791629 283.51556821 641.83065159 288.92669678 428.89022827 C279.96029195 360.39406852 258.46623716 293.00166404 224 233 C223.08927734 231.40889404 223.08927734 231.40889404 222.16015625 229.78564453 C213.11220716 214.05413748 203.5354516 198.78506916 193 184 C192.09072754 182.72358643 192.09072754 182.72358643 191.16308594 181.42138672 C184.61658096 172.28392133 177.87896082 163.39444537 170.5078125 154.90625 C168.1292427 152.14977658 165.83969364 149.34037057 163.5625 146.5 C158.78542358 140.63296674 153.65913634 135.12649784 148.4921875 129.60546875 C147.07568428 128.08142995 145.67515329 126.54470569 144.28125 125 C135.347563 115.1203932 126.153558 105.3132789 115.9765625 96.6953125 C113.49139806 94.5637683 111.09559854 92.34316401 108.6875 90.125 C103.2850248 85.20422698 97.69762419 80.5729951 92 76 C90.86801214 75.07610551 89.73652513 74.1515971 88.60546875 73.2265625 C44.17692396 37.0611381 -6.63208877 8.59715502 -60 -12 C-61.00643555 -12.3913916 -62.01287109 -12.7827832 -63.04980469 -13.18603516 C-137.54888974 -41.8969305 -218.89804146 -52.10431798 -425 -21 Z " fill="#000000" transform="translate(817,61)"/>
<path d="M0 0 C2.26383615 0.03649346 4.52771315 0.07055036 6.79162598 0.10192871 C47.27090158 0.68900532 47.27090158 0.68900532 62.81646729 15.45404053 C75.84671836 29.15537749 76.1047152 47.44403669 76.07867432 65.24359131 C76.08003142 66.80676819 76.08181309 68.36994476 76.08398438 69.93312073 C76.08852414 74.15867482 76.0867828 78.38420436 76.08360529 82.60975885 C76.08106109 87.05100727 76.0834252 91.49225369 76.08499146 95.9335022 C76.08680829 103.3964068 76.08442078 110.85930149 76.07965088 118.32220459 C76.07422118 126.91593732 76.07596347 135.50964627 76.08147728 144.10337842 C76.08603661 151.50925527 76.08664487 158.91512503 76.08403862 166.32100284 C76.08248975 170.73173783 76.08224331 175.1424617 76.0855751 179.55319595 C76.08849455 183.70814037 76.08640444 187.86305463 76.08068085 192.01799583 C76.07937434 193.53073133 76.07971077 195.04346943 76.08194351 196.55620384 C76.13721546 237.85917974 76.13721546 237.85917974 62.32427979 252.99310303 C51.17248166 263.30006797 36.82227403 265.62878811 22.22540283 266.246521 C20.79938641 266.30841771 20.79938641 266.30841771 19.34456158 266.37156487 C6.86878142 266.86234131 -5.61031738 266.82478989 -18.09368896 266.81341553 C-20.75850988 266.81409202 -23.42332945 266.81506441 -26.08815002 266.8163147 C-31.6475373 266.8181186 -37.20691117 266.81578091 -42.76629639 266.81097412 C-48.39097975 266.80616532 -54.0156365 266.80614221 -59.64031982 266.81097412 C-77.77750183 266.82593498 -95.9138251 266.80215179 -114.05072021 266.68060303 C-115.55992413 266.67086708 -115.55992413 266.67086708 -117.099617 266.66093445 C-122.21429255 266.62437217 -127.32760346 266.56620846 -132.44140053 266.46352768 C-134.48573137 266.42497383 -136.53035163 266.40277634 -138.57493591 266.38156128 C-152.81958681 266.00807866 -165.69992017 262.37363458 -176.33197021 252.57904053 C-186.32423694 242.02750514 -189.94860507 229.50905269 -190.62054443 215.22698975 C-190.66152693 214.37114729 -190.70250942 213.51530483 -190.74473381 212.63352776 C-191.28257852 199.93399455 -191.19657963 187.21938687 -191.18504572 174.51100397 C-191.18246718 170.76576834 -191.18487472 167.02053483 -191.18643188 163.27529907 C-191.18823831 156.9903112 -191.18588823 150.70533518 -191.18109131 144.42034912 C-191.17565644 137.21764776 -191.17741195 130.01497476 -191.18291771 122.8122741 C-191.18749851 116.56274399 -191.18807527 110.31322227 -191.18547904 104.06369102 C-191.18394265 100.35992144 -191.18364794 96.65616505 -191.18701553 92.95239639 C-191.19737717 79.6715428 -191.19394601 66.39656809 -190.62054443 53.12542725 C-190.58391756 52.25376986 -190.54729069 51.38211246 -190.50955391 50.48404121 C-189.73052178 34.96564039 -184.5734708 22.31982002 -173.05072021 11.68060303 C-160.99495514 2.47078905 -147.11648611 0.61896702 -132.41790771 0.36419678 C-131.37787598 0.34332504 -130.33784424 0.32245331 -129.26629639 0.3009491 C-125.81951532 0.23433476 -122.37266793 0.17541542 -118.92572021 0.11810303 C-117.12581635 0.08683319 -117.12581635 0.08683319 -115.28955078 0.05493164 C-76.86370427 -0.59975665 -38.42661176 -0.62088488 0 0 Z M-166.45697021 23.86810303 C-176.40079273 35.17676393 -177.51168809 48.61463641 -177.73040771 63.09466553 C-177.76324397 64.64754322 -177.79661932 66.20040958 -177.83047485 67.75326538 C-178.26791905 89.67820956 -178.1990577 111.61330704 -178.17767334 133.54144287 C-178.17571596 137.06326148 -178.1776768 140.58505529 -178.18109131 144.10687256 C-178.24196888 175.66603241 -178.24196888 175.66603241 -177.73040771 207.21966553 C-177.70842316 208.34835052 -177.6864386 209.47703552 -177.66378784 210.6399231 C-177.26377551 222.58014685 -174.9970584 234.7492032 -166.23431396 243.49310303 C-157.99142526 250.15402319 -148.41536986 252.79626068 -137.97590637 252.82104492 C-137.27505761 252.82401604 -136.57420885 252.82698717 -135.85212225 252.83004832 C-133.50953658 252.83870227 -131.16700222 252.8402408 -128.82440186 252.84173584 C-127.14196667 252.84636657 -125.45953253 252.85139157 -123.77709961 252.85678101 C-119.20841995 252.86988747 -114.63975498 252.87634721 -110.07105947 252.88079166 C-107.21203303 252.88372684 -104.35301056 252.88783261 -101.49398613 252.89229584 C-92.53559674 252.90596972 -83.57721649 252.9156354 -74.61881739 252.91949773 C-64.30328728 252.92397029 -53.98789021 252.94148134 -43.67240053 252.97049832 C-35.68403388 252.99218284 -27.69570446 253.0022057 -19.70730871 253.00353885 C-14.9438235 253.00458257 -10.18046337 253.0103969 -5.41700935 253.02835846 C-0.92801057 253.04495526 3.56077071 253.04693891 8.04978943 253.03821945 C9.68711496 253.03745509 11.32445275 253.04171132 12.96174812 253.0516777 C26.8045919 253.13091941 41.74120529 252.7712932 52.68756104 243.15325928 C61.16087929 234.21737774 62.06691205 222.743015 62.26568604 211.03607178 C62.29685768 209.4730407 62.29685768 209.4730407 62.32865906 207.87843323 C62.37185601 205.66531293 62.41290607 203.45214983 62.45196533 201.23895264 C62.51041007 197.94529357 62.57590081 194.65183763 62.64263916 191.3583374 C62.68408419 189.18842369 62.72511109 187.01850194 62.76568604 184.84857178 C62.78442276 183.90273727 62.80315948 182.95690277 62.82246399 181.98240662 C63.26234213 156.31792443 62.93973798 130.62671262 62.76537704 104.96046734 C62.72562025 99.04660948 62.6935285 93.13290911 62.67828369 87.21893311 C62.66308661 81.41923323 62.62864439 75.6199343 62.58097076 69.82041359 C62.56625338 67.63378187 62.55824438 65.4470933 62.55739594 63.26041222 C62.71637898 43.07102522 62.71637898 43.07102522 53.70318604 25.42669678 C39.80685815 11.5922679 19.48937437 13.52784226 1.32598877 13.53533936 C-0.15940432 13.53233612 -1.64479664 13.52893099 -3.13018799 13.52516174 C-7.11152993 13.51644077 -11.0928503 13.51398888 -15.07420087 13.51334596 C-17.57231122 13.5126292 -20.07041629 13.51048334 -22.56852531 13.50784874 C-31.31316341 13.49863829 -40.05778641 13.49450887 -48.8024292 13.49530029 C-56.90838364 13.49590154 -65.01427164 13.48532928 -73.12020928 13.46955663 C-80.12283465 13.45642414 -87.12543844 13.4511187 -94.12807602 13.4517557 C-98.29168706 13.45200879 -102.45523877 13.44926242 -106.61883736 13.43857765 C-110.53505451 13.42879841 -114.4511567 13.42888371 -118.36737823 13.43609428 C-119.79143126 13.43712768 -121.21549184 13.43485285 -122.63953209 13.42873383 C-146.20498133 13.23783259 -146.20498133 13.23783259 -166.45697021 23.86810303 Z " fill="#000000" transform="translate(444.05072021484375,290.31939697265625)"/>
<path d="M0 0 C10.81360514 -0.08252813 21.62408225 -0.06996022 32.43756104 0.02423096 C36.01515688 0.05428414 39.59277787 0.07915633 43.17041016 0.10449219 C50.28334054 0.15660817 57.39589564 0.23067831 64.5085144 0.3147583 C67.32874489 0.34771653 70.14892844 0.37466242 72.9692688 0.3961792 C76.93582948 0.42710752 80.90188392 0.48192956 84.86816406 0.53857422 C86.04046066 0.54497421 87.21275726 0.55137421 88.420578 0.55796814 C103.10737259 0.81592146 115.56302286 4.12207472 127.85253906 12.23779297 C144.15498739 29.29849471 143.68558704 52.21420669 143.70117188 74.27856445 C143.70581595 75.84100456 143.71084265 77.40344358 143.71621704 78.96588135 C143.72918225 83.16221419 143.73575335 87.35853117 143.7402277 91.55488086 C143.74318177 94.18716877 143.74729046 96.81945256 143.75173187 99.45173836 C143.76535917 107.71918445 143.77505143 115.98662085 143.77893376 124.25407737 C143.78341591 133.74088451 143.80099128 143.22754767 143.82993436 152.71431106 C143.85164273 160.08975238 143.86164275 167.46515342 143.86297488 174.8406263 C143.86401551 179.22732345 143.86976434 183.61388439 143.88779449 188.00054741 C143.90443703 192.12854923 143.9063535 196.25631468 143.89765549 200.38433838 C143.89689393 201.88537804 143.90110888 203.38643131 143.91111374 204.88743782 C144.01760511 221.88130606 142.17443618 239.66221397 130.47753906 252.98779297 C116.23414396 265.71318451 97.73310062 266.19992114 79.76782227 266.21142578 C78.074945 266.21606118 76.38206877 266.22108679 74.68919373 266.22647095 C70.11042066 266.23952665 65.53166221 266.24602638 60.95287347 266.25048161 C58.08578502 266.25342313 55.21870047 266.25752991 52.351614 266.26198578 C43.36227003 266.27564213 34.37293508 266.28531813 25.38358146 266.28918767 C15.0414915 266.2936653 4.6995339 266.31120741 -5.64251584 266.34018826 C-13.66068687 266.36186968 -21.67882082 266.37189537 -29.69702083 266.37322879 C-34.47497815 266.3742721 -39.25281073 266.38007855 -44.03073692 266.3980484 C-48.52963789 266.41464151 -53.02832182 266.41663063 -57.52724266 266.40790939 C-59.16779669 266.40714502 -60.80836294 266.41140142 -62.44888687 266.42136765 C-79.62790271 266.51951607 -96.62842692 264.40232515 -109.71777344 252.01904297 C-118.33883322 242.27685882 -122.33282219 229.71268152 -122.771698 216.89186096 C-122.81298891 215.70303535 -122.85427982 214.51420973 -122.89682198 213.28935909 C-122.93554358 212.01752049 -122.97426517 210.7456819 -123.01416016 209.43530273 C-123.03512245 208.77476745 -123.05608474 208.11423216 -123.07768226 207.43368065 C-123.52394017 193.25276152 -123.60630692 179.07766953 -123.59277344 164.89013672 C-123.59345075 162.3120574 -123.59442427 159.73397815 -123.59567261 157.15589905 C-123.5971293 151.80745765 -123.59516253 146.45903467 -123.59033203 141.1105957 C-123.5848921 135.01890403 -123.58666163 128.92724588 -123.59215844 122.83555502 C-123.59732841 116.85550491 -123.59667371 110.87547055 -123.5937767 104.89541817 C-123.59312215 102.40461789 -123.59388255 99.91381673 -123.59625626 97.4230175 C-123.60615496 84.12851477 -123.48846798 70.83885733 -123.13916016 57.54858398 C-123.11719637 56.37411933 -123.09523258 55.19965467 -123.07260323 53.98960018 C-122.61866864 39.33450565 -119.03541874 25.61254146 -108.83496094 14.67529297 C-95.90347289 2.63296554 -79.94135733 0.6140616 -62.91699219 0.53857422 C-61.43688564 0.52154073 -59.95679271 0.50328633 -58.47671509 0.48390198 C-54.55288501 0.43618189 -50.62911742 0.40614087 -46.70508957 0.38033295 C-42.60058357 0.35073823 -38.49623635 0.30599969 -34.3918457 0.26367188 C-25.74138895 0.17776372 -17.09087686 0.11711389 -8.44017029 0.06319427 C-5.62675803 0.04486455 -2.81338178 0.02248123 0 0 Z M-100.77246094 26.17529297 C-108.04755247 34.85612928 -109.53239485 45.2930096 -109.77197266 56.29223633 C-109.79246296 57.09680582 -109.81295326 57.90137531 -109.83406448 58.7303257 C-109.89953498 61.3876678 -109.95767743 64.04509956 -110.01464844 66.70263672 C-110.03558437 67.62630476 -110.05652031 68.5499728 -110.07809067 69.50163078 C-110.51645501 89.04659207 -110.61489187 108.58772981 -110.59033203 128.13696289 C-110.58577147 131.78932322 -110.58577715 135.44163381 -110.59033203 139.09399414 C-110.6142206 158.30432513 -110.5517036 177.51531649 -110.18795395 196.72270012 C-110.15634492 198.46815453 -110.12908446 200.21369446 -110.10669327 201.95929146 C-109.88682635 218.23964587 -109.05054327 232.82498418 -96.83496094 244.86279297 C-84.9263155 254.62063742 -67.91180121 253.20244316 -53.43017578 253.1796875 C-51.96009274 253.18104606 -50.49001004 253.18282853 -49.01992798 253.18499756 C-45.06086995 253.18952024 -41.10183826 253.18780312 -37.14277983 253.18461847 C-32.97121332 253.18206512 -28.79964888 253.1844409 -24.62808228 253.18600464 C-17.61940105 253.18781892 -10.6107304 253.18544079 -3.60205078 253.18066406 C4.45489021 253.17523565 12.51180584 253.17697675 20.56874621 253.18249047 C27.52632665 253.1870581 34.48389954 253.18765405 41.44148099 253.1850518 C45.57895851 253.18350732 49.71642419 253.18324398 53.85390091 253.18658829 C89.25933419 255.60175786 89.25933419 255.60175786 120.54003906 243.05029297 C129.81989759 232.47368565 129.98133243 220.21593491 129.92822266 206.85742188 C129.93229391 205.13159352 129.93763889 203.40576777 129.94415283 201.6799469 C129.95776844 197.01659327 129.95255111 192.35343993 129.94301558 187.69008303 C129.9353866 182.79365811 129.94247377 177.89724961 129.94717407 173.00082397 C129.95262325 164.77802473 129.9454631 156.55530646 129.93115234 148.33251953 C129.91483833 138.84966997 129.92010866 129.36701407 129.93663156 119.88416922 C129.95028332 111.71992426 129.95214777 103.55573732 129.94431555 95.39148462 C129.93965787 90.5253173 129.93896121 85.65924073 129.94892502 80.79307938 C129.95764588 76.21453055 129.95148007 71.63622917 129.93424225 67.05770683 C129.93030412 65.38568341 129.93136511 63.71363885 129.93803024 62.04162407 C129.98445531 49.20326007 129.58469432 35.05090353 120.66894531 24.92529297 C108.7619397 13.37910571 93.99460639 13.89946989 78.43212891 13.88916016 C76.79851165 13.88452558 75.16489547 13.87950007 73.53128052 13.87411499 C69.10946804 13.86104989 64.68767071 13.85455749 60.26584196 13.85010433 C57.49708703 13.84716384 54.72833616 13.84305721 51.95958328 13.83860016 C43.27885089 13.82494024 34.59812785 13.81526644 25.91738546 13.81139827 C15.93015657 13.80692222 5.94306486 13.78938903 -4.04412234 13.76039767 C-11.78626709 13.73871112 -19.52837345 13.72869027 -27.27054822 13.72735715 C-31.8842017 13.72631403 -36.49772597 13.72051218 -41.1113472 13.70253754 C-45.45675213 13.6859359 -49.80193239 13.68395934 -54.14735794 13.69267654 C-55.73147183 13.69344052 -57.31559841 13.68918996 -58.89968109 13.67921829 C-74.26676347 13.58825004 -89.49401501 14.5864311 -100.77246094 26.17529297 Z " fill="#000000" transform="translate(376.4599609375,623.94970703125)"/>
<path d="M0 0 C3.00674658 0.02506943 6.01350507 0.04593147 9.02028942 0.06587982 C16.68718764 0.11709561 24.35382065 0.18257589 32.02044964 0.26499176 C35.93370902 0.30701627 39.84688921 0.34504876 43.76028442 0.37194824 C47.47230735 0.39798995 51.18392213 0.43853968 54.89568901 0.48912239 C56.92689409 0.51345789 58.95825141 0.52386064 60.98957825 0.53373718 C76.40191123 0.77588089 92.89344835 3.52628012 104.12579346 15.02606201 C113.82854906 27.54653704 116.3262067 40.17983811 116.74249268 55.72821045 C116.78009138 56.94467129 116.81769009 58.16113213 116.85642815 59.41445541 C117.23648551 72.85128895 117.27315804 86.28808437 117.26011896 99.72937489 C117.25751497 103.27877171 117.25995429 106.8281665 117.26150513 110.37756348 C117.26330317 116.32387772 117.26098279 122.27017938 117.25616455 128.2164917 C117.25071646 135.01715038 117.25249825 141.81777908 117.25799096 148.61843705 C117.2625785 154.54374639 117.26314576 160.46904689 117.26055229 166.39435744 C117.25902137 169.89574532 117.25870529 173.39711927 117.26208878 176.89850616 C117.27298537 190.08992412 117.21659204 203.27122345 116.72296143 216.45477295 C116.69000032 217.42167179 116.65703922 218.38857063 116.6230793 219.38476944 C116.0422814 232.79497869 111.80937281 244.89052892 101.93829346 254.33856201 C88.25908695 265.62789051 70.92320572 266.48519156 53.97955322 266.41424561 C52.31858986 266.41832268 50.65762921 266.42367086 48.99667358 266.43017578 C44.5316848 266.44372141 40.06690658 266.43860383 35.60191464 266.42903852 C30.89957748 266.42137384 26.19725679 266.42850636 21.49491882 266.43319702 C13.60125537 266.43863547 5.70767646 266.43151396 -2.18597412 266.41717529 C-11.27292935 266.40085817 -20.35968248 266.40613824 -29.4466328 266.42265451 C-37.28917606 266.43633091 -45.13165898 266.43815897 -52.97421032 266.4303385 C-57.64034108 266.42569489 -62.30637731 266.42494463 -66.97250175 266.43494797 C-71.36317507 266.44370538 -75.75359154 266.43743818 -80.14423752 266.4202652 C-81.7420198 266.41634642 -83.33982424 266.41735369 -84.93759727 266.42405319 C-104.44474187 266.4982159 -122.07087362 263.953513 -136.81561279 250.21746826 C-151.25776633 235.21384871 -150.03446436 212.54107755 -150.00360107 193.20062256 C-150.00496157 191.80053665 -150.0067451 190.4004511 -150.00891113 189.00036621 C-150.01340975 185.2501484 -150.01172726 181.49995857 -150.00853205 177.74974036 C-150.00596725 173.7882021 -150.00835743 169.82666594 -150.00991821 165.86512756 C-150.01172867 159.21409687 -150.00936393 152.56307733 -150.00457764 145.91204834 C-149.99914394 138.27425479 -150.00089575 130.63648798 -150.00640404 122.99869508 C-150.01097546 116.39005994 -150.01156599 109.78143275 -150.00896537 103.17279655 C-150.00742371 99.2482925 -150.00714959 95.32380091 -150.01050186 91.39929771 C-150.03100807 63.42399621 -150.03100807 63.42399621 -149.44403076 51.87298584 C-149.40740389 51.14775821 -149.37077702 50.42253057 -149.33304024 49.67532635 C-148.41530539 34.61909441 -142.99229605 22.29164626 -131.87420654 12.02606201 C-121.59870425 4.17625206 -109.21493622 1.00496852 -96.44036865 0.82073975 C-95.20060272 0.8008046 -93.96083679 0.78086945 -92.6835022 0.7603302 C-91.33951988 0.74330798 -89.99553585 0.72642027 -88.65155029 0.70965576 C-87.24196892 0.68890715 -85.83239254 0.66781728 -84.42282104 0.64640808 C-80.6645914 0.59072648 -76.90630701 0.5411218 -73.14796829 0.49343109 C-70.79928447 0.4634032 -68.45062116 0.43208091 -66.10195923 0.40039062 C-21.81103057 -0.19469318 -21.81103057 -0.19469318 0 0 Z M-127.87420654 27.02606201 C-135.08101568 37.69545301 -136.19424682 48.03136059 -136.49139404 60.60418701 C-136.50983242 61.29156197 -136.5282708 61.97893692 -136.54726791 62.68714142 C-137.12886046 84.566508 -137.02482519 106.46176253 -137.00457764 128.34686279 C-137.00000826 133.30683591 -137.00002504 138.26677247 -137.00457764 143.22674561 C-137.08489826 175.76221069 -137.08489826 175.76221069 -136.55389404 208.29168701 C-136.53190948 209.37117615 -136.50992493 210.45066528 -136.48727417 211.56286621 C-136.0818117 223.01855596 -133.38383219 235.07935793 -124.81170654 243.27606201 C-111.4431407 253.62591944 -93.78531425 253.33288479 -77.69012451 253.28485107 C-76.13266843 253.28756978 -74.57521365 253.29113559 -73.01776123 253.29547119 C-68.83605897 253.30449152 -64.65445678 253.30109471 -60.47275305 253.29471302 C-56.06930645 253.28960058 -51.66586764 253.29435872 -47.26242065 253.29748535 C-39.8740487 253.3011091 -32.48571691 253.29636711 -25.09735107 253.2868042 C-16.5863622 253.27591466 -8.07546914 253.27945531 0.43551743 253.29045701 C7.77949497 253.29956581 15.12344386 253.30079791 22.46742523 253.29557967 C26.83777743 253.29248069 31.20808476 253.29199323 35.57843399 253.29865265 C39.68752222 253.30447837 43.79648818 253.30033482 47.90556335 253.28886414 C49.4030169 253.2862456 50.90048094 253.28693385 52.39793015 253.29138947 C64.79528419 253.32484472 77.02576213 253.09498158 88.12579346 247.02606201 C89.17766846 246.46918701 90.22954346 245.91231201 91.31329346 245.33856201 C98.4377024 239.48071466 101.45541421 231.91006951 103.12579346 223.02606201 C103.56035249 218.00800061 103.61490587 213.00099369 103.63751221 207.96746826 C103.65454023 206.51240108 103.67279403 205.0573478 103.69218445 203.60231018 C103.74003476 199.73215015 103.76999497 195.86205396 103.79575348 191.99169159 C103.81936264 188.75703142 103.85305783 185.52250821 103.88686371 182.28794098 C103.98530433 172.86806454 104.05451025 163.44814536 104.11289215 154.02794647 C104.13147799 151.14399831 104.15384337 148.26008164 104.17608643 145.37615967 C104.25933021 133.97318969 104.24838876 122.57300949 104.15185547 111.17016602 C104.13312094 108.91004504 104.11593031 106.64991108 104.09973145 104.38977051 C104.0406068 96.16734038 103.96187556 87.94541688 103.86132812 79.72338867 C103.82837511 76.99973682 103.80142632 74.27613371 103.77990723 71.55236816 C103.74644427 67.73208302 103.69424546 63.9124701 103.63751221 60.09246826 C103.62791222 58.40144234 103.62791222 58.40144234 103.61811829 56.67625427 C103.36918531 43.08605987 100.92981965 31.44885111 91.00079346 21.71356201 C79.95830406 12.89915806 64.49897222 13.87384821 51.20147705 13.8649292 C49.58756397 13.8602945 47.97365197 13.85526897 46.35974121 13.84988403 C41.99164603 13.83682011 37.62356618 13.83032677 33.25545454 13.82587337 C30.52020153 13.82293268 27.78495262 13.81882602 25.04970169 13.8143692 C16.47362075 13.80070957 7.89754928 13.79103564 -0.67854178 13.78716731 C-10.54465031 13.78269138 -20.41061998 13.76515862 -30.27668631 13.73616672 C-37.92541361 13.71447858 -45.57410205 13.70445922 -53.22285974 13.70312619 C-57.78062253 13.70208319 -62.33825451 13.69628373 -66.89598465 13.67830658 C-71.18886076 13.66170217 -75.48150945 13.65972968 -79.77440643 13.66844559 C-81.33916971 13.66920942 -82.90394585 13.66496097 -84.46867752 13.65498734 C-99.89678434 13.56251194 -116.97358287 14.67031996 -127.87420654 27.02606201 Z " fill="#000000" transform="translate(737.8742065429688,623.9739379882813)"/>
</svg>
