<?xml version="1.0" encoding="UTF-8"?>
<svg version="1.1" xmlns="http://www.w3.org/2000/svg" width="1320" height="720">
<path d="M0 0 C1.13350891 0.00093658 2.26701782 0.00187317 3.43487549 0.00283813 C63.25217643 0.10915533 122.76247716 6.81332265 180.875 21.1875 C182.07495605 21.48205078 183.27491211 21.77660156 184.51123047 22.08007812 C267.54048692 42.70099578 350.40754042 78.99724369 414.875 136.1875 C416.29115551 137.41725555 417.70773869 138.64651902 419.125 139.875 C420.37545515 140.97865119 421.62544938 142.08282481 422.875 143.1875 C423.91720703 144.09048828 423.91720703 144.09048828 424.98046875 145.01171875 C430.7147019 150.05438609 436.15438517 155.36113528 441.5625 160.75 C442.275271 161.45817871 442.98804199 162.16635742 443.72241211 162.89599609 C448.31044248 167.49734982 452.66073633 172.24267377 456.875 177.1875 C457.41358643 177.81406494 457.95217285 178.44062988 458.50708008 179.08618164 C494.41407546 221.11190632 525.42009027 277.02844386 528.13671875 333.5078125 C528.84435533 345.17801572 533.72076909 352.55983361 540.32177734 361.97119141 C542.10257558 364.51222983 543.81791047 367.0913858 545.52661133 369.68115234 C546.72750137 371.49801942 547.94107001 373.30594549 549.15625 375.11328125 C552.37718367 379.92191474 555.53078782 384.77406409 558.6875 389.625 C564.73132485 398.90816614 570.79600032 408.17734229 576.875 417.4375 C577.31387543 418.10608032 577.75275085 418.77466064 578.20492554 419.46350098 C584.32733519 428.78967992 590.45435256 438.11282943 596.58203125 447.43554688 C612.72238972 471.99167941 628.84120289 496.56160085 644.875 521.1875 C645.45507812 522.07824219 646.03515625 522.96898437 646.6328125 523.88671875 C649.90028554 528.90514708 653.16452264 533.92565313 656.42333984 538.94970703 C657.37361557 540.41459558 658.32444067 541.87912794 659.27587891 543.34326172 C660.54027103 545.28993626 661.80187351 547.23838549 663.0625 549.1875 C664.10470703 550.79625 664.10470703 550.79625 665.16796875 552.4375 C668.94746975 558.52621557 669.72623258 562.99161529 668.875 570.1875 C667.80958714 573.14749485 666.51257361 575.47526871 664.875 578.1875 C664.215 578.1875 663.555 578.1875 662.875 578.1875 C661.72868347 576.80644226 661.72868347 576.80644226 660.44604492 574.83081055 C659.95805923 574.08700134 659.47007355 573.34319214 658.96730042 572.57684326 C658.43539597 571.75097717 657.90349152 570.92511108 657.35546875 570.07421875 C656.51271645 568.78502533 656.51271645 568.78502533 655.65293884 567.4697876 C654.42873641 565.59600687 653.2075856 563.72022981 651.98907471 561.84274292 C648.70672448 556.78653014 645.40144194 551.7453473 642.09765625 546.703125 C641.41612488 545.66192001 640.73459351 544.62071503 640.03240967 543.54795837 C633.12168053 533.00563915 626.07062701 522.56044574 619 512.125 C607.31654354 494.86385872 595.79733401 477.50240243 584.39990234 460.05126953 C582.01789797 456.40445391 579.62891943 452.76225315 577.23828125 449.12109375 C564.50695348 429.71623518 551.98780584 410.17816008 539.62109375 390.5390625 C536.39006856 385.41064354 533.13230375 380.29925342 529.875 375.1875 C529.78001221 375.95078613 529.68502441 376.71407227 529.5871582 377.50048828 C527.50927518 393.95337567 525.08757151 410.12318785 520.875 426.1875 C520.66681641 426.99880371 520.45863281 427.81010742 520.24414062 428.64599609 C507.68574675 476.68668283 479.58367939 518.8516825 446.0546875 554.76171875 C443.77485869 557.18223852 443.77485869 557.18223852 441.875 560.1875 C454.80217609 586.29461819 474.05794625 606.99709417 501.875 617.1875 C506.45760643 618.63844595 511.07869798 619.93815043 515.73071289 621.1472168 C520.19335049 622.3206208 524.11511312 623.3789098 527.875 626.1875 C529.62198516 629.68147032 528.59031931 633.4519436 527.875 637.1875 C526.875 639.8125 526.875 639.8125 524.875 641.1875 C518.73784825 641.79732269 514.02951421 639.40921603 508.78125 636.56640625 C505.38443114 634.95474354 501.91275912 633.9126654 498.3125 632.875 C484.96934926 628.9225922 472.63752924 623.10260296 461.875 614.1875 C461.02550781 613.48882813 460.17601562 612.79015625 459.30078125 612.0703125 C450.44754281 604.45083316 443.51002763 595.67013831 437.48046875 585.6953125 C434.17907096 580.53838457 431.58528117 577.65330323 425.875 575.1875 C424.98361328 576.00541016 424.98361328 576.00541016 424.07421875 576.83984375 C375.29554238 621.2185773 317.07926179 652.62756125 255.875 676.1875 C254.81200684 676.59742188 253.74901367 677.00734375 252.65380859 677.4296875 C193.49813443 700.01932825 129.96271607 712.64087045 67 718 C66.32548798 718.05748413 65.65097595 718.11496826 64.95602417 718.17419434 C60.26565073 718.56472707 55.57234124 718.89458803 50.875 719.1875 C50.12274139 719.23482269 49.37048279 719.28214539 48.59542847 719.3309021 C32.79822088 720.2877144 17.00982371 720.38860843 1.1875 720.375 C-0.7654599 720.37409363 -0.7654599 720.37409363 -2.75787354 720.37316895 C-22.95796329 720.34777288 -42.99773394 720.00870332 -63.125 718.1875 C-63.83394409 718.12433594 -64.54288818 718.06117188 -65.27331543 717.99609375 C-140.27301874 711.27121513 -215.17472708 694.75433297 -409.36181641 587.6796875 C-410.69690854 586.54979507 -412.05826719 585.45084532 -413.43115234 584.3671875 C-421.0814702 578.29983959 -427.97545272 571.64397899 -434.85058594 564.72265625 C-436.74715939 562.81535668 -438.65420305 560.91899941 -440.5625 559.0234375 C-447.54296495 552.05096896 -454.03788418 544.96255917 -460.125 537.1875 C-461.16081085 535.92051176 -462.19952577 534.65588759 -463.2421875 533.39453125 C-499.56293308 488.886206 -526.8575429 431.5262665 -527.36328125 373.1953125 C-527.3730751 372.25985596 -527.38286896 371.32439941 -527.39295959 370.3605957 C-527.5623951 349.97688268 -527.49504319 330.1945685 -523.125 310.1875 C-522.79556396 308.64811768 -522.79556396 308.64811768 -522.45947266 307.07763672 C-517.79017665 285.79979031 -510.58530439 265.78519574 -501.125 246.1875 C-500.7232959 245.35138184 -500.3215918 244.51526367 -499.90771484 243.65380859 C-490.273573 223.85050561 -478.09163634 205.21658816 -464.125 188.1875 C-463.69413086 187.66188477 -463.26326172 187.13626953 -462.81933594 186.59472656 C-448.05733149 168.67019348 -432.04815888 150.43110627 -413.66015625 136.1640625 C-411.27605194 134.30526931 -408.99106443 132.35933571 -406.71118164 130.375 C-393.41577094 118.84971863 -378.94204251 108.65540438 -364.125 99.1875 C-363.35494629 98.69427246 -362.58489258 98.20104492 -361.79150391 97.69287109 C-348.55170937 89.25480561 -335.03703131 81.46164676 -321.125 74.1875 C-319.54187012 73.35798828 -319.54187012 73.35798828 -317.92675781 72.51171875 C-291.9549382 58.99569398 -265.2096851 47.76541099 -237.48876953 38.33300781 C-235.30971835 37.59094742 -233.13339801 36.84079886 -230.96044922 36.08105469 C-177.17637879 17.31427686 -120.25930806 7.34245598 -63.625 2.4375 C-62.60607162 2.34861511 -62.60607162 2.34861511 -61.56655884 2.25793457 C-41.06863552 0.50250015 -20.56666593 -0.0222291 0 0 Z " fill="#2B94C1" transform="translate(527.125,-0.1875)"/>
<path d="M0 0 C3.22232732 0.63520004 6.44778191 1.25160096 9.6746521 1.86328125 C12.98751482 2.49143837 16.30014732 3.12058027 19.61174011 3.75540161 C29.35135317 5.62220453 39.10975844 7.36227573 48.88095093 9.0546875 C50.45812786 9.32967062 52.03527611 9.60481824 53.61239624 9.88012695 C62.12774323 11.36394982 70.64677947 12.82556479 79.16777039 14.27661133 C83.90540924 15.08403846 88.64238065 15.89534632 93.3793335 16.70678711 C96.8014614 17.29111468 100.22459186 17.86928583 103.64779663 18.44726562 C105.77374355 18.81089558 107.89964108 19.17481443 110.02548218 19.5390625 C110.97906616 19.69820129 111.93265015 19.85734009 112.91513062 20.02130127 C125.23169861 22.14862446 137.77055869 24.71035098 147.06845093 33.5546875 C149.63566333 37.4055061 149.39624458 40.71062095 149.50595093 45.1796875 C149.86724569 54.04327651 150.47169817 61.95793475 157.06845093 68.5546875 C160.67359659 70.93536654 163.89222837 70.80005687 168.14096069 70.79418945 C168.8456398 70.79620361 169.55031891 70.79821777 170.27635193 70.80029297 C171.80411449 70.80383292 173.33189171 70.80307823 174.85965157 70.79851723 C177.28691977 70.79290619 179.71371316 70.80211416 182.14094543 70.8157196 C189.04136168 70.85275609 195.94161963 70.87144922 202.84213257 70.86010742 C207.06805052 70.85421557 211.29330432 70.87271798 215.51908684 70.90599632 C217.12043334 70.91389166 218.72185339 70.9127539 220.32318306 70.90197182 C229.97300287 70.8398378 237.48299053 71.70998284 246.06845093 76.5546875 C247.51827274 77.21146537 248.97425196 77.85506616 250.43954468 78.4765625 C259.54452339 82.52820687 267.42232525 87.05811727 275.06845093 93.5546875 C275.56683472 93.97621094 276.06521851 94.39773438 276.57870483 94.83203125 C289.95699179 106.26400007 299.48176088 119.84070345 309.04696655 134.47851562 C311.21794244 137.78217458 313.4126641 141.06899251 315.61532593 144.3515625 C329.55859037 165.14135617 329.55859037 165.14135617 335.55921936 174.9190979 C338.19923164 179.20369328 340.9366645 183.40960451 343.74423218 187.5859375 C348.36235014 194.48519084 352.93207076 201.41484292 357.4815979 208.35946655 C359.75026311 211.82244345 362.02085741 215.28415554 364.29110718 218.74609375 C364.99919525 219.82604362 364.99919525 219.82604362 365.72158813 220.92781067 C370.55538788 228.29935016 375.39751457 235.66540824 380.23999023 243.03125 C395.89396079 266.84334942 411.51967655 290.67372237 427.06845093 314.5546875 C427.64852905 315.44542969 428.22860718 316.33617187 428.82626343 317.25390625 C432.09373647 322.27233458 435.35797357 327.29284063 438.61679077 332.31689453 C439.5670665 333.78178308 440.5178916 335.24631544 441.46932983 336.71044922 C442.73372195 338.65712376 443.99532444 340.60557299 445.25595093 342.5546875 C446.29815796 344.1634375 446.29815796 344.1634375 447.36141968 345.8046875 C451.14092068 351.89340307 451.91968351 356.35880279 451.06845093 363.5546875 C450.00303807 366.51468235 448.70602453 368.84245621 447.06845093 371.5546875 C446.40845093 371.5546875 445.74845093 371.5546875 445.06845093 371.5546875 C443.9221344 370.17362976 443.9221344 370.17362976 442.63949585 368.19799805 C442.15151016 367.45418884 441.66352448 366.71037964 441.16075134 365.94403076 C440.62884689 365.11816467 440.09694244 364.29229858 439.54891968 363.44140625 C438.98708481 362.58194397 438.42524994 361.72248169 437.84638977 360.8369751 C436.62218734 358.96319437 435.40103653 357.08741731 434.18252563 355.20993042 C430.9001754 350.15371764 427.59489286 345.1125348 424.29110718 340.0703125 C423.26881012 338.50850502 423.26881012 338.50850502 422.2258606 336.91514587 C415.31513146 326.37282665 408.26407793 315.92763324 401.19345093 305.4921875 C389.50999447 288.23104622 377.99078494 270.86958993 366.59335327 253.41845703 C364.2113489 249.77164141 361.82237035 246.12944065 359.43173218 242.48828125 C346.7004044 223.08342268 334.18125677 203.54534758 321.81454468 183.90625 C318.58351949 178.77783104 315.32575468 173.66644092 312.06845093 168.5546875 C311.97346313 169.31797363 311.87847534 170.08125977 311.78060913 170.86767578 C309.70272611 187.32056317 307.28102244 203.49037535 303.06845093 219.5546875 C302.86026733 220.36599121 302.65208374 221.17729492 302.43759155 222.01318359 C289.87919767 270.05387033 261.77713032 312.21887 228.24813843 348.12890625 C225.96830961 350.54942602 225.96830961 350.54942602 224.06845093 353.5546875 C236.99562702 379.66180569 256.25139718 400.36428167 284.06845093 410.5546875 C288.65105735 412.00563345 293.27214891 413.30533793 297.92416382 414.5144043 C302.38680142 415.6878083 306.30856405 416.7460973 310.06845093 419.5546875 C311.81543609 423.04865782 310.78377024 426.8191311 310.06845093 430.5546875 C309.06845093 433.1796875 309.06845093 433.1796875 307.06845093 434.5546875 C300.93129917 435.16451019 296.22296514 432.77640353 290.97470093 429.93359375 C287.57788207 428.32193104 284.10621005 427.2798529 280.50595093 426.2421875 C267.16280019 422.2897797 254.83098017 416.46979046 244.06845093 407.5546875 C243.21895874 406.85601563 242.36946655 406.15734375 241.49423218 405.4375 C232.64099373 397.81802066 225.70347856 389.03732581 219.67391968 379.0625 C216.35283514 373.87482051 213.02305624 369.66221635 207.06845093 367.5546875 C196.96152323 365.57724513 185.84080482 370.11970263 177.21298218 375.25390625 C168.76740611 378.74754206 157.98915453 376.20537303 149.07455444 375.28515625 C147.53548651 375.13217319 145.99501029 374.99272139 144.45346069 374.8671875 C134.31085032 374.03648208 127.44977722 372.35213185 118.95736694 366.50683594 C114.93003106 363.78541468 110.73011197 362.10955359 106.19345093 360.4296875 C105.34266968 360.1011377 104.49188843 359.77258789 103.61532593 359.43408203 C101.10339408 358.46429152 98.58622659 357.50917839 96.06845093 356.5546875 C62.88206853 343.76425826 62.88206853 343.76425826 56.44345093 331.1796875 C53.21001094 321.83315903 55.20024409 313.75446008 59.06845093 304.9921875 C63.14870145 295.7082391 64.84940068 287.53063569 61.16610718 277.765625 C59.07023436 273.54404488 56.14920273 270.09338889 53.06845093 266.5546875 C51.97403687 265.29591797 51.97403687 265.29591797 50.85751343 264.01171875 C47.47390044 260.1950495 44.06066696 256.52030496 40.31845093 253.0546875 C35.07552796 247.8239858 31.8579767 241.69029452 31.38095093 234.2421875 C31.62358808 228.33522785 34.10385356 223.78952492 36.71688843 218.58203125 C38.56383112 214.44509315 38.89057054 211.99413343 38.06845093 207.5546875 C34.74263167 204.11338105 30.48710494 203.47770063 25.96688843 202.5546875 C24.77656509 202.30150757 24.77656509 202.30150757 23.56219482 202.04321289 C15.76185665 200.42005887 7.91308418 199.13145423 0.04034424 197.91714478 C-4.00063591 197.29305051 -8.03856107 196.64996749 -12.07608032 196.00390625 C-12.8577507 195.87884201 -13.63942108 195.75377777 -14.44477844 195.62492371 C-21.0924279 194.55031185 -27.68771467 193.28183983 -34.27456665 191.8828125 C-39.98660112 190.68649596 -45.71369237 189.84814318 -51.49404907 189.0546875 C-63.9457117 187.30029257 -74.09621846 184.2173475 -82.63467407 174.53125 C-88.78511162 165.15739036 -86.31265141 151.86065075 -84.2341156 141.46058655 C-83.7890876 139.32304299 -83.32959635 137.18893609 -82.86904907 135.0546875 C-82.55265764 133.53464058 -82.23732889 132.01437212 -81.92300415 130.49389648 C-79.51112896 118.91612026 -76.92755772 107.37268463 -74.24185181 95.85546875 C-72.97521435 90.39390988 -71.79377135 84.96493265 -70.91983032 79.42578125 C-70.14061668 74.51766341 -69.0254481 69.77778132 -67.77920532 64.96972656 C-66.76333408 60.87698264 -65.87111438 56.76498097 -64.99404907 52.640625 C-64.74207764 51.45898773 -64.74207764 51.45898773 -64.48501587 50.253479 C-63.79040284 46.98901205 -63.09880641 43.72392451 -62.41104126 40.45800781 C-55.80070629 9.12427314 -55.80070629 9.12427314 -45.97061157 0.84375 C-32.29527936 -7.80157496 -14.83956866 -2.92549758 0 0 Z " fill="#FCFDFE" transform="translate(744.9315490722656,206.4453125)"/>
<path d="M0 0 C13.46047307 11.06991272 24.42791962 23.72840894 33.9831543 38.25683594 C34.55179199 39.10955078 35.12042969 39.96226562 35.70629883 40.84082031 C37.43529729 43.46013475 39.12217463 46.10176736 40.7956543 48.75683594 C41.57924316 49.95711426 41.57924316 49.95711426 42.37866211 51.18164062 C45.96486842 57.06438423 46.6593391 61.44951922 45.9831543 68.25683594 C45.9102417 69.11148438 45.8373291 69.96613281 45.76220703 70.84667969 C45.49433871 73.57626549 45.15892299 76.28833977 44.7956543 79.00683594 C44.66328369 79.99981689 44.53091309 80.99279785 44.39453125 82.01586914 C42.90592533 92.58990255 40.6563748 102.92384756 37.9831543 113.25683594 C37.77352051 114.07684082 37.56388672 114.8968457 37.34790039 115.74169922 C26.01353114 159.08104646 1.66932796 199.06528384 -28.0168457 232.25683594 C-28.51909668 232.82611816 -29.02134766 233.39540039 -29.53881836 233.98193359 C-38.55746401 244.1988407 -38.55746401 244.1988407 -43.0168457 246.25683594 C-43.26740723 245.6293042 -43.51796875 245.00177246 -43.77612305 244.35522461 C-58.4885554 207.72760673 -77.27617951 179.32424231 -108.23950195 154.49902344 C-111.37538276 151.96738408 -114.44818799 149.36912917 -117.5168457 146.75683594 C-121.48558894 143.38366617 -125.47702637 140.04506097 -129.5168457 136.75683594 C-134.12297486 133.00766104 -138.6607417 129.18498406 -143.18530273 125.33837891 C-146.5553556 122.47836656 -149.95710878 119.66427861 -153.3918457 116.88183594 C-158.51497637 112.71462469 -163.49279499 108.39371137 -168.46948242 104.05419922 C-172.10403773 100.8923115 -175.77196438 97.78840653 -179.5168457 94.75683594 C-185.84558315 89.62821463 -191.96390405 84.26408922 -198.10717773 78.91650391 C-205.14956961 72.79605134 -212.20687372 66.69653257 -219.4543457 60.81933594 C-224.47512508 56.74087292 -229.36814666 52.52853135 -234.24121094 48.27587891 C-237.41940276 45.50299241 -240.60891493 42.74801043 -243.84106445 40.03808594 C-263.67550117 23.38663257 -263.67550117 23.38663257 -265.5012207 10.95996094 C-266.01783045 1.85968161 -263.9058603 -3.84652339 -258.0168457 -10.74316406 C-252.10982372 -17.15240249 -245.14377688 -21.75983334 -236.2668457 -22.30566406 C-212.78678653 -21.18584586 -184.61851638 0.48815773 -164.98632812 12.04003906 C-157.43266023 16.47051471 -149.7880839 20.70292668 -142.08398438 24.86499023 C-135.95017192 28.18456224 -129.8746398 31.59135609 -123.8293457 35.06933594 C-115.82118204 39.67201699 -107.77753369 44.20662351 -99.7043457 48.69433594 C-98.5694873 49.32525146 -97.43462891 49.95616699 -96.26538086 50.60620117 C-89.63302353 54.28241402 -82.97222202 57.90007771 -76.28759766 61.48022461 C-75.27012451 62.02525635 -74.25265137 62.57028809 -73.2043457 63.13183594 C-71.71584106 63.92908081 -71.71584106 63.92908081 -70.19726562 64.74243164 C-63.5643014 68.32895453 -57.22192298 72.16999875 -51.0168457 76.45214844 C-44.33325247 80.47274749 -38.58674458 81.73189669 -30.8293457 81.56933594 C-30.04881836 81.57255859 -29.26829102 81.57578125 -28.46411133 81.57910156 C-24.12238961 81.53859356 -21.04504351 81.02057131 -17.0168457 79.25683594 C-17.86557251 78.78395142 -17.86557251 78.78395142 -18.73144531 78.30151367 C-30.01742313 72.00012896 -41.21450396 65.58551308 -52.2668457 58.88183594 C-60.98703819 53.60468659 -69.78911183 48.51006465 -78.7043457 43.56933594 C-80.38258423 42.63855225 -80.38258423 42.63855225 -82.09472656 41.68896484 C-87.50274 38.70390214 -92.92991643 35.764025 -98.3996582 32.89355469 C-99.4016626 32.36270264 -100.40366699 31.83185059 -101.43603516 31.28491211 C-103.29744998 30.30182246 -105.16536182 29.33088697 -107.04101562 28.37524414 C-114.48859983 24.43376007 -120.09277544 19.36267697 -123.0168457 11.25683594 C-123.42299616 7.93266189 -123.43635011 4.66458401 -123.3918457 1.31933594 C-123.40344727 0.45115234 -123.41504883 -0.41703125 -123.42700195 -1.31152344 C-123.39530925 -8.29976446 -122.2126164 -13.21221342 -117.5090332 -18.63378906 C-113.22913987 -21.86021081 -108.29623755 -21.48626394 -103.1418457 -21.49316406 C-101.22773056 -21.52674503 -99.31366276 -21.56315625 -97.3996582 -21.60253906 C-96.47314453 -21.61768555 -95.54663086 -21.63283203 -94.59204102 -21.6484375 C-91.76836104 -21.75230438 -89.01228134 -22.12022273 -86.21557617 -22.51171875 C-55.78515956 -25.7149205 -24.32042682 -19.14354821 0 0 Z " fill="#2B94C1" transform="translate(1010.016845703125,312.7431640625)"/>
<path d="M0 0 C2.06296773 1.21539184 3.7524401 2.50770511 5.515625 4.125 C6.00933594 4.56328125 6.50304687 5.0015625 7.01171875 5.453125 C12.37439176 10.97566089 15.74292986 18.28852785 19.36425781 25.01171875 C20.41591403 26.94198512 21.50080694 28.84745953 22.6015625 30.75 C28.1702067 40.57172718 32.47961058 50.88630069 36.765625 61.3125 C37.06399261 62.03725525 37.36236023 62.7620105 37.66976929 63.50872803 C52.36062224 99.31733408 62.09743229 136.70776213 67.203125 175.0625 C67.30585724 175.82418488 67.40858948 176.58586975 67.51443481 177.37063599 C68.25874853 182.94746456 68.91828752 188.53054656 69.515625 194.125 C69.61098541 195.01707153 69.70634583 195.90914307 69.80459595 196.82824707 C71.6172107 214.49678181 71.86005511 232.12154802 71.83129883 249.86230469 C71.82666445 252.95066887 71.83362234 256.03863945 71.85180664 259.12695312 C71.96555982 278.66287927 71.33642106 297.74617569 68.515625 317.125 C68.3382933 318.35050568 68.3382933 318.35050568 68.15737915 319.60076904 C67.4593207 324.29539974 66.64479095 328.96040185 65.765625 333.625 C65.63901489 334.30535309 65.51240479 334.98570618 65.38195801 335.68667603 C57.601163 377.30099726 43.13752417 416.915323 25.265625 455.1875 C24.93745789 455.8947522 24.60929077 456.60200439 24.2711792 457.33068848 C10.72254998 486.41361714 10.72254998 486.41361714 -0.859375 493.0625 C-8.00831575 495.15787919 -13.60192057 494.72247721 -20.28125 491.3828125 C-26.99744522 487.54838899 -32.25867274 483.8389246 -34.484375 476.125 C-37.20670211 461.24294514 -26.12493712 444.57487195 -19.765625 431.625 C-9.79028388 410.92146183 -2.40673833 389.00461267 4.515625 367.125 C4.80953125 366.19880859 5.1034375 365.27261719 5.40625 364.31835938 C9.66510614 350.70809979 12.45217816 336.9472544 14.98461914 322.92333984 C15.45401657 320.44966935 15.98540795 318.00590773 16.55859375 315.5546875 C17.72914692 310.41307042 18.41058781 305.22727534 19.078125 300 C19.20380859 299.06929688 19.32949219 298.13859375 19.45898438 297.1796875 C21.53758573 281.16030956 21.73062747 265.19914705 21.75585938 249.06860352 C21.765505 245.35865329 21.79658771 241.6492727 21.828125 237.93945312 C21.89984914 221.79293257 20.78850952 206.1075708 18.515625 190.125 C18.40849182 189.35253937 18.30135864 188.58007874 18.190979 187.78421021 C17.59566605 183.53131279 16.92538624 179.29554969 16.203125 175.0625 C15.99075195 173.81412354 15.77837891 172.56574707 15.55957031 171.27954102 C8.10710805 128.72533252 -6.09293704 86.14117677 -25.734375 47.625 C-36.45967706 26.50339287 -36.45967706 26.50339287 -34.484375 15.125 C-32.03496148 8.17522861 -26.70020192 4.61653784 -20.484375 1.125 C-19.56591797 0.56232422 -19.56591797 0.56232422 -18.62890625 -0.01171875 C-13.11193908 -2.23257439 -5.55684659 -1.95712836 0 0 Z " fill="#FDFEFE" transform="translate(501.484375,125.875)"/>
<path d="M0 0 C12.33797656 7.17845909 17.76900714 20.05490245 23.73828125 32.45068359 C24.7899679 34.61881352 25.86747805 36.77251414 26.94921875 38.92578125 C36.21876641 57.6249086 43.48845101 77.44046053 48.79296875 97.625 C48.99728516 98.3876416 49.20160156 99.1502832 49.41210938 99.93603516 C50.97632139 105.80891878 52.42728626 111.70287308 53.79296875 117.625 C53.97746582 118.42292969 54.16196289 119.22085938 54.35205078 120.04296875 C65.16881053 168.13489061 62.88915932 220.44373613 53.79296875 268.625 C53.60428223 269.6351416 53.4155957 270.6452832 53.22119141 271.68603516 C46.61559361 305.85012203 31.06760959 369.12880132 0.60546875 390.0625 C-4.14135579 392.46727895 -9.03503057 392.44911 -14.20703125 391.625 C-21.92485481 388.91932622 -29.64248867 384.22019702 -33.515625 376.765625 C-37.6408879 363.99362459 -30.81336292 351.40159654 -25.20703125 340.3125 C-18.21381309 326.10541103 -12.43527158 311.57839599 -7.20703125 296.625 C-6.64459717 295.02785156 -6.64459717 295.02785156 -6.07080078 293.3984375 C-1.39275885 279.8789175 1.91919752 266.20561202 4.66796875 252.1875 C4.8136731 251.45103241 4.95937744 250.71456482 5.10949707 249.95578003 C8.74731036 231.34542462 10.17876066 213.01484079 10.10546875 194.0625 C10.10397827 193.10310516 10.10248779 192.14371033 10.10095215 191.15524292 C10.05818081 175.78708692 9.31989287 160.81105151 6.79296875 145.625 C6.65375 144.74054199 6.51453125 143.85608398 6.37109375 142.94482422 C0.29036889 104.94733174 -13.82217884 69.8618363 -30.4296875 35.390625 C-31.02342412 34.13602573 -31.61605033 32.8808997 -32.20703125 31.625 C-32.60664063 30.78066406 -33.00625 29.93632812 -33.41796875 29.06640625 C-35.38068633 22.99364146 -35.74875655 14.90178593 -32.9921875 9.04296875 C-25.14490213 -0.61380831 -11.72378569 -5.02651956 0 0 Z " fill="#FDFEFE" transform="translate(406.20703125,178.375)"/>
<path d="M0 0 C7.65512058 1.58245555 15.34330764 2.85368858 23.06640625 4.0625 C25.80242744 4.49524498 28.53801993 4.93064429 31.2734375 5.3671875 C31.94494339 5.47424515 32.61644928 5.5813028 33.30830383 5.69160461 C39.13547973 6.62563728 44.9449139 7.64751635 50.75390625 8.6875 C60.16641088 10.36068602 69.60849863 11.73025802 79.07592773 13.05273438 C91.99991006 14.87059766 104.87934425 16.93280891 117.75244141 19.07861328 C120.59827641 19.54781755 123.44612449 19.99558633 126.296875 20.43359375 C134.74199612 21.78242185 141.76298552 23.18602839 147.06640625 30.3125 C150.18512597 40.64325907 146.73420279 51.84440437 144.69140625 62.125 C144.37024822 63.77717962 144.04992979 65.42952267 143.73046875 67.08203125 C143.12162549 70.22453069 142.50425091 73.36513886 141.87890625 76.50439453 C141.38922127 78.9663517 140.92077265 81.42778126 140.47265625 83.89794922 C140.22902344 85.22850342 140.22902344 85.22850342 139.98046875 86.5859375 C139.85365723 87.31087402 139.7268457 88.03581055 139.59619141 88.78271484 C138.63459784 92.12657892 136.86877435 93.71429448 134.06640625 95.625 C128.46095027 96.38492333 124.91210287 94.35257599 120.19140625 91.6875 C119.44093018 91.27709473 118.6904541 90.86668945 117.91723633 90.44384766 C115.62527039 89.18527731 113.34428743 87.90886001 111.06640625 86.625 C110.44008301 86.27260254 109.81375977 85.92020508 109.16845703 85.55712891 C107.3628024 84.53950402 105.55826622 83.51991845 103.75390625 82.5 C67.70119483 60.09562555 67.70119483 60.09562555 26.75390625 57.328125 C21.86553634 59.08674588 18.15288207 61.84871098 14.44140625 65.453125 C13.06640625 66.625 13.06640625 66.625 11.06640625 66.625 C10.79441406 67.21023438 10.52242187 67.79546875 10.2421875 68.3984375 C9.08674138 70.58649162 7.80394611 72.32778698 6.25390625 74.25 C-1.76037095 84.7589174 -3.90117735 94.53497611 -2.93359375 107.625 C-1.20922812 116.2156649 2.68551483 122.81628433 8.06640625 129.625 C8.69546875 130.45902344 9.32453125 131.29304687 9.97265625 132.15234375 C12.15518878 134.72984952 14.40935097 136.67022161 17.06640625 138.75 C40.02449237 157.20229352 40.02449237 157.20229352 46.06640625 168.625 C46.06640625 169.615 46.06640625 170.605 46.06640625 171.625 C23.03407582 171.06392009 0.67407183 166.91013423 -21.85049438 162.34860229 C-24.01828068 161.91041702 -26.18704254 161.47702872 -28.35678101 161.0486145 C-31.44211073 160.43605594 -34.52205781 159.80128266 -37.6015625 159.16015625 C-38.52457153 158.97988892 -39.44758057 158.79962158 -40.39855957 158.6138916 C-47.54023106 157.0859076 -53.68910603 154.94468809 -57.90795898 148.70483398 C-61.61381443 137.57668201 -57.92313439 125.10279374 -55.37109375 114.0625 C-55.00283629 112.41877776 -54.63566607 110.77481159 -54.26953125 109.13061523 C-51.84391444 98.30717985 -49.24697338 87.52672291 -46.58642578 76.75878906 C-43.69229413 64.92259592 -41.21730952 53.00274635 -38.7734375 41.06665039 C-37.24426412 33.62427687 -35.65857664 26.20062576 -33.8671875 18.81640625 C-33.56224365 17.55642822 -33.2572998 16.2964502 -32.94311523 14.99829102 C-31.03152807 8.61076991 -28.05921649 3.52184298 -22.24609375 0.0625 C-14.93362538 -2.94527001 -7.51030205 -1.58915852 0 0 Z " fill="#2C94C1" transform="translate(732.93359375,221.375)"/>
<path d="M0 0 C8.67761136 4.93236098 13.9819185 13.33005862 18.71484375 21.83984375 C19.22619873 22.75121094 19.73755371 23.66257813 20.2644043 24.6015625 C41.13104724 62.26693627 50.5173482 100.90918058 50.29345703 143.92211914 C50.27737283 147.58322472 50.29341024 151.24322434 50.3125 154.90429688 C50.33276093 176.84845447 48.05589489 197.78124332 42.46484375 219.00976562 C41.98738495 220.82841945 41.53578354 222.65383076 41.08984375 224.48046875 C39.36423751 231.34367538 36.73707677 237.67957461 33.90234375 244.15234375 C33.39832031 245.35632813 32.89429688 246.5603125 32.375 247.80078125 C15.26201151 288.41779926 15.26201151 288.41779926 -0.47265625 297.52734375 C-7.7620767 299.26292005 -13.17077765 298.32688403 -19.734375 294.703125 C-25.75896028 290.7498021 -30.12876096 286.21720334 -32.09765625 279.15234375 C-33.40121242 269.07541519 -30.52022272 261.92949961 -26.04052734 253.05908203 C-16.34416179 233.85163179 -9.21021296 213.74310711 -4.09765625 192.83984375 C-3.91420654 192.09669922 -3.73075684 191.35355469 -3.54174805 190.58789062 C-0.43538554 176.87498433 0.28716586 162.91156149 0.21484375 148.90234375 C0.2126886 148.14165588 0.21053345 147.38096802 0.20831299 146.597229 C0.15240153 134.23304006 -0.53531294 122.28122552 -3.09765625 110.15234375 C-3.30165039 109.17152832 -3.50564453 108.19071289 -3.71582031 107.18017578 C-8.02383576 86.96009456 -14.31702107 68.29823235 -23.19018555 49.63452148 C-31.67770388 31.73543432 -31.67770388 31.73543432 -31.59765625 22.33984375 C-31.60796875 21.11652344 -31.61828125 19.89320313 -31.62890625 18.6328125 C-30.67431026 12.37880496 -26.82938049 8.39260006 -22.078125 4.54296875 C-15.5043552 -0.07293272 -7.85081483 -3.17248942 0 0 Z " fill="#FDFEFE" transform="translate(308.09765625,223.84765625)"/>
<path d="M0 0 C19.03407607 9.94074178 29.99388203 35.78492815 36.46484375 55.2265625 C39.88212787 66.16459463 40.80653367 76.71302536 40.89453125 88.15625 C40.902603 89.18464493 40.91067474 90.21303986 40.91899109 91.27259827 C40.93274053 93.43993492 40.94350297 95.60729239 40.95141602 97.7746582 C40.9628875 99.95310995 40.98326172 102.13153467 41.01293945 104.30981445 C41.25426513 122.08837141 40.02200097 138.86646001 32.90625 155.37890625 C32.56263428 156.20261719 32.21901855 157.02632812 31.86499023 157.875 C25.13521472 173.69173498 16.76762122 192.07322064 0.65625 200.12890625 C-7.83706015 200.96762063 -15.04814426 201.04577396 -22.25 195.98046875 C-28.53895178 190.41897035 -31.35926061 185.21176591 -31.90625 176.87890625 C-31.83793898 169.80017688 -28.98103972 164.66878614 -25.7109375 158.625 C-23.01761387 153.62873842 -20.76170691 148.47002143 -18.53125 143.25390625 C-18.1587915 142.39869385 -17.78633301 141.54348145 -17.40258789 140.66235352 C-10.72505647 125.02299137 -8.88186508 110.21294922 -9.29052734 93.33154297 C-9.33264341 91.58855623 -9.35203313 89.84502171 -9.36328125 88.1015625 C-10.08721659 71.12930072 -18.1917538 54.97111674 -26.41015625 40.484375 C-30.75945297 32.6318062 -32.73826504 26.15522179 -31.34375 17.12890625 C-30.09375 13.62890625 -30.09375 13.62890625 -28.34375 11.12890625 C-27.828125 10.30390625 -27.3125 9.47890625 -26.78125 8.62890625 C-19.90344506 1.57474734 -9.80868314 -3.64556057 0 0 Z " fill="#FDFEFE" transform="translate(216.34375,271.87109375)"/>
<path d="M0 0 C3.42386697 1.88811305 6.17145343 4.21384784 9.0546875 6.83203125 C11.08267251 8.49396917 13.14082077 9.67546339 15.4375 10.9375 C22.4165965 14.97411593 28.16661678 20.49341238 34.16699219 25.82226562 C36.56209396 27.92276856 39.02258097 29.93510232 41.5 31.9375 C45.70948519 35.34636988 49.83510971 38.83899068 53.9375 42.375 C58.062143 45.92957492 62.20957904 49.44292298 66.4375 52.875 C71.27901899 56.80517424 76.01012391 60.85166073 80.73291016 64.92260742 C85.24336533 68.8020952 89.83029935 72.57824673 94.44921875 76.328125 C98.01702273 79.26302184 101.48870297 82.30171669 104.9375 85.375 C97.65983652 90.22677565 83.24459739 87.44943585 75.01171875 85.83349609 C62.97551182 83.17295035 51.11505985 79.58653728 39.9375 74.375 C38.50018564 73.73265737 37.06266826 73.0907689 35.625 72.44921875 C13.61053495 62.48061856 -14.61146917 48.06800607 -25.21484375 24.9921875 C-27.12109549 19.10652544 -27.14313263 13.66594118 -24.5 8.0625 C-17.62873441 0.48648922 -10.3535428 -4.85448213 0 0 Z " fill="#2D94C1" transform="translate(821.0625,421.625)"/>
<path d="M0 0 C6.14293273 3.00091201 11.43594601 7.32619045 16.8125 11.5 C33.91487864 24.4037227 52.80988009 28.85653619 74 27 C75.33500275 26.67341684 76.66842679 26.34029645 78 26 C94.69834047 24.73497421 94.69834047 24.73497421 100.44921875 29.26171875 C104.86748394 34.21418225 107.25937072 39.60261601 107.5 46.25 C107.22673181 50.50231965 106.69413589 53.57109977 104 57 C101.16254794 58.8398091 98.19083359 59.91088614 95 61 C93.95199219 61.37382813 92.90398437 61.74765625 91.82421875 62.1328125 C77.8378854 66.66292727 65.08120436 65.45104653 51 62 C50.2570166 61.82307617 49.5140332 61.64615234 48.74853516 61.46386719 C26.90505667 56.21708268 -4.13774604 48.11167893 -18 29 C-20.26673212 24.80654558 -20.55580338 20.67950592 -20 16 C-18.12779601 9.83273979 -14.56212288 5.50715755 -10 1 C-6.6498576 -0.6750712 -3.5951151 -0.69790978 0 0 Z " fill="#2D94C1" transform="translate(835,501)"/>
</svg>
