<?xml version="1.0" encoding="UTF-8"?>
<svg version="1.1" xmlns="http://www.w3.org/2000/svg" width="300" height="300">
<path d="M0 0 C1.47451108 -0.00599441 2.94901903 -0.01280204 4.42352295 -0.02035522 C8.40735817 -0.03793344 12.39110733 -0.04270724 16.37497759 -0.0439868 C18.87154933 -0.04541405 21.3680996 -0.04969454 23.86466599 -0.05498123 C32.59631474 -0.07345719 41.32790266 -0.08165524 50.05957031 -0.08007812 C58.16262232 -0.07887864 66.26540715 -0.09994932 74.36839163 -0.13156545 C81.35390033 -0.1578373 88.33932237 -0.16844082 95.32488 -0.16716731 C99.48419571 -0.1666607 103.64327391 -0.17217465 107.80253983 -0.19352341 C111.721237 -0.21308988 115.63947466 -0.21290675 119.55818939 -0.19849014 C120.98385425 -0.19642324 122.40954928 -0.20097392 123.83516312 -0.21321106 C144.42811881 -0.37830672 161.21378178 6.27641018 176.38037109 20.23974609 C180.7674855 24.72074816 183.74957019 29.6203404 186.57568359 35.16552734 C186.90133301 35.80103516 187.22698242 36.43654297 187.5625 37.09130859 C192.72080996 47.75664421 193.70408351 58.08520162 193.65136719 69.77685547 C193.6554409 71.30741244 193.66078723 72.83796647 193.66729736 74.36851501 C193.68088185 78.49457815 193.67570931 82.62041424 193.66616011 86.74648094 C193.65851721 91.08282416 193.66562189 95.41914911 193.6703186 99.75549316 C193.67576275 107.03494728 193.66861987 114.31430982 193.65429688 121.59375 C193.63797294 129.98658542 193.6432624 138.37920213 193.65977609 146.77203226 C193.6734293 154.0029583 193.67529194 161.23381885 193.66746008 168.46475363 C193.66280458 172.77252374 193.66209983 177.08019135 193.67206955 181.38795471 C193.68079302 185.43958742 193.67462012 189.49094061 193.65738678 193.54254341 C193.65345046 195.02148031 193.65450646 196.5004411 193.66117477 197.97936821 C193.73519067 216.07579488 188.39496484 232.86990535 175.75341797 246.18676758 C167.54596174 254.26162035 157.38967983 260.28715144 146.26318359 263.29052734 C145.02452545 263.63008453 143.78586731 263.96964172 142.50967407 264.31948853 C135.90606887 265.76476885 129.25377801 265.58654143 122.52636719 265.58105469 C121.05185611 265.5870491 119.57734815 265.59385672 118.10284424 265.60140991 C114.11900902 265.61898813 110.13525986 265.62376193 106.1513896 265.62504148 C103.65481785 265.62646873 101.15826759 265.63074922 98.6617012 265.63603592 C89.93005245 265.65451188 81.19846453 265.66270993 72.46679688 265.66113281 C64.36374487 265.65993332 56.26096003 265.68100401 48.15797555 265.71262014 C41.17246686 265.73889199 34.18704482 265.74949551 27.20148718 265.74822199 C23.04217148 265.74771539 18.88309328 265.75322934 14.72382736 265.77457809 C10.80513019 265.79414457 6.88689252 265.79396144 2.9681778 265.77954483 C1.54251294 265.77747793 0.1168179 265.78202861 -1.30879593 265.79426575 C-21.81921835 265.95869973 -38.83763424 259.38053573 -53.85400391 245.30615234 C-58.04747823 240.96582483 -61.15216766 236.2350476 -64.04931641 230.97802734 C-64.37496582 230.39851318 -64.70061523 229.81899902 -65.03613281 229.22192383 C-70.58467006 218.61680232 -71.17806411 207.43155504 -71.125 195.70654297 C-71.1290749 194.17746101 -71.1344219 192.64838201 -71.14093018 191.11930847 C-71.1545005 187.00150135 -71.1493481 182.88392202 -71.13979292 178.76611137 C-71.13214256 174.43558052 -71.13925674 170.10506783 -71.14395142 165.77453613 C-71.14939342 158.50525448 -71.14225835 151.23606457 -71.12792969 143.96679688 C-71.11160617 135.58929735 -71.11689578 127.21201695 -71.1334089 118.83452272 C-71.14706827 111.61290262 -71.14892177 104.39134808 -71.1410929 97.16971922 C-71.13644075 92.86919793 -71.13572323 88.56877927 -71.14570236 84.26826477 C-71.15443489 80.22318186 -71.14823677 76.17837861 -71.13101959 72.13332558 C-71.12708803 70.65803298 -71.12813087 69.18271642 -71.13480759 67.7074337 C-71.21123736 49.08809843 -66.11361867 33.1311227 -53.22705078 19.44482422 C-45.05380739 11.31606106 -34.87366481 5.29669761 -23.73681641 2.29052734 C-22.49815826 1.95097015 -21.25950012 1.61141296 -19.98330688 1.26156616 C-13.37970169 -0.18371417 -6.72741082 -0.00548674 0 0 Z " fill="#EA6608" transform="translate(88.73681640625,16.70947265625)"/>
<path d="M0 0 C4.29 0 8.58 0 13 0 C15.87415866 7.18539665 17.93851223 14.54934368 20 22 C22.55667866 19.10706881 24.45165557 16.24917355 26.12109375 12.79296875 C30.81788087 3.29667137 30.81788087 3.29667137 34 0 C38.72040889 -1.47805527 42.23450418 -0.92780323 47 0 C46.37389307 9.43716027 45.16155457 18.76183689 43.84326172 28.12133789 C43.49631174 30.58872968 43.15605277 33.05698398 42.81640625 35.52539062 C42.59674705 37.1016173 42.37670913 38.67779126 42.15625 40.25390625 C42.05517944 40.9882338 41.95410889 41.72256134 41.84997559 42.47914124 C41.42923233 45.44253157 40.94907266 48.15278203 40 51 C35.71 51 31.42 51 27 51 C27.144375 49.80761719 27.28875 48.61523438 27.4375 47.38671875 C27.62509224 45.82032354 27.81258717 44.25391668 28 42.6875 C28.09539062 41.90181641 28.19078125 41.11613281 28.2890625 40.30664062 C28.42441406 39.1706543 28.42441406 39.1706543 28.5625 38.01171875 C28.64628906 37.31522217 28.73007813 36.61872559 28.81640625 35.90112305 C29.04806201 33.82064322 29.04806201 33.82064322 29 31 C26.69 35.29 24.38 39.58 22 44 C19.03 44 16.06 44 13 44 C11.68 39.05 10.36 34.1 9 29 C8.86722656 30.16917969 8.73445313 31.33835938 8.59765625 32.54296875 C8.41937987 34.09115839 8.24098839 35.63933478 8.0625 37.1875 C7.97548828 37.95642578 7.88847656 38.72535156 7.79882812 39.51757812 C7.71181641 40.26845703 7.62480469 41.01933594 7.53515625 41.79296875 C7.456604 42.4789917 7.37805176 43.16501465 7.29711914 43.87182617 C6.96318354 46.2637051 6.4736356 48.63182198 6 51 C1.71 51 -2.58 51 -7 51 C-6.36634343 41.17112254 -5.21990932 31.49641758 -3.84326172 21.74829102 C-3.49526741 19.27891743 -3.15548599 16.80850248 -2.81640625 14.33789062 C-2.5968349 12.76295374 -2.37680054 11.18808131 -2.15625 9.61328125 C-2.05517944 8.87692947 -1.95410889 8.1405777 -1.84997559 7.38191223 C-1.11515057 2.23030115 -1.11515057 2.23030115 0 0 Z " fill="#FEFCFA" transform="translate(52,123)"/>
<path d="M0 0 C0.99 0.33 1.98 0.66 3 1 C3.84126612 5.06089895 4.67161887 9.12395474 5.5 13.1875 C5.85771484 14.91323242 5.85771484 14.91323242 6.22265625 16.67382812 C6.44824219 17.78564453 6.67382812 18.89746094 6.90625 20.04296875 C7.11572266 21.06414795 7.32519531 22.08532715 7.54101562 23.13745117 C7.97101791 25.81924732 8.08705161 28.29051865 8 31 C0.55289825 34.03743074 -6.75562916 35.61767392 -14.6875 36.75 C-15.56559326 36.87737549 -16.44368652 37.00475098 -17.34838867 37.13598633 C-22.9465784 37.88587995 -28.35292329 38.11442911 -34 38 C-34.0825 39.19625 -34.165 40.3925 -34.25 41.625 C-34.93073953 47.11954051 -37.73231349 51.47451984 -42 55 C-47.38272139 56.79424046 -53.98667464 57.15008584 -59.34375 55.10546875 C-61.25 54 -61.25 54 -64 52 C-62.62845496 49.04590299 -61.01136276 46.55991624 -59 44 C-58.01 44.33 -57.02 44.66 -56 45 C-54.60560336 45.06665376 -53.20830125 45.08538199 -51.8125 45.0625 C-50.554375 45.041875 -49.29625 45.02125 -48 45 C-47.67 44.34 -47.34 43.68 -47 43 C-47.58007812 43.05800781 -48.16015625 43.11601562 -48.7578125 43.17578125 C-53.06909032 43.42478244 -56.05339239 43.49522425 -59.5 40.6875 C-63.37100512 36.52616949 -63.18378651 33.1820242 -63.12890625 27.79003906 C-62.91976226 23.26333914 -62.2345817 18.84205088 -61.5 14.375 C-61.35691406 13.46621094 -61.21382812 12.55742187 -61.06640625 11.62109375 C-60.71775594 9.41297511 -60.35986556 7.2063186 -60 5 C-56.04 5 -52.08 5 -48 5 C-47.75951302 11.13241795 -48.50898723 16.80849618 -49.5625 22.8515625 C-49.99257839 25.94659095 -50.07495596 28.87995836 -50 32 C-48.68 32 -47.36 32 -46 32 C-44.68 23.09 -43.36 14.18 -42 5 C-37.71 5 -33.42 5 -29 5 C-30.32 15.56 -31.64 26.12 -33 37 C-20.33334597 34.51466746 -20.33334597 34.51466746 -8.1875 30.8125 C-0.20212766 28 -0.20212766 28 2 28 C1.7834375 26.97519531 1.566875 25.95039063 1.34375 24.89453125 C1.06224166 23.53390759 0.78100605 22.17322749 0.5 20.8125 C0.35691406 20.13896484 0.21382813 19.46542969 0.06640625 18.77148438 C-0.68069842 15.12490207 -1.17352282 11.72351043 -1 8 C-1.66644531 8.32613281 -2.33289063 8.65226563 -3.01953125 8.98828125 C-19.92598813 17.0040699 -19.92598813 17.0040699 -27 15 C-26.46632812 14.75878418 -25.93265625 14.51756836 -25.3828125 14.26904297 C-22.91719642 13.14767822 -20.45869178 12.01146198 -18 10.875 C-17.16082031 10.49601563 -16.32164062 10.11703125 -15.45703125 9.7265625 C-10.32394122 7.33907877 -6.01312002 4.71443259 -1.69140625 1.04345703 C-1.13324219 0.69911621 -0.57507813 0.35477539 0 0 Z " fill="#FEFBF8" transform="translate(258,132)"/>
<path d="M0 0 C3.97333735 2.02278993 6.74543325 4.15202977 9 8 C9.45694414 15.88725314 8.95615004 27.29929363 3.609375 33.65234375 C-1.55035317 38.14756147 -5.83825053 39.45823195 -12.52734375 39.3203125 C-17.06249014 38.73282118 -19.65066947 36.25937516 -22.875 33.25 C-26.05340771 26.89318458 -23.61728939 17.58998951 -22 11 C-17.77817918 2.06922519 -9.59260591 -1.75141381 0 0 Z " fill="#FEFAF8" transform="translate(121,136)"/>
<path d="M0 0 C2.8125 2.1875 2.8125 2.1875 4.8125 5.1875 C5.24229701 11.94145302 4.24080293 18.50539149 3.3125 25.1875 C3.16941406 26.24839844 3.02632812 27.30929688 2.87890625 28.40234375 C2.52813713 30.99803525 2.17096989 33.59286078 1.8125 36.1875 C-2.4775 36.1875 -6.7675 36.1875 -11.1875 36.1875 C-11.043125 34.9809375 -10.89875 33.774375 -10.75 32.53125 C-10.56226098 30.91669444 -10.37477446 29.30210951 -10.1875 27.6875 C-10.04441406 26.50027344 -10.04441406 26.50027344 -9.8984375 25.2890625 C-9.31642118 20.21720596 -9.09382915 15.29256141 -9.1875 10.1875 C-10.5075 9.8575 -11.8275 9.5275 -13.1875 9.1875 C-13.31596313 10.20118652 -13.31596313 10.20118652 -13.44702148 11.23535156 C-13.83720265 14.3030555 -14.23106148 17.3702764 -14.625 20.4375 C-14.75970703 21.50097656 -14.89441406 22.56445312 -15.03320312 23.66015625 C-15.16533203 24.68496094 -15.29746094 25.70976562 -15.43359375 26.765625 C-15.55404053 27.70825195 -15.6744873 28.65087891 -15.79858398 29.62207031 C-16.1875 32.1875 -16.1875 32.1875 -17.1875 36.1875 C-21.1475 36.1875 -25.1075 36.1875 -29.1875 36.1875 C-28.73045272 28.41769616 -27.93241548 20.81401579 -26.75 13.125 C-26.62778076 12.30410889 -26.50556152 11.48321777 -26.37963867 10.63745117 C-26.19365112 9.469198 -26.19365112 9.469198 -26.00390625 8.27734375 C-25.89506104 7.58503662 -25.78621582 6.89272949 -25.67407227 6.17944336 C-25.12380981 3.9267633 -24.40237234 2.16431779 -23.1875 0.1875 C-16.34641291 -2.89442446 -6.74946729 -3.70086337 0 0 Z " fill="#FEFBF9" transform="translate(158.1875,137.8125)"/>
<path d="M0 0 C3.85544798 1.99657127 5.59805092 3.39707638 8 7 C8.45168829 12.51059716 8.3609742 16.37866048 5 21 C-0.14730646 24.81019007 -4.73512265 25.44749124 -11 25 C-10.34 25.99 -9.68 26.98 -9 28 C-8.39671875 27.88140625 -7.7934375 27.7628125 -7.171875 27.640625 C-0.64183381 26.58739255 -0.64183381 26.58739255 2.625 28.6875 C4 31 4 31 3.8046875 33.00390625 C2.51839543 36.19465987 0.3403842 36.86896558 -2.6796875 38.23828125 C-7.85460214 39.93711686 -12.31170706 39.62529368 -17.375 37.75 C-20.09495567 35.93669622 -21.35887709 34.79984082 -23 32 C-24.00742311 23.20400464 -23.4146803 14.65049539 -19.3125 6.75 C-13.9483117 0.37096526 -8.1122975 -1.34982215 0 0 Z " fill="#FEFAF8" transform="translate(187,136)"/>
<path d="M0 0 C1.03769531 -0.02578125 2.07539063 -0.0515625 3.14453125 -0.078125 C6.63710798 0.29848148 8.42171061 1.10687523 11.1875 3.25 C13.8452241 6.75593392 13.59005051 10.89222796 13.625 15.125 C13.65787109 15.81980469 13.69074219 16.51460937 13.72460938 17.23046875 C13.76553203 21.18136544 13.2389864 23.67424267 10.78515625 26.6953125 C6.43571126 30.97281178 3.03319405 30.57843642 -2.8828125 30.54296875 C-6.60364145 30.17088586 -8.39446602 29.08493639 -10.8125 26.25 C-12.49556823 22.88386353 -12.08135525 19.13566492 -12.125 15.4375 C-12.15400391 14.62990234 -12.18300781 13.82230469 -12.21289062 12.99023438 C-12.25659359 8.88551763 -12.15456816 6.79378257 -9.91796875 3.23828125 C-6.58734427 0.09303476 -4.50292608 0.06662776 0 0 Z " fill="#085CA2" transform="translate(172.8125,99.75)"/>
<path d="M0 0 C1.02609375 -0.04898438 2.0521875 -0.09796875 3.109375 -0.1484375 C6.44975588 0.40829265 8.58111782 1.3642143 11.08544922 3.68115234 C13.4313018 7.09321213 13.06913971 10.87682633 12.9375 14.875 C12.95232422 15.71675781 12.96714844 16.55851562 12.98242188 17.42578125 C12.92255317 21.89832533 12.70010589 23.81073156 9.83203125 27.40625 C4.92641534 31.14668936 0.28936974 31.15756622 -5.75 30.375 C-8.92852316 28.73051311 -11.12801764 26.61896473 -12.75 23.375 C-12.95393196 20.58695878 -13.07370547 17.85338867 -13.125 15.0625 C-13.18107422 13.92264648 -13.18107422 13.92264648 -13.23828125 12.75976562 C-13.30567359 8.45039978 -13.15482199 6.87806055 -10.3515625 3.39453125 C-6.65620793 0.52591517 -4.643366 0.1501586 0 0 Z " fill="#085CA2" transform="translate(146.75,99.625)"/>
<path d="M0 0 C2.64 0 5.28 0 8 0 C8.84069415 1.60032137 9.67231505 3.20541171 10.5 4.8125 C10.9640625 5.70582031 11.428125 6.59914063 11.90625 7.51953125 C13 10 13 10 13 13 C13.66 13 14.32 13 15 13 C15.19335938 12.39671875 15.38671875 11.7934375 15.5859375 11.171875 C15.84632812 10.37265625 16.10671875 9.5734375 16.375 8.75 C16.75785156 7.56664063 16.75785156 7.56664063 17.1484375 6.359375 C17.95173667 4.13372042 18.89711662 2.09068328 20 0 C22.64 0 25.28 0 28 0 C28 9.9 28 19.8 28 30 C25.36 30 22.72 30 20 30 C19.67 27.03 19.34 24.06 19 21 C18.34 22.32 17.68 23.64 17 25 C15.02 25 13.04 25 11 25 C10.34 23.68 9.68 22.36 9 21 C8.67 23.97 8.34 26.94 8 30 C5.36 30 2.72 30 0 30 C0 20.1 0 10.2 0 0 Z " fill="#045CA5" transform="translate(104,100)"/>
<path d="M0 0 C2.64 0 5.28 0 8 0 C9.98 5.94 11.96 11.88 14 18 C14.45375 16.14375 14.9075 14.2875 15.375 12.375 C16.42097228 8.18119645 17.53048615 4.06942297 19 0 C21.97 0 24.94 0 28 0 C25.98086853 6.9550982 23.73400143 13.80030913 21.3125 20.625 C20.99216797 21.53378906 20.67183594 22.44257812 20.34179688 23.37890625 C19.56326686 25.58667793 18.78264756 27.79368537 18 30 C15.36 30 12.72 30 10 30 C8.5695796 26.21204894 7.1456021 22.42174552 5.72753906 18.62915039 C5.24427735 17.33942542 4.75926331 16.05035562 4.27246094 14.76196289 C3.57286085 12.90945042 2.88008767 11.05436431 2.1875 9.19921875 C1.76855469 8.08377686 1.34960938 6.96833496 0.91796875 5.8190918 C0 3 0 3 0 0 Z " fill="#075CA2" transform="translate(185,100)"/>
<path d="M0 0 C0.99 0.33 1.98 0.66 3 1 C3.84126612 5.06089895 4.67161887 9.12395474 5.5 13.1875 C5.73847656 14.33798828 5.97695313 15.48847656 6.22265625 16.67382812 C6.44824219 17.78564453 6.67382812 18.89746094 6.90625 20.04296875 C7.11572266 21.06414795 7.32519531 22.08532715 7.54101562 23.13745117 C7.97101791 25.81924732 8.08705161 28.29051865 8 31 C0.55289825 34.03743074 -6.75562916 35.61767392 -14.6875 36.75 C-15.56559326 36.87737549 -16.44368652 37.00475098 -17.34838867 37.13598633 C-22.9465784 37.88587995 -28.35292329 38.11442911 -34 38 C-33.67 36.68 -33.34 35.36 -33 34 C-33 34.99 -33 35.98 -33 37 C-22.81714013 35.28783772 -13.34181517 32.61872959 -3.60546875 29.20703125 C0 28 0 28 2 28 C1.7834375 26.97519531 1.566875 25.95039063 1.34375 24.89453125 C1.06224166 23.53390759 0.78100605 22.17322749 0.5 20.8125 C0.35691406 20.13896484 0.21382813 19.46542969 0.06640625 18.77148438 C-0.68069842 15.12490207 -1.17352282 11.72351043 -1 8 C-1.66644531 8.32613281 -2.33289063 8.65226563 -3.01953125 8.98828125 C-19.92598813 17.0040699 -19.92598813 17.0040699 -27 15 C-26.46632812 14.75878418 -25.93265625 14.51756836 -25.3828125 14.26904297 C-22.91719642 13.14767822 -20.45869178 12.01146198 -18 10.875 C-17.16082031 10.49601563 -16.32164062 10.11703125 -15.45703125 9.7265625 C-10.32394122 7.33907877 -6.01312002 4.71443259 -1.69140625 1.04345703 C-1.13324219 0.69911621 -0.57507813 0.35477539 0 0 Z " fill="#FDF1E9" transform="translate(258,132)"/>
<path d="M0 0 C0.495 2.97 0.495 2.97 1 6 C-9.23 6.66 -19.46 7.32 -30 8 C-26.720625 8.020625 -23.44125 8.04125 -20.0625 8.0625 C-19.04808838 8.071604 -18.03367676 8.08070801 -16.98852539 8.09008789 C-11.24125934 8.10737709 -5.69980661 7.74243635 0 7 C0 8.98 0 10.96 0 13 C-26.50693741 13.81980219 -26.50693741 13.81980219 -38 8 C-38.33 7.01 -38.66 6.02 -39 5 C-37.95042114 4.93268677 -37.95042114 4.93268677 -36.87963867 4.86401367 C-33.64804082 4.65010113 -30.41789143 4.41889296 -27.1875 4.1875 C-26.08728516 4.11724609 -24.98707031 4.04699219 -23.85351562 3.97460938 C-17.37280919 3.49668117 -11.45046563 2.53329901 -5.2355957 0.61450195 C-3 0 -3 0 0 0 Z " fill="#FDF2EA" transform="translate(264,166)"/>
<path d="M0 0 C3.5 0.125 3.5 0.125 4.5 1.125 C4.62537741 3.26807896 4.67574364 5.41578886 4.6875 7.5625 C4.70167969 8.73683594 4.71585938 9.91117188 4.73046875 11.12109375 C4.5 14.125 4.5 14.125 2.5 16.125 C-0.5625 16.3125 -0.5625 16.3125 -3.5 16.125 C-4.5 15.125 -4.5 15.125 -4.6328125 12 C-4.63023437 10.72125 -4.62765625 9.4425 -4.625 8.125 C-4.62757813 6.84625 -4.63015625 5.5675 -4.6328125 4.25 C-4.45895556 0.15924841 -4.45895556 0.15924841 0 0 Z " fill="#E7650A" transform="translate(173.5,106.875)"/>
<path d="M0 0 C3.5 0.125 3.5 0.125 4.5 1.125 C4.59909302 3.45660055 4.62970504 5.79129942 4.625 8.125 C4.62757813 9.40375 4.63015625 10.6825 4.6328125 12 C4.5 15.125 4.5 15.125 3.5 16.125 C0.5625 16.3125 0.5625 16.3125 -2.5 16.125 C-4.5 14.125 -4.5 14.125 -4.73046875 11.12109375 C-4.71628906 9.94675781 -4.70210937 8.77242187 -4.6875 7.5625 C-4.67783203 5.79712891 -4.67783203 5.79712891 -4.66796875 3.99609375 C-4.42256329 -0.19862756 -4.31559736 0.15412848 0 0 Z " fill="#E7650A" transform="translate(146.5,106.875)"/>
<path d="M0 0 C0.33 1.98 0.66 3.96 1 6 C-9.62280106 7.39315424 -20.31126627 7.09675083 -31 7 C-31 6.34 -31 5.68 -31 5 C-30.10075806 4.87939209 -30.10075806 4.87939209 -29.18334961 4.75634766 C-26.43398653 4.38453257 -23.68576722 4.00482696 -20.9375 3.625 C-19.52307617 3.43550781 -19.52307617 3.43550781 -18.08007812 3.2421875 C-12.14647273 2.41520417 -5.89478874 0 0 0 Z " fill="#FEF9F5" transform="translate(264,166)"/>
<path d="M0 0 C2.0625 0.4375 2.0625 0.4375 4 1 C3.85975781 3.47960136 3.7130815 5.95852402 3.5625 8.4375 C3.52318359 9.14455078 3.48386719 9.85160156 3.44335938 10.58007812 C3.11328125 15.88671875 3.11328125 15.88671875 2 17 C0.33382885 17.04063832 -1.33388095 17.042721 -3 17 C-3.05449838 15.27119018 -3.09301688 13.54187288 -3.125 11.8125 C-3.14820312 10.84957031 -3.17140625 9.88664063 -3.1953125 8.89453125 C-2.97452391 5.62244439 -2.40318706 2.40318706 0 0 Z " fill="#EB6D13" transform="translate(113,147)"/>
<path d="M0 0 C-0.33 1.32 -0.66 2.64 -1 4 C-1 3.34 -1 2.68 -1 2 C-1.85980469 2.27714844 -2.71960938 2.55429688 -3.60546875 2.83984375 C-23.6965128 8.99642323 -23.6965128 8.99642323 -30.17138672 5.99267578 C-30.7748291 5.66509277 -31.37827148 5.33750977 -32 5 C-31.11646851 4.88724731 -31.11646851 4.88724731 -30.21508789 4.7722168 C-27.49627155 4.41988121 -24.77947257 4.05377196 -22.0625 3.6875 C-20.67321289 3.51057617 -20.67321289 3.51057617 -19.25585938 3.33007812 C-13.81858583 2.58603017 -8.90174322 1.47719105 -3.77514648 -0.50073242 C-2 -1 -2 -1 0 0 Z " fill="#EE8235" transform="translate(265,164)"/>
<path d="M0 0 C0 0.66 0 1.32 0 2 C-3.35855523 2.75290853 -6.46650994 3.12809129 -9.90625 3.1328125 C-11.26943359 3.13474609 -11.26943359 3.13474609 -12.66015625 3.13671875 C-13.59730469 3.13285156 -14.53445312 3.12898437 -15.5 3.125 C-16.90572266 3.13080078 -16.90572266 3.13080078 -18.33984375 3.13671875 C-19.24863281 3.13542969 -20.15742188 3.13414062 -21.09375 3.1328125 C-21.91552734 3.13168457 -22.73730469 3.13055664 -23.58398438 3.12939453 C-26.13607433 2.99271227 -28.50895043 2.55843431 -31 2 C-31 1.67 -31 1.34 -31 1 C-26.95841399 0.83133892 -22.91671968 0.66542437 -18.875 0.5 C-17.73289063 0.45230469 -16.59078125 0.40460938 -15.4140625 0.35546875 C-14.30546875 0.31035156 -13.196875 0.26523438 -12.0546875 0.21875 C-10.53077393 0.1559082 -10.53077393 0.1559082 -8.97607422 0.09179688 C-5.98198857 -0.00055556 -2.99530376 -0.01562088 0 0 Z " fill="#EE8236" transform="translate(260,172)"/>
<path d="M0 0 C2.625 0.375 2.625 0.375 5 1 C4.125 5.875 4.125 5.875 3 7 C1.33382885 7.04063832 -0.33388095 7.042721 -2 7 C-2.125 4.625 -2.125 4.625 -2 2 C-1.34 1.34 -0.68 0.68 0 0 Z " fill="#ED7521" transform="translate(179,146)"/>
<path d="M0 0 C-3.32307692 3.93846154 -3.32307692 3.93846154 -6.75 4.25 C-7.4925 4.1675 -8.235 4.085 -9 4 C-9.66 2.68 -10.32 1.36 -11 0 C-3.375 -1.125 -3.375 -1.125 0 0 Z " fill="#EC711B" transform="translate(187,161)"/>
<path d="M0 0 C0.99 0.33 1.98 0.66 3 1 C2.67 5.29 2.34 9.58 2 14 C-1 11 -1 11 -1.07421875 8.30078125 C-0.94660156 7.31464844 -0.81898438 6.32851562 -0.6875 5.3125 C-0.56761719 4.31863281 -0.44773438 3.32476562 -0.32421875 2.30078125 C-0.21722656 1.54152344 -0.11023438 0.78226563 0 0 Z " fill="#EE8235" transform="translate(162,151)"/>
<path d="M0 0 C0.66 0.33 1.32 0.66 2 1 C-0.60313168 4.90469752 -2.49467394 5.06786357 -7 6 C-9.2265625 5.546875 -9.2265625 5.546875 -11 5 C-9.21289414 4.13633178 -7.4201535 3.28431406 -5.625 2.4375 C-4.62726563 1.96183594 -3.62953125 1.48617187 -2.6015625 0.99609375 C-1.74304688 0.66738281 -0.88453125 0.33867187 0 0 Z " fill="#FCE9DC" transform="translate(242,142)"/>
<path d="M0 0 C0.99 0.33 1.98 0.66 3 1 C2.67 3.97 2.34 6.94 2 10 C1.01 9.67 0.02 9.34 -1 9 C-0.67 6.03 -0.34 3.06 0 0 Z " fill="#EC721B" transform="translate(129,151)"/>
<path d="M0 0 C2.64 0 5.28 0 8 0 C8 0.66 8 1.32 8 2 C6.68 2 5.36 2 4 2 C4 2.66 4 3.32 4 4 C3.01 3.67 2.02 3.34 1 3 C0.67 2.01 0.34 1.02 0 0 Z " fill="#F6BF98" transform="translate(225,171)"/>
</svg>
