<?xml version="1.0" encoding="UTF-8"?>
<svg version="1.1" xmlns="http://www.w3.org/2000/svg" width="225" height="225">
<path d="M0 0 C74.25 0 148.5 0 225 0 C225 74.25 225 148.5 225 225 C150.75 225 76.5 225 0 225 C0 150.75 0 76.5 0 0 Z " fill="#FDCB00" transform="translate(0,0)"/>
<path d="M0 0 C4 5.25714286 4 5.25714286 4 8 C4.84820312 8.11214844 5.69640625 8.22429687 6.5703125 8.33984375 C10.23132877 9.04452684 13.41386997 10.18511152 16.875 11.5625 C18.02742188 12.01753906 19.17984375 12.47257812 20.3671875 12.94140625 C21.23601562 13.29074219 22.10484375 13.64007813 23 14 C23.40202372 20.05918017 22.04092898 24.56233737 19.89453125 30.1953125 C19.57344894 31.06461395 19.25236664 31.93391541 18.92155457 32.82955933 C17.89577865 35.59877441 16.85437187 38.36180611 15.8125 41.125 C15.1311379 42.95795317 14.45078995 44.79128367 13.77148438 46.625 C11.86611222 51.75703036 9.93643086 56.87962352 8 62 C7.73169373 62.71281128 7.46338745 63.42562256 7.18695068 64.16003418 C6.48578688 66.02191483 5.78018927 67.88212411 5.07421875 69.7421875 C4.69225342 70.74878418 4.31028809 71.75538086 3.91674805 72.79248047 C3 75 3 75 2 76 C-4.66566299 76.07439356 -10.13789736 73.97955572 -16 71 C-16 70.34 -16 69.68 -16 69 C-14.02 69 -12.04 69 -10 69 C-9.67 67.68 -9.34 66.36 -9 65 C-11.31 65 -13.62 65 -16 65 C-16 64.34 -16 63.68 -16 63 C-18.31 62.34 -20.62 61.68 -23 61 C-22.67 62.32 -22.34 63.64 -22 65 C-23.98 65.99 -23.98 65.99 -26 67 C-27.17990623 63.58047052 -26.82174144 61.69519716 -25.56640625 58.33984375 C-25.24736328 57.46392578 -24.92832031 56.58800781 -24.59960938 55.68554688 C-24.25736328 54.77869141 -23.91511719 53.87183594 -23.5625 52.9375 C-22.89301867 51.13563881 -22.22747311 49.33230901 -21.56640625 47.52734375 C-21.26677979 46.73062256 -20.96715332 45.93390137 -20.65844727 45.11303711 C-19.85124883 42.89151457 -19.85124883 42.89151457 -20 40 C-22.37413326 39.0394728 -24.74925519 38.08152647 -27.125 37.125 C-27.79015625 36.85558594 -28.4553125 36.58617187 -29.140625 36.30859375 C-33.0557408 34.73487073 -36.97956537 33.290046 -41 32 C-40.33826757 28.54367441 -38.96580877 25.98161158 -37.1640625 22.97265625 C-36.59429687 22.01552734 -36.02453125 21.05839844 -35.4375 20.07226562 C-34.839375 19.07904297 -34.24125 18.08582031 -33.625 17.0625 C-33.03460938 16.07314453 -32.44421875 15.08378906 -31.8359375 14.06445312 C-30.22885904 11.37332061 -28.6156874 8.68596988 -27 6 C-25.99985161 4.33342238 -24.99980762 2.66678208 -24 1 C-21.36 1.33 -18.72 1.66 -16 2 C-16 2.66 -16 3.32 -16 4 C-9.18149233 4.54548061 -5.99363984 0 0 0 Z " fill="#086182" transform="translate(70,68)"/>
<path d="M0 0 C2.64 0.33 5.28 0.66 8 1 C7.01 1.33 6.02 1.66 5 2 C4.67 2.66 4.34 3.32 4 4 C3.01 3.67 2.02 3.34 1 3 C0.72365723 3.73065674 0.44731445 4.46131348 0.16259766 5.21411133 C-0.92703366 7.82515353 -2.15697675 10.14581584 -3.6015625 12.57421875 C-4.33632813 13.82235352 -4.33632813 13.82235352 -5.0859375 15.09570312 C-6.11916062 16.83566134 -7.15302363 18.57523973 -8.1875 20.31445312 C-8.67476562 21.14267578 -9.16203125 21.97089844 -9.6640625 22.82421875 C-10.11217285 23.57791748 -10.5602832 24.33161621 -11.02197266 25.1081543 C-12.15307756 26.94115551 -12.15307756 26.94115551 -12 29 C-10.85144531 29.4125 -9.70289063 29.825 -8.51953125 30.25 C5.75542627 35.50619319 18.74673648 41.31960184 28 54 C28 54.66 28 55.32 28 56 C28.66 56 29.32 56 30 56 C30 50.72 30 45.44 30 40 C30.33 40 30.66 40 31 40 C31 42.64 31 45.28 31 48 C31.66 48 32.32 48 33 48 C33.33 45.69 33.66 43.38 34 41 C34.66 41 35.32 41 36 41 C36.15855469 40.46375 36.31710938 39.9275 36.48046875 39.375 C38.90674094 31.22487022 41.45333183 23.11310098 44 15 C41.36 14.34 38.72 13.68 36 13 C36.33 12.01 36.66 11.02 37 10 C41.95 11.485 41.95 11.485 47 13 C47.40202372 19.05918017 46.04092898 23.56233737 43.89453125 29.1953125 C43.57344894 30.06461395 43.25236664 30.93391541 42.92155457 31.82955933 C41.89577865 34.59877441 40.85437187 37.36180611 39.8125 40.125 C39.1311379 41.95795317 38.45078995 43.79128367 37.77148438 45.625 C35.86611222 50.75703036 33.93643086 55.87962352 32 61 C31.73169373 61.71281128 31.46338745 62.42562256 31.18695068 63.16003418 C30.48578688 65.02191483 29.78018927 66.88212411 29.07421875 68.7421875 C28.69225342 69.74878418 28.31028809 70.75538086 27.91674805 71.79248047 C27 74 27 74 26 75 C19.33433701 75.07439356 13.86210264 72.97955572 8 70 C8 69.34 8 68.68 8 68 C9.98 68 11.96 68 14 68 C14.33 66.68 14.66 65.36 15 64 C12.69 64 10.38 64 8 64 C8 63.34 8 62.68 8 62 C5.69 61.34 3.38 60.68 1 60 C1.33 61.32 1.66 62.64 2 64 C0.02 64.99 0.02 64.99 -2 66 C-3.17990623 62.58047052 -2.82174144 60.69519716 -1.56640625 57.33984375 C-1.24736328 56.46392578 -0.92832031 55.58800781 -0.59960938 54.68554688 C-0.25736328 53.77869141 0.08488281 52.87183594 0.4375 51.9375 C1.10698133 50.13563881 1.77252689 48.33230901 2.43359375 46.52734375 C2.73322021 45.73062256 3.03284668 44.93390137 3.34155273 44.11303711 C4.14875117 41.89151457 4.14875117 41.89151457 4 39 C1.62586674 38.0394728 -0.74925519 37.08152647 -3.125 36.125 C-3.79015625 35.85558594 -4.4553125 35.58617187 -5.140625 35.30859375 C-9.0557408 33.73487073 -12.97956537 32.290046 -17 31 C-16.33826757 27.54367441 -14.96580877 24.98161158 -13.1640625 21.97265625 C-12.59429687 21.01552734 -12.02453125 20.05839844 -11.4375 19.07226562 C-10.839375 18.07904297 -10.24125 17.08582031 -9.625 16.0625 C-9.03460938 15.07314453 -8.44421875 14.08378906 -7.8359375 13.06445312 C-6.22885904 10.37332061 -4.6156874 7.68596988 -3 5 C-1.99985161 3.33342238 -0.99980762 1.66678208 0 0 Z " fill="#EDF3E7" transform="translate(46,69)"/>
<path d="M0 0 C4 5.25714286 4 5.25714286 4 8 C4.928125 8.103125 5.85625 8.20625 6.8125 8.3125 C10.03254358 9.0070192 11.02579865 9.47740939 13 12 C12.67 12.66 12.34 13.32 12 14 C13.423125 14.2165625 13.423125 14.2165625 14.875 14.4375 C18 15 18 15 20 16 C19.41631082 22.05885808 17.61261739 27.27358046 15.4375 32.9375 C15.10814453 33.81212891 14.77878906 34.68675781 14.43945312 35.58789062 C13.63262162 37.72774809 12.81936819 39.86491864 12 42 C11.34 42 10.68 42 10 42 C9.67 44.31 9.34 46.62 9 49 C8.34 49 7.68 49 7 49 C6.77957031 47.15148437 6.77957031 47.15148437 6.5546875 45.265625 C4.93049876 32.8403297 2.65411458 21.38968059 -6.98828125 12.52734375 C-10.16185186 10.117895 -13.56218581 8.16363961 -17.05859375 6.26171875 C-17.69925781 5.84535156 -18.33992188 5.42898437 -19 5 C-19 4.34 -19 3.68 -19 3 C-18.02160156 3.17789063 -18.02160156 3.17789063 -17.0234375 3.359375 C-11.06894516 4.27234908 -11.06894516 4.27234908 -5.5625 2.0625 C-3 0 -3 0 0 0 Z " fill="#F8F9E2" transform="translate(70,68)"/>
<path d="M0 0 C2.87029869 1.79393668 4.49131638 2.98263276 6 6 C6.54399285 10.539219 6.62289461 13.9544269 4.25 17.9375 C1.18309235 20.74883201 -0.72097592 21.77261794 -4.8125 22.5 C-9.353873 21.78762776 -11.90467228 19.29145042 -15 16 C-16.77234774 12.45530451 -16.02306495 8.73193502 -15 5 C-10.79155697 -0.15534271 -6.53779062 -1.33645444 0 0 Z " fill="#E9F3F4" transform="translate(58,80)"/>
<path d="M0 0 C1.98 0 3.96 0 6 0 C6 7.26 6 14.52 6 22 C4.02 22 2.04 22 0 22 C-0.495 17.05 -0.495 17.05 -1 12 C-1.99 13.32 -2.98 14.64 -4 16 C-5.875 15.75 -5.875 15.75 -8 15 C-9.25 12.9375 -9.25 12.9375 -10 11 C-10.66 11 -11.32 11 -12 11 C-12 14.63 -12 18.26 -12 22 C-13.65 22 -15.3 22 -17 22 C-17 15.07 -17 8.14 -17 1 C-11 1 -11 1 -9.3203125 2.53125 C-8.92585937 3.1809375 -8.53140625 3.830625 -8.125 4.5 C-7.71507812 5.1496875 -7.30515625 5.799375 -6.8828125 6.46875 C-6.44582031 7.22671875 -6.44582031 7.22671875 -6 8 C-3.87961365 5.38485683 -1.86908256 2.80362384 0 0 Z " fill="#035E78" transform="translate(169,111)"/>
<path d="M0 0 C1.98 0 3.96 0 6 0 C8.375 3 8.375 3 10 6 C13.21495376 5.31735356 13.21495376 5.31735356 14.3125 2.4375 C14.869375 1.633125 15.42625 0.82875 16 0 C17.98 0 19.96 0 22 0 C22 6.93 22 13.86 22 21 C20.35 21 18.7 21 17 21 C16.67 17.37 16.34 13.74 16 10 C15.38125 11.2375 15.38125 11.2375 14.75 12.5 C14.1725 13.325 13.595 14.15 13 15 C11.68 15 10.36 15 9 15 C8.01 13.68 7.02 12.36 6 11 C5.67 14.3 5.34 17.6 5 21 C3.35 21 1.7 21 0 21 C0 14.07 0 7.14 0 0 Z " fill="#025C7A" transform="translate(105,112)"/>
<path d="M0 0 C7.78466831 2.8233128 14.08947233 7.83933837 18.203125 15.06640625 C19.32224273 17.78191251 19.36103019 20.11175851 19 23 C10.50836915 21.5102402 2.9105161 18.31428738 -5 15 C-4.37321829 11.33827525 -3.35548154 8.1181005 -1.9375 4.6875 C-1.39416016 3.36298828 -1.39416016 3.36298828 -0.83984375 2.01171875 C-0.56269531 1.34785156 -0.28554688 0.68398437 0 0 Z " fill="#D8071D" transform="translate(54,110)"/>
<path d="M0 0 C2.53308198 0.70364701 5.0021879 1.4765828 7.47973633 2.35571289 C8.3659668 2.66831055 9.25219727 2.9809082 10.1652832 3.30297852 C11.07729492 3.6284668 11.98930664 3.95395508 12.92895508 4.28930664 C13.86030273 4.61866211 14.79165039 4.94801758 15.7512207 5.28735352 C18.04072231 6.09748485 20.32906966 6.91072348 22.61645508 7.72680664 C22.61645508 5.74680664 22.61645508 3.76680664 22.61645508 1.72680664 C23.93645508 2.38680664 25.25645508 3.04680664 26.61645508 3.72680664 C25.58782723 9.1724835 24.37030724 13.84497781 21.61645508 18.72680664 C14.79658479 18.293799 9.70002487 16.8189284 3.61645508 13.72680664 C3.61645508 13.06680664 3.61645508 12.40680664 3.61645508 11.72680664 C5.59645508 11.72680664 7.57645508 11.72680664 9.61645508 11.72680664 C9.94645508 10.40680664 10.27645508 9.08680664 10.61645508 7.72680664 C8.30645508 7.72680664 5.99645508 7.72680664 3.61645508 7.72680664 C3.61645508 7.06680664 3.61645508 6.40680664 3.61645508 5.72680664 C1.30645508 5.06680664 -1.00354492 4.40680664 -3.38354492 3.72680664 C-3.05354492 5.04680664 -2.72354492 6.36680664 -2.38354492 7.72680664 C-4.36354492 8.71680664 -4.36354492 8.71680664 -6.38354492 9.72680664 C-7.25845496 7.27705854 -7.51255095 6.09232371 -6.63354492 3.60180664 C-4.80072325 0.85257414 -3.36038035 -0.38515473 0 0 Z " fill="#F1EDEE" transform="translate(50.383544921875,125.273193359375)"/>
<path d="M0 0 C1.48463913 3.86377915 0.45843359 6.24274366 -0.984375 10.015625 C-1.42523438 11.18480469 -1.86609375 12.35398437 -2.3203125 13.55859375 C-2.79210937 14.77675781 -3.26390625 15.99492188 -3.75 17.25 C-4.20632812 18.45269531 -4.66265625 19.65539062 -5.1328125 20.89453125 C-6.01755057 23.22400055 -6.90733272 25.55156186 -7.80273438 27.87695312 C-8.8120386 30.50970592 -9.79507255 33.14969911 -10.765625 35.796875 C-12 39 -12 39 -13 40 C-20.27931818 39.64777493 -26.26962925 37.6921483 -33 35 C-33.95261719 34.63132813 -34.90523437 34.26265625 -35.88671875 33.8828125 C-42.83182084 31.16817916 -42.83182084 31.16817916 -44 30 C-44.5324209 23.29910265 -43.04141224 18.27133701 -40.625 12.0625 C-40.30789062 11.20076172 -39.99078125 10.33902344 -39.6640625 9.45117188 C-37.27612518 3.13806259 -37.27612518 3.13806259 -35 2 C-36.32123397 8.96650638 -38.523551 15.36512624 -41.07421875 21.9609375 C-42.32102421 25.00185323 -42.32102421 25.00185323 -41 28 C-40.34 27.34 -39.68 26.68 -39 26 C-39 25.01 -39 24.02 -39 23 C-35.64566891 23.94933899 -32.30753495 24.89748835 -29 26 C-27.33637583 26.34820041 -25.67004829 26.68404492 -24 27 C-24.3125 28.9375 -24.3125 28.9375 -25 31 C-28.13349732 32.04449911 -28.98968256 31.93423645 -32 31 C-30.56277592 33.87444817 -28.79165095 34.03947941 -25.8125 35.125 C-24.87019531 35.47820312 -23.92789063 35.83140625 -22.95703125 36.1953125 C-19.84204296 37.04298435 -17.21256183 37.14278053 -14 37 C-13.75354736 36.34104736 -13.50709473 35.68209473 -13.25317383 35.00317383 C-4.20289345 10.8134746 -4.20289345 10.8134746 0 0 Z " fill="#828079" transform="translate(86,106)"/>
<path d="M0 0 C3 1.5625 3 1.5625 5 4 C5.69990157 8.27717625 5.50342498 10.2280817 3.125 13.875 C0.5616295 16.4383705 -0.26029757 16.95175854 -3.875 17.1875 C-6.94628429 17.00322294 -8.48618314 16.7058043 -11 15 C-13.4493569 11.32596466 -13.81585672 8.26821885 -13 4 C-9.46105472 -0.4236816 -5.3392117 -1.04416035 0 0 Z " fill="#075E75" transform="translate(191,117)"/>
<path d="M0 0 C3.50368509 2.43112843 4.75445216 3.82137038 5.625 8 C4.79930566 11.96333283 3.06558569 13.44534526 0 16 C-2.88861709 17.44430855 -4.79647701 17.37688506 -8 17 C-10.86972996 15.00366611 -12.65210765 13.52770117 -13.44921875 10.02734375 C-13.62867039 6.71677043 -13.21260906 4.36975488 -11.5625 1.5 C-7.73473876 -0.74064073 -4.32011646 -0.8840096 0 0 Z " fill="#0C5D6F" transform="translate(144,117)"/>
<path d="M0 0 C3.3 0.99 6.6 1.98 10 3 C10.4400063 9.21508905 8.92007307 13.87778955 6.71875 19.65234375 C6.38580933 20.55247696 6.05286865 21.45261017 5.70983887 22.38002014 C4.65048808 25.23659025 3.57552908 28.08698703 2.5 30.9375 C1.77630319 32.88047212 1.05363563 34.82382792 0.33203125 36.76757812 C-1.43342761 41.51624359 -3.21290221 46.25943794 -5 51 C-6.98 50.01 -8.96 49.02 -11 48 C-11 46.35 -11 44.7 -11 43 C-10.34 43.33 -9.68 43.66 -9 44 C-9 44.66 -9 45.32 -9 46 C-8.34 46 -7.68 46 -7 46 C-7 40.72 -7 35.44 -7 30 C-6.67 30 -6.34 30 -6 30 C-6 32.64 -6 35.28 -6 38 C-5.34 38 -4.68 38 -4 38 C-3.67 35.69 -3.34 33.38 -3 31 C-2.34 31 -1.68 31 -1 31 C-0.84144531 30.46375 -0.68289062 29.9275 -0.51953125 29.375 C1.90674094 21.22487022 4.45333183 13.11310098 7 5 C4.36 4.34 1.72 3.68 -1 3 C-0.67 2.01 -0.34 1.02 0 0 Z " fill="#E3E7E6" transform="translate(83,79)"/>
<path d="M0 0 C3.25312918 0.58681665 6.23351164 1.3622164 9.3125 2.5625 C10.529375 3.036875 11.74625 3.51125 13 4 C12.41631082 10.05885808 10.61261739 15.27358046 8.4375 20.9375 C8.10814453 21.81212891 7.77878906 22.68675781 7.43945312 23.58789062 C6.63262162 25.72774809 5.81936819 27.86491864 5 30 C4.67 30 4.34 30 4 30 C3.96261719 28.92363281 3.92523438 27.84726563 3.88671875 26.73828125 C3.49398876 17.47347219 2.48097431 8.97207692 0 0 Z " fill="#181A19" transform="translate(77,80)"/>
<path d="M0 0 C1.32 0 2.64 0 4 0 C4 4.95 4 9.9 4 15 C-2.12767526 13.77446495 -2.48181521 12.72441958 -6 8 C-6.33 10.31 -6.66 12.62 -7 15 C-7.99 15 -8.98 15 -10 15 C-10 10.38 -10 5.76 -10 1 C-4.54050926 2.09189815 -3.98528919 2.68791562 -1 7 C-0.67 4.69 -0.34 2.38 0 0 Z " fill="#337262" transform="translate(147,91)"/>
<path d="M0 0 C5.02137798 1.0042756 5.86243419 1.39760962 9 5 C9.66 3.35 10.32 1.7 11 0 C12.32 0 13.64 0 15 0 C15 4.62 15 9.24 15 14 C13.68 14 12.36 14 11 14 C10.67 12.02 10.34 10.04 10 8 C9.67 8.66 9.34 9.32 9 10 C8.01 10 7.02 10 6 10 C5.34 9.01 4.68 8.02 4 7 C3.67 9.31 3.34 11.62 3 14 C2.01 14 1.02 14 0 14 C0 9.38 0 4.76 0 0 Z " fill="#065D73" transform="translate(104,92)"/>
<path d="M0 0 C2.64 0.33 5.28 0.66 8 1 C7.01 1.33 6.02 1.66 5 2 C4.67 2.66 4.34 3.32 4 4 C3.01 3.67 2.02 3.34 1 3 C0.72365723 3.73065674 0.44731445 4.46131348 0.16259766 5.21411133 C-0.92703366 7.82515353 -2.15697675 10.14581584 -3.6015625 12.57421875 C-4.33632813 13.82235352 -4.33632813 13.82235352 -5.0859375 15.09570312 C-6.11916062 16.83566134 -7.15302363 18.57523973 -8.1875 20.31445312 C-8.67476562 21.14267578 -9.16203125 21.97089844 -9.6640625 22.82421875 C-10.11217285 23.57791748 -10.5602832 24.33161621 -11.02197266 25.1081543 C-12.15307756 26.94115551 -12.15307756 26.94115551 -12 29 C-10.2984375 29.6496875 -10.2984375 29.6496875 -8.5625 30.3125 C-7.386875 30.869375 -6.21125 31.42625 -5 32 C-4.67 32.99 -4.34 33.98 -4 35 C-5.79236067 34.52343588 -7.58386897 34.04366502 -9.375 33.5625 C-10.37273438 33.29566406 -11.37046875 33.02882812 -12.3984375 32.75390625 C-15 32 -15 32 -17 31 C-16.33826757 27.54367441 -14.96580877 24.98161158 -13.1640625 21.97265625 C-12.59429687 21.01552734 -12.02453125 20.05839844 -11.4375 19.07226562 C-10.839375 18.07904297 -10.24125 17.08582031 -9.625 16.0625 C-9.03460938 15.07314453 -8.44421875 14.08378906 -7.8359375 13.06445312 C-6.22885904 10.37332061 -4.6156874 7.68596988 -3 5 C-1.99985161 3.33342238 -0.99980762 1.66678208 0 0 Z " fill="#F0F4E3" transform="translate(46,69)"/>
<path d="M0 0 C1.9375 0.375 1.9375 0.375 4 1 C5.72869779 4.45739557 5.48966895 8.21975568 5 12 C3.20606332 14.87029869 2.01736724 16.49131638 -1 18 C-2.99960012 18.039992 -5.00047242 18.04346799 -7 18 C-6.42655063 15.13275314 -6.1385485 14.1385485 -4 12 C-4.66 10.68 -5.32 9.36 -6 8 C-4.68 7.34 -3.36 6.68 -2 6 C-2 5.01 -2 4.02 -2 3 C-1.34 2.67 -0.68 2.34 0 2 C0 1.34 0 0.68 0 0 Z " fill="#F4FAFA" transform="translate(59,83)"/>
<path d="M0 0 C0.6875 1.625 0.6875 1.625 1 4 C-0.4375 7.25 -0.4375 7.25 -2 10 C-8.81987029 9.56699236 -13.91643021 8.09212176 -20 5 C-20 4.34 -20 3.68 -20 3 C-18.6078125 3.061875 -18.6078125 3.061875 -17.1875 3.125 C-13.84190281 3.27136339 -13.84190281 3.27136339 -11 1 C-8.5546875 0.83984375 -8.5546875 0.83984375 -5.875 0.9375 C-4.25076856 0.99164105 -2.62500568 1.02038538 -1 1 C-0.67 0.67 -0.34 0.34 0 0 Z " fill="#EDEDEC" transform="translate(74,134)"/>
<path d="M0 0 C2.80362763 -0.22732116 4.46186517 -0.34081872 6.875 1.1875 C8 3 8 3 7.6875 5.6875 C7.460625 6.450625 7.23375 7.21375 7 8 C7.99 8 8.98 8 10 8 C9 11 9 11 7.3125 12.1875 C4.34188837 13.23122841 2.13116478 13.326163 -1 13 C-3.375 11.6875 -3.375 11.6875 -5 10 C-5 9.01 -5 8.02 -5 7 C-3.68 7.33 -2.36 7.66 -1 8 C-1.020625 7.05125 -1.04125 6.1025 -1.0625 5.125 C-1 2 -1 2 0 0 Z " fill="#126376" transform="translate(137,121)"/>
<path d="M0 0 C5.13528637 2.90793325 7.60013518 11.521143 9.3203125 16.9765625 C9.94651023 20.10755115 10.10063846 22.91738041 9.9453125 26.1015625 C8.15715814 23.41933095 6.77004824 20.78518719 5.3203125 17.9140625 C2.32690865 12.34218207 -1.34349655 8.27467327 -6.0546875 4.1015625 C-2.6872792 0.13283129 -2.6872792 0.13283129 0 0 Z " fill="#096080" transform="translate(68.0546875,71.8984375)"/>
<path d="M0 0 C0 6.6 0 13.2 0 20 C-1.32 20 -2.64 20 -4 20 C-4 16.37 -4 12.74 -4 9 C-5.98 9.33 -7.96 9.66 -10 10 C-7.04545455 0 -7.04545455 0 0 0 Z " fill="#016082" transform="translate(174,112)"/>
<path d="M0 0 C1.65 0 3.3 0 5 0 C5.25265625 0.57878906 5.5053125 1.15757813 5.765625 1.75390625 C7.14231809 4.25896488 8.74103058 5.90906382 10.75 7.9375 C16.21831306 13.94466143 21 21.72099549 21 30 C19.1171875 29.3203125 19.1171875 29.3203125 17 28 C15.9453125 25.6796875 15.9453125 25.6796875 15.125 22.875 C12.01996633 13.6561791 6.44704603 8.04836226 -1 2 C-0.67 1.34 -0.34 0.68 0 0 Z " fill="#E2F0F0" transform="translate(58,74)"/>
<path d="M0 0 C1.98 0 3.96 0 6 0 C6 7.26 6 14.52 6 22 C4.02 22 2.04 22 0 22 C-0.33 18.7 -0.66 15.4 -1 12 C-1.99 13.32 -2.98 14.64 -4 16 C-5.875 15.75 -5.875 15.75 -8 15 C-9.25 12.9375 -9.25 12.9375 -10 11 C-10.66 11 -11.32 11 -12 11 C-11.67 9.68 -11.34 8.36 -11 7 C-10.34 7 -9.68 7 -9 7 C-8.67 6.34 -8.34 5.68 -8 5 C-6.33333333 6.66666667 -4.66666667 8.33333333 -3 10 C-1.68 10 -0.36 10 1 10 C1 13.63 1 17.26 1 21 C2.32 21 3.64 21 5 21 C5 14.4 5 7.8 5 1 C3.35 1 1.7 1 0 1 C0 0.67 0 0.34 0 0 Z " fill="#296D67" transform="translate(169,111)"/>
<path d="M0 0 C1.48463913 3.86377915 0.45843359 6.24274366 -0.984375 10.015625 C-1.42523438 11.18480469 -1.86609375 12.35398437 -2.3203125 13.55859375 C-2.79210937 14.77675781 -3.26390625 15.99492188 -3.75 17.25 C-4.20632812 18.45269531 -4.66265625 19.65539062 -5.1328125 20.89453125 C-6.01755057 23.22400055 -6.90733272 25.55156186 -7.80273438 27.87695312 C-8.8120386 30.50970592 -9.79507255 33.14969911 -10.765625 35.796875 C-12 39 -12 39 -13 40 C-21.74613627 39.84920455 -29.0912645 36.40732083 -37 33 C-32.12857897 31.37619299 -28.17593756 34.04869337 -23.54296875 35.87109375 C-20.11263579 36.96411054 -17.56670782 37.22394337 -14 37 C-13.75354736 36.34104736 -13.50709473 35.68209473 -13.25317383 35.00317383 C-4.20289345 10.8134746 -4.20289345 10.8134746 0 0 Z " fill="#27241B" transform="translate(86,106)"/>
<path d="M0 0 C4.62 0 9.24 0 14 0 C14 0.99 14 1.98 14 3 C12.35 3 10.7 3 9 3 C9 6.63 9 10.26 9 14 C7.68 14 6.36 14 5 14 C5 10.37 5 6.74 5 3 C3.35 3 1.7 3 0 3 C0 2.01 0 1.02 0 0 Z " fill="#085C6D" transform="translate(121,92)"/>
<path d="M0 0 C0.66 0 1.32 0 2 0 C3.25796093 3.77388278 3.18414011 7.31892849 3.1875 11.25 C3.19974609 11.98863281 3.21199219 12.72726563 3.22460938 13.48828125 C3.23752662 18.3709987 2.55032324 22.36741357 1 27 C0.34 27 -0.32 27 -1 27 C-1.33 22.38 -1.66 17.76 -2 13 C-1.01 13.33 -0.02 13.66 1 14 C0.83628906 13.44828125 0.67257813 12.8965625 0.50390625 12.328125 C-0.05760414 9.73385993 -0.09739008 7.40164589 -0.0625 4.75 C-0.05347656 3.85796875 -0.04445313 2.9659375 -0.03515625 2.046875 C-0.02355469 1.37140625 -0.01195313 0.6959375 0 0 Z " fill="#F5F9F8" transform="translate(78,90)"/>
<path d="M0 0 C1.21236328 0.04060547 1.21236328 0.04060547 2.44921875 0.08203125 C3.06410156 0.11683594 3.67898437 0.15164062 4.3125 0.1875 C3.9825 0.8475 3.6525 1.5075 3.3125 2.1875 C1.9925 2.5175 0.6725 2.8475 -0.6875 3.1875 C-1.3475 5.8275 -2.0075 8.4675 -2.6875 11.1875 C-4.3375 11.1875 -5.9875 11.1875 -7.6875 11.1875 C-8.05499117 3.71517962 -8.05499117 3.71517962 -6.46875 1.4375 C-4.16630036 -0.17825414 -2.78434299 -0.12105839 0 0 Z " fill="#025F7E" transform="translate(138.6875,117.8125)"/>
<path d="M0 0 C0.33 0 0.66 0 1 0 C1 1.65 1 3.3 1 5 C1.66 5.33 2.32 5.66 3 6 C1.25 9 1.25 9 -1 12 C-2.32 12 -3.64 12 -5 12 C-5.66 10.68 -6.32 9.36 -7 8 C-6.34 7.34 -5.68 6.68 -5 6 C-5.33 5.01 -5.66 4.02 -6 3 C-5.195625 2.87625 -4.39125 2.7525 -3.5625 2.625 C-2.716875 2.41875 -1.87125 2.2125 -1 2 C-0.67 1.34 -0.34 0.68 0 0 Z " fill="#0E6275" transform="translate(119,115)"/>
<path d="M0 0 C6.77557783 1.69389446 12.60009242 5.53896809 16.5 11.375 C16.995 12.24125 17.49 13.1075 18 14 C17.01 15.485 17.01 15.485 16 17 C15.68289062 16.50371094 15.36578125 16.00742188 15.0390625 15.49609375 C11.3834949 10.1743144 7.41847192 6.89667098 1.9765625 3.4453125 C1.32429688 2.96835938 0.67203125 2.49140625 0 2 C0 1.34 0 0.68 0 0 Z " fill="#F0EFF0" transform="translate(55,108)"/>
<path d="M0 0 C2.475 0.495 2.475 0.495 5 1 C5 2.32 5 3.64 5 5 C4.67 5.33 4.34 5.66 4 6 C3.76924918 7.34747084 3.58846937 8.70377565 3.4375 10.0625 C3.2209375 12.0115625 3.2209375 12.0115625 3 14 C2.01 14 1.02 14 0 14 C0 9.38 0 4.76 0 0 Z " fill="#035A74" transform="translate(137,92)"/>
<path d="M0 0 C1.99550146 1.99550146 2.81376393 3.47924835 4 6 C4.37125 6.7425 4.7425 7.485 5.125 8.25 C5.558125 9.11625 5.558125 9.11625 6 10 C5.01 10 4.02 10 3 10 C2.34 10.66 1.68 11.32 1 12 C-2.53571429 11.46428571 -2.53571429 11.46428571 -4 10 C-4.04063832 8.33382885 -4.042721 6.66611905 -4 5 C-3.01 5.495 -3.01 5.495 -2 6 C-2.33 6.99 -2.66 7.98 -3 9 C-2.01 9 -1.02 9 0 9 C-0.66 6.69 -1.32 4.38 -2 2 C-1.34 1.34 -0.68 0.68 0 0 Z " fill="#709DAA" transform="translate(51,87)"/>
<path d="M0 0 C1.66611905 -0.042721 3.33382885 -0.04063832 5 0 C6 1 6 1 6.125 4 C6 7 6 7 5 8 C3.33382885 8.04063832 1.66611905 8.042721 0 8 C-1.125 2.25 -1.125 2.25 0 0 Z " fill="#EACA19" transform="translate(137,121)"/>
<path d="M0 0 C2.01136276 2.55991624 3.62845496 5.04590299 5 8 C6.65 8 8.3 8 10 8 C9.01 8.495 9.01 8.495 8 9 C8 9.66 8 10.32 8 11 C2.63157895 11.35789474 2.63157895 11.35789474 0.125 9.9375 C-1.59944167 6.96762823 -1.24840147 4.35341985 -1 1 C-0.67 0.67 -0.34 0.34 0 0 Z " fill="#026082" transform="translate(180,122)"/>
<path d="M0 0 C1.32 0.66 2.64 1.32 4 2 C3.67 4.31 3.34 6.62 3 9 C-0.33333333 9 -3.66666667 9 -7 9 C-7 8.34 -7 7.68 -7 7 C-3.535 6.505 -3.535 6.505 0 6 C0 4.02 0 2.04 0 0 Z " fill="#F6F6F6" transform="translate(73,127)"/>
<path d="M0 0 C1.67542976 0.28604898 3.34385343 0.61781233 5 1 C5 3.31 5 5.62 5 8 C3.33388095 8.042721 1.66617115 8.04063832 0 8 C-1 7 -1 7 -1.125 4 C-1 1 -1 1 0 0 Z " fill="#F3CD11" transform="translate(185,121)"/>
<path d="M0 0 C1.98 0.66 3.96 1.32 6 2 C6.66 5.63 7.32 9.26 8 13 C7.34 13 6.68 13 6 13 C5.67 13.66 5.34 14.32 5 15 C3.33333333 10 1.66666667 5 0 0 Z " fill="#DFE7E6" transform="translate(72,77)"/>
<path d="M0 0 C2.375 0.25 2.375 0.25 5 1 C5.309375 1.66 5.61875 2.32 5.9375 3 C6.288125 3.66 6.63875 4.32 7 5 C8.9914056 5.38133299 10.99279077 5.71325582 13 6 C14.875 7.5625 14.875 7.5625 16 9 C13 10 13 10 10.87890625 9.1796875 C6.34221783 6.62445321 2.9275891 4.45502689 0 0 Z " fill="#EEF2F2" transform="translate(67,71)"/>
<path d="M0 0 C1.36421031 2.72842061 0.87807211 4.60953318 0.5625 7.625 C0.40974609 9.12933594 0.40974609 9.12933594 0.25390625 10.6640625 C0.17011719 11.43492187 0.08632812 12.20578125 0 13 C-0.99 13 -1.98 13 -3 13 C-3 9.04 -3 5.08 -3 1 C-2.01 0.67 -1.02 0.34 0 0 Z " fill="#006185" transform="translate(109,119)"/>
<path d="M0 0 C0.33 0 0.66 0 1 0 C1.33 1.65 1.66 3.3 2 5 C4.97 5.33 7.94 5.66 11 6 C9 10 9 10 7 11 C5.00039988 11.039992 2.99952758 11.04346799 1 11 C2.32 10.67 3.64 10.34 5 10 C5 9.34 5 8.68 5 8 C3.68 8 2.36 8 1 8 C-0.35439668 5.29120665 -0.06501451 2.99066732 0 0 Z " fill="#2F7064" transform="translate(183,123)"/>
<path d="M0 0 C2.72869407 0.03287583 5.2966618 0.56397771 8 1 C7.01 1.33 6.02 1.66 5 2 C4.67 2.66 4.34 3.32 4 4 C3.01 3.67 2.02 3.34 1 3 C0.67 4.32 0.34 5.64 0 7 C-1.32 7.33 -2.64 7.66 -4 8 C-2.25 2.25 -2.25 2.25 0 0 Z " fill="#EEEFD6" transform="translate(46,69)"/>
<path d="M0 0 C0.99 0.66 1.98 1.32 3 2 C2.67 4.31 2.34 6.62 2 9 C0.35 8.67 -1.3 8.34 -3 8 C-2.45276317 4.62537285 -1.9451 2.91765 0 0 Z " fill="#025E7D" transform="translate(193,121)"/>
<path d="M0 0 C0.66 0 1.32 0 2 0 C2 4.62 2 9.24 2 14 C1.01 14 0.02 14 -1 14 C-1 12.35 -1 10.7 -1 9 C-0.34 9 0.32 9 1 9 C0.67 8.34 0.34 7.68 0 7 C-0.04022391 4.6670134 -0.04320247 2.33293334 0 0 Z " fill="#005C7F" transform="translate(148,92)"/>
<path d="M0 0 C3.36338044 3.36338044 4 6.28835716 4 11 C2.0625 10.4375 2.0625 10.4375 0 9 C-1.42682927 2.85365854 -1.42682927 2.85365854 0 0 Z " fill="#D6E6E8" transform="translate(75,93)"/>
<path d="M0 0 C0.99 0.33 1.98 0.66 3 1 C1.14285714 8.57142857 1.14285714 8.57142857 -2 11 C-3.13643966 7.59068103 -2.86747764 6.99664544 -1.5625 3.8125 C-1.13130859 2.73935547 -1.13130859 2.73935547 -0.69140625 1.64453125 C-0.46324219 1.10183594 -0.23507813 0.55914062 0 0 Z " fill="#E5E3E3" transform="translate(48,117)"/>
<path d="M0 0 C1.67542976 0.28604898 3.34385343 0.61781233 5 1 C4.67 2.32 4.34 3.64 4 5 C2.68 5 1.36 5 0 5 C-0.5625 3.0625 -0.5625 3.0625 -1 1 C-0.67 0.67 -0.34 0.34 0 0 Z " fill="#1B1D1C" transform="translate(57,132)"/>
<path d="M0 0 C2.0625 0.4375 2.0625 0.4375 4 1 C3.67 2.98 3.34 4.96 3 7 C1.68 6.67 0.36 6.34 -1 6 C-1.042721 4.33388095 -1.04063832 2.66617115 -1 1 C-0.67 0.67 -0.34 0.34 0 0 Z " fill="#07617A" transform="translate(145,123)"/>
<path d="M0 0 C0.33 0 0.66 0 1 0 C1 3.96 1 7.92 1 12 C0.67 12 0.34 12 0 12 C-0.33 10.02 -0.66 8.04 -1 6 C-1.33 6.33 -1.66 6.66 -2 7 C-3.66617115 7.04063832 -5.33388095 7.042721 -7 7 C-6.38125 6.938125 -5.7625 6.87625 -5.125 6.8125 C-2.73182415 6.17775641 -2.73182415 6.17775641 -1.8125 3.5 C-1.544375 2.675 -1.27625 1.85 -1 1 C-0.67 0.67 -0.34 0.34 0 0 Z " fill="#C1B735" transform="translate(121,121)"/>
<path d="M0 0 C2.02350324 3.03525486 2.32124018 4.19426202 2.625 7.6875 C2.69976562 8.49574219 2.77453125 9.30398437 2.8515625 10.13671875 C2.92503906 11.05904297 2.92503906 11.05904297 3 12 C1.04417512 9.06626269 -0.56224304 6.21783702 -2 3 C-1 1 -1 1 0 0 Z " fill="#0C5B79" transform="translate(75,86)"/>
<path d="M0 0 C2.31 0.66 4.62 1.32 7 2 C7 2.99 7 3.98 7 5 C4.03 4.505 4.03 4.505 1 4 C0.67 2.68 0.34 1.36 0 0 Z " fill="#161717" transform="translate(64,135)"/>
<path d="M0 0 C2.31 0.66 4.62 1.32 7 2 C6.67 2.99 6.34 3.98 6 5 C4.35 4.67 2.7 4.34 1 4 C0.67 2.68 0.34 1.36 0 0 Z " fill="#1C1D1C" transform="translate(47,129)"/>
<path d="M0 0 C0.33 0 0.66 0 1 0 C1 3.63 1 7.26 1 11 C0.67 11 0.34 11 0 11 C-0.33 9.02 -0.66 7.04 -1 5 C-2.65 5.33 -4.3 5.66 -6 6 C-5.01 5.67 -4.02 5.34 -3 5 C-1.8499169 3.03327085 -1.8499169 3.03327085 -1 1 C-0.67 0.67 -0.34 0.34 0 0 Z " fill="#D6C32F" transform="translate(168,122)"/>
<path d="M0 0 C0.66 0.33 1.32 0.66 2 1 C1.67 2.65 1.34 4.3 1 6 C1.99 6 2.98 6 4 6 C3.67 6.99 3.34 7.98 3 9 C2.34 9 1.68 9 1 9 C1 8.34 1 7.68 1 7 C-0.98 7 -2.96 7 -5 7 C-4.0409375 6.6596875 -4.0409375 6.6596875 -3.0625 6.3125 C-0.72806339 5.14749104 -0.72806339 5.14749104 -0.25 2.375 C-0.1675 1.59125 -0.085 0.8075 0 0 Z " fill="#1F6668" transform="translate(143,123)"/>
<path d="M0 0 C4.75 0.75 4.75 0.75 7 3 C6.01 3 5.02 3 4 3 C4.33 4.32 4.66 5.64 5 7 C4.34 7 3.68 7 3 7 C0 2.61538462 0 2.61538462 0 0 Z " fill="#3A7989" transform="translate(53,83)"/>
<path d="M0 0 C1.32 0.99 2.64 1.98 4 3 C3.67 3.66 3.34 4.32 3 5 C2.67 4.67 2.34 4.34 2 4 C0.515 6.475 0.515 6.475 -1 9 C-2.0326802 6.21176345 -2.04509293 5.1322726 -1.0625 2.25 C-0.711875 1.5075 -0.36125 0.765 0 0 Z " fill="#1D686B" transform="translate(192,118)"/>
<path d="M0 0 C0.66 0 1.32 0 2 0 C1.67 2.31 1.34 4.62 1 7 C0.01 7.33 -0.98 7.66 -2 8 C-1.125 1.125 -1.125 1.125 0 0 Z " fill="#F2EEEF" transform="translate(51,110)"/>
<path d="M0 0 C1.98 0.66 3.96 1.32 6 2 C5.34 3.32 4.68 4.64 4 6 C3.01 5.67 2.02 5.34 1 5 C0.67 3.35 0.34 1.7 0 0 Z " fill="#E1E6E6" transform="translate(50,105)"/>
<path d="M0 0 C0 2.64 0 5.28 0 8 C-0.99 8 -1.98 8 -3 8 C-3 5.69 -3 3.38 -3 1 C-1 0 -1 0 0 0 Z " fill="#005A79" transform="translate(119,98)"/>
<path d="M0 0 C2.4375 0.375 2.4375 0.375 5 1 C5.33 1.66 5.66 2.32 6 3 C5.34 3 4.68 3 4 3 C3.67 3.66 3.34 4.32 3 5 C0.525 4.01 0.525 4.01 -2 3 C-1.34 2.67 -0.68 2.34 0 2 C0 1.34 0 0.68 0 0 Z " fill="#E4F0F0" transform="translate(55,80)"/>
<path d="M0 0 C1.32 0.99 2.64 1.98 4 3 C3.67 3.66 3.34 4.32 3 5 C2.34 4.67 1.68 4.34 1 4 C1 6.31 1 8.62 1 11 C0.67 11 0.34 11 0 11 C0 7.37 0 3.74 0 0 Z " fill="#D6C62D" transform="translate(110,122)"/>
<path d="M0 0 C1.37562854 1.28965176 2.70766393 2.62689293 4 4 C4 4.66 4 5.32 4 6 C2.0625 5.6875 2.0625 5.6875 0 5 C-0.33 4.01 -0.66 3.02 -1 2 C-0.67 1.34 -0.34 0.68 0 0 Z " fill="#146472" transform="translate(145,118)"/>
</svg>
