<?xml version="1.0" encoding="UTF-8"?>
<svg version="1.1" xmlns="http://www.w3.org/2000/svg" width="512" height="512">
<path d="M0 0 C1.01790619 0.00215515 2.03581238 0.0043103 3.08456421 0.00653076 C17.69363523 0.05620146 32.02575853 0.30709809 46.375 3.3125 C47.34985352 3.51117676 48.32470703 3.70985352 49.32910156 3.91455078 C97.7109774 14.03517194 141.69928269 35.9516877 177.375 70.3125 C178.3640332 71.26068604 178.3640332 71.26068604 179.37304688 72.22802734 C188.86130305 81.37247479 197.6012044 90.66984009 205.375 101.3125 C206.23306152 102.46355017 207.09113451 103.61459177 207.94921875 104.765625 C213.98736829 112.95680614 219.34595521 121.47054105 224.375 130.3125 C224.73948242 130.94430176 225.10396484 131.57610352 225.47949219 132.22705078 C247.08534998 169.97532572 256.85198095 212.74189997 256.6875 255.9375 C256.68534485 256.95540619 256.6831897 257.97331238 256.68096924 259.02206421 C256.63129854 273.63113523 256.38040191 287.96325853 253.375 302.3125 C253.07698486 303.77478027 253.07698486 303.77478027 252.77294922 305.26660156 C242.65232806 353.6484774 220.7358123 397.63678269 186.375 433.3125 C185.74287598 433.97185547 185.11075195 434.63121094 184.45947266 435.31054688 C175.31502521 444.79880305 166.01765991 453.5387044 155.375 461.3125 C154.22394983 462.17056152 153.07290823 463.02863451 151.921875 463.88671875 C143.73224019 469.92427396 135.22961724 475.30707302 126.375 480.3125 C125.66778809 480.7146875 124.96057617 481.116875 124.23193359 481.53125 C101.09654164 494.5566741 75.92537591 503.30551461 49.9375 508.625 C49.21860596 508.77235596 48.49971191 508.91971191 47.7590332 509.0715332 C33.08339502 511.86090125 18.55831162 512.66142619 3.64770508 512.62817383 C0.70811513 512.6250221 -2.2304558 512.64854926 -5.16992188 512.67382812 C-18.54306192 512.71848737 -31.43916711 511.51301542 -44.625 509.3125 C-46.33055054 509.03031616 -46.33055054 509.03031616 -48.07055664 508.74243164 C-91.33802759 500.97044532 -132.38793216 480.98345309 -165.625 452.3125 C-166.37007813 451.67828125 -167.11515625 451.0440625 -167.8828125 450.390625 C-181.38779833 438.57948485 -194.05918743 425.82889772 -204.625 411.3125 C-205.48149066 410.16255169 -206.33826433 409.01281411 -207.1953125 407.86328125 C-213.23534209 399.67315742 -218.61867614 391.16870382 -223.625 382.3125 C-224.0271875 381.60528809 -224.429375 380.89807617 -224.84375 380.16943359 C-237.8691741 357.03404164 -246.61801461 331.86287591 -251.9375 305.875 C-252.08485596 305.15610596 -252.23221191 304.43721191 -252.3840332 303.6965332 C-255.35789088 288.05024391 -255.99800362 272.57681954 -255.9375 256.6875 C-255.93534485 255.66959381 -255.9331897 254.65168762 -255.93096924 253.60293579 C-255.88129854 238.99386477 -255.63040191 224.66174147 -252.625 210.3125 C-252.42632324 209.33764648 -252.22764648 208.36279297 -252.02294922 207.35839844 C-241.90232806 158.9765226 -219.9858123 114.98821731 -185.625 79.3125 C-184.99287598 78.65314453 -184.36075195 77.99378906 -183.70947266 77.31445312 C-174.56502521 67.82619695 -165.26765991 59.0862956 -154.625 51.3125 C-153.47394983 50.45443848 -152.32290823 49.59636549 -151.171875 48.73828125 C-142.98224019 42.70072604 -134.47961724 37.31792698 -125.625 32.3125 C-124.91778809 31.9103125 -124.21057617 31.508125 -123.48193359 31.09375 C-100.34654164 18.0683259 -75.17537591 9.31948539 -49.1875 4 C-48.46860596 3.85264404 -47.74971191 3.70528809 -47.0090332 3.5534668 C-31.36274391 0.57960912 -15.88931954 -0.06050362 0 0 Z M-135.625 121.3125 C-136.30304688 121.94929688 -136.98109375 122.58609375 -137.6796875 123.2421875 C-164.72278865 149.28830796 -182.1036086 186.69903069 -188.625 223.3125 C-188.80305176 224.30781738 -188.98110352 225.30313477 -189.16455078 226.32861328 C-190.74911474 236.13761643 -191.02444048 245.77811833 -191 255.6875 C-190.99945618 256.52054657 -190.99891235 257.35359314 -190.99835205 258.21188354 C-190.95642748 272.23297084 -189.9185789 285.63846899 -186.625 299.3125 C-186.41601074 300.20098633 -186.20702148 301.08947266 -185.99169922 302.00488281 C-173.97317991 351.6094082 -141.74612628 394.0328157 -98.45507812 420.64648438 C-54.67976446 446.77109173 -3.09574776 454.42993949 46.4140625 442.58544922 C96.86841662 429.75410692 138.66901798 397.77519141 165.7578125 353.46875 C176.53520722 335.29437562 183.52861655 315.8257433 188.375 295.3125 C188.56852051 294.50651367 188.76204102 293.70052734 188.96142578 292.87011719 C194.62569755 267.90836941 193.43151571 238.01375308 187.375 213.3125 C187.13362305 212.3215332 186.89224609 211.33056641 186.64355469 210.30957031 C173.93716982 159.85163695 141.78495516 117.98623927 97.53125 90.9296875 C21.25870264 45.7134672 -72.77817719 61.20559317 -135.625 121.3125 Z " fill="#000000" transform="translate(255.625,-0.3125)"/>
<path d="M0 0 C21.12 0 42.24 0 64 0 C64 31.68 64 63.36 64 96 C95.68 96 127.36 96 160 96 C160 117.12 160 138.24 160 160 C128.32 160 96.64 160 64 160 C64 191.68 64 223.36 64 256 C42.88 256 21.76 256 0 256 C0 224.32 0 192.64 0 160 C-31.68 160 -63.36 160 -96 160 C-96 138.88 -96 117.76 -96 96 C-64.32 96 -32.64 96 0 96 C0 64.32 0 32.64 0 0 Z " fill="#000000" transform="translate(224,128)"/>
</svg>
