<?xml version="1.0" encoding="UTF-8"?>
<svg version="1.1" xmlns="http://www.w3.org/2000/svg" width="64" height="64">
<path d="M0 0 C6.14208002 4.95526376 11.25744638 11.4472701 12.8125 19.3125 C13.87319903 30.25996161 12.58716823 38.9928562 5.5625 47.625 C-0.19891412 53.73185223 -7.03123367 57.78709845 -15.484375 58.6484375 C-26.99276478 58.7786229 -34.75151021 56.5931523 -43.20703125 48.6015625 C-50.46621298 40.21126567 -51.91897304 31.05431706 -51.1875 20.3125 C-49.48863188 11.08390286 -43.99755573 3.87199327 -36.37890625 -1.43359375 C-24.85016394 -8.03025379 -10.86903936 -7.55480577 0 0 Z M-27.1875 1.3125 C-28.39830034 3.30535423 -28.39830034 3.30535423 -28 5.75 C-28.061875 6.595625 -28.12375 7.44125 -28.1875 8.3125 C-29.5075 9.3025 -30.8275 10.2925 -32.1875 11.3125 C-26.2475 12.3025 -26.2475 12.3025 -20.1875 13.3125 C-20.1875 8.0325 -20.1875 2.7525 -20.1875 -2.6875 C-22.64019565 -2.6875 -25.28367748 -0.03604095 -27.1875 1.3125 Z M-17.1875 -1.6875 C-17.1875 3.2625 -17.1875 8.2125 -17.1875 13.3125 C-15.74375 13.18875 -14.3 13.065 -12.8125 12.9375 C-12.00039063 12.86789063 -11.18828125 12.79828125 -10.3515625 12.7265625 C-7.98415809 12.48357412 -7.98415809 12.48357412 -6.1875 10.3125 C-8.41303297 5.19004423 -10.30762003 1.39452946 -15.1875 -1.6875 C-15.8475 -1.6875 -16.5075 -1.6875 -17.1875 -1.6875 Z M-8.1875 0.3125 C-6.5375 3.6125 -4.8875 6.9125 -3.1875 10.3125 C-1.5375 9.6525 0.1125 8.9925 1.8125 8.3125 C0.3097742 4.10486776 -2.42082995 2.5097242 -6.1875 0.3125 C-6.8475 0.3125 -7.5075 0.3125 -8.1875 0.3125 Z M-38.75 4.6875 C-40.40835796 6.20057063 -40.40835796 6.20057063 -40.1875 8.3125 C-37.7125 9.3025 -37.7125 9.3025 -35.1875 10.3125 C-35.5175 8.0025 -35.8475 5.6925 -36.1875 3.3125 C-37.40927328 3.20239535 -37.40927328 3.20239535 -38.75 4.6875 Z M-33.1875 4.3125 C-33.1875 5.3025 -33.1875 6.2925 -33.1875 7.3125 C-32.1975 6.9825 -31.2075 6.6525 -30.1875 6.3125 C-30.1875 5.6525 -30.1875 4.9925 -30.1875 4.3125 C-31.1775 4.3125 -32.1675 4.3125 -33.1875 4.3125 Z M-43.1875 10.3125 C-46.53344658 15.49332051 -47.75576496 19.16027564 -48.1875 25.3125 C-44.5575 25.3125 -40.9275 25.3125 -37.1875 25.3125 C-36.8575 21.3525 -36.5275 17.3925 -36.1875 13.3125 C-38.4975 12.3225 -40.8075 11.3325 -43.1875 10.3125 Z M3.8125 10.3125 C1.78105359 11.24696535 -0.22283587 12.24474776 -2.1875 13.3125 C-1.6925 13.68375 -1.1975 14.055 -0.6875 14.4375 C1.45376944 17.1140868 1.16035248 18.97311623 0.8125 22.3125 C0.1525 23.3025 -0.5075 24.2925 -1.1875 25.3125 C2.4425 25.3125 6.0725 25.3125 9.8125 25.3125 C9.34977822 19.94492739 8.67530421 16.00749891 5.8125 11.3125 C5.1525 10.9825 4.4925 10.6525 3.8125 10.3125 Z M-33.1875 14.3125 C-34.1556648 18.1851592 -34.26372858 21.34861362 -34.1875 25.3125 C-32.41742286 25.39364106 -30.64627902 25.45175505 -28.875 25.5 C-27.88886719 25.53480469 -26.90273438 25.56960937 -25.88671875 25.60546875 C-23.21281288 25.50975628 -23.21281288 25.50975628 -21.33203125 24.17578125 C-19.66410042 21.8248669 -19.66410042 21.8248669 -20.1875 16.3125 C-24.4775 15.6525 -28.7675 14.9925 -33.1875 14.3125 Z M-12.875 15.3125 C-13.68324219 15.498125 -14.49148437 15.68375 -15.32421875 15.875 C-15.93910156 16.019375 -16.55398437 16.16375 -17.1875 16.3125 C-17.57714207 20.39146604 -17.57714207 20.39146604 -16 24 C-13.56175415 25.76562631 -11.97705493 25.61598915 -9 25.5 C-8.09894531 25.47292969 -7.19789062 25.44585937 -6.26953125 25.41796875 C-5.23892578 25.36576172 -5.23892578 25.36576172 -4.1875 25.3125 C-4.8475 24.3225 -5.5075 23.3325 -6.1875 22.3125 C-6.51477273 16.96704545 -6.51477273 16.96704545 -5.1875 14.3125 C-7.98534711 14.3125 -10.1665678 14.68445775 -12.875 15.3125 Z M-4.1875 18.3125 C-3.8575 19.3025 -3.5275 20.2925 -3.1875 21.3125 C-2.5275 20.9825 -1.8675 20.6525 -1.1875 20.3125 C-1.1875 19.6525 -1.1875 18.9925 -1.1875 18.3125 C-2.1775 18.3125 -3.1675 18.3125 -4.1875 18.3125 Z M-20.1875 25.3125 C-20.1875 26.3025 -20.1875 27.2925 -20.1875 28.3125 C-19.1975 27.9825 -18.2075 27.6525 -17.1875 27.3125 C-17.1875 26.6525 -17.1875 25.9925 -17.1875 25.3125 C-18.1775 25.3125 -19.1675 25.3125 -20.1875 25.3125 Z M-48.1875 28.3125 C-46.75887281 35.72601729 -46.75887281 35.72601729 -43.1875 42.3125 C-40.8775 41.6525 -38.5675 40.9925 -36.1875 40.3125 C-36.1875 39.6525 -36.1875 38.9925 -36.1875 38.3125 C-37.1775 37.6525 -38.1675 36.9925 -39.1875 36.3125 C-39.5 33.3125 -39.5 33.3125 -39.1875 30.3125 C-38.5275 29.6525 -37.8675 28.9925 -37.1875 28.3125 C-40.8175 28.3125 -44.4475 28.3125 -48.1875 28.3125 Z M-34.1875 28.3125 C-33.5275 28.9725 -32.8675 29.6325 -32.1875 30.3125 C-31.85416667 35.64583333 -31.85416667 35.64583333 -33.1875 38.3125 C-26.7525 37.8175 -26.7525 37.8175 -20.1875 37.3125 C-19.66410042 31.8001331 -19.66410042 31.8001331 -21.33203125 29.44921875 C-23.92637766 27.85984022 -25.85887381 28.01854849 -28.875 28.125 C-29.86886719 28.15207031 -30.86273437 28.17914063 -31.88671875 28.20703125 C-33.02560547 28.25923828 -33.02560547 28.25923828 -34.1875 28.3125 Z M-15.1875 28.3125 C-15.1875 28.9725 -15.1875 29.6325 -15.1875 30.3125 C-15.8475 30.3125 -16.5075 30.3125 -17.1875 30.3125 C-17.1875 32.6225 -17.1875 34.9325 -17.1875 37.3125 C-13.2275 37.6425 -9.2675 37.9725 -5.1875 38.3125 C-4.0297494 34.83924819 -4.11883348 31.95182552 -4.1875 28.3125 C-7.8175 28.3125 -11.4475 28.3125 -15.1875 28.3125 Z M-1.1875 28.3125 C-1.5175 32.2725 -1.8475 36.2325 -2.1875 40.3125 C2.37921088 42.49819534 2.37921088 42.49819534 5.8125 42.3125 C6.48778223 40.73282193 7.15239694 39.14858097 7.8125 37.5625 C8.369375 36.23992188 8.369375 36.23992188 8.9375 34.890625 C10.02675883 32.13496229 10.02675883 32.13496229 9.8125 28.3125 C6.1825 28.3125 2.5525 28.3125 -1.1875 28.3125 Z M-37.1875 32.3125 C-36.8575 33.3025 -36.5275 34.2925 -36.1875 35.3125 C-35.5275 34.9825 -34.8675 34.6525 -34.1875 34.3125 C-34.1875 33.6525 -34.1875 32.9925 -34.1875 32.3125 C-35.1775 32.3125 -36.1675 32.3125 -37.1875 32.3125 Z M-32.1875 41.3125 C-29.87645482 47.55232199 -27.76704695 51.55237053 -22.1875 55.3125 C-21.5275 55.3125 -20.8675 55.3125 -20.1875 55.3125 C-20.1875 50.3625 -20.1875 45.4125 -20.1875 40.3125 C-26.36817329 40.29547167 -26.36817329 40.29547167 -32.1875 41.3125 Z M-17.1875 40.3125 C-17.1875 45.2625 -17.1875 50.2125 -17.1875 55.3125 C-14.00675835 53.54398964 -14.00675835 53.54398964 -11.1875 51.3125 C-11.0328125 49.641875 -11.0328125 49.641875 -10.875 47.9375 C-10.1875 44.3125 -10.1875 44.3125 -6.1875 41.3125 C-9.8175 40.9825 -13.4475 40.6525 -17.1875 40.3125 Z M-38.875 44.8125 C-39.308125 45.3075 -39.74125 45.8025 -40.1875 46.3125 C-39.08831184 47.29725214 -37.9829398 48.27510473 -36.875 49.25 C-36.26011719 49.79527344 -35.64523438 50.34054688 -35.01171875 50.90234375 C-33.13508042 52.51331559 -33.13508042 52.51331559 -30.1875 53.3125 C-30.620625 52.2296875 -30.620625 52.2296875 -31.0625 51.125 C-32.10416667 48.52083333 -33.14583333 45.91666667 -34.1875 43.3125 C-37.19009517 42.98031808 -37.19009517 42.98031808 -38.875 44.8125 Z M-3.1875 43.3125 C-2.8575 45.2925 -2.5275 47.2725 -2.1875 49.3125 C-0.5375 48.3225 1.1125 47.3325 2.8125 46.3125 C2.4825 45.6525 2.1525 44.9925 1.8125 44.3125 C-0.71483235 43.65694881 -0.71483235 43.65694881 -3.1875 43.3125 Z M-7.1875 45.3125 C-7.1875 46.6325 -7.1875 47.9525 -7.1875 49.3125 C-6.5275 48.9825 -5.8675 48.6525 -5.1875 48.3125 C-5.5175 47.3225 -5.8475 46.3325 -6.1875 45.3125 C-6.5175 45.3125 -6.8475 45.3125 -7.1875 45.3125 Z " fill="#323232" transform="translate(51.1875,5.6875)"/>
</svg>
